<svg xmlns="http://www.w3.org/2000/svg" xmlns:xlink="http://www.w3.org/1999/xlink" viewBox="0 0 554.59 197.79"><defs><style>.cls-1{fill:none;}.cls-2{fill:#d44748;opacity:0.48;}</style></defs><g id="trash"><image width="165" height="308" transform="translate(476.35 107.9) scale(0.22)" xlink:href="full-gum1.png"/><image width="181" height="326" transform="translate(436.54 107.9) scale(0.22)" xlink:href="full-gum2.png"/><image width="145" height="346" transform="translate(404.65 107.9) scale(0.22)" xlink:href="full-gum3.png"/><image width="143" height="357" transform="translate(373.19 107.9) scale(0.22)" xlink:href="full-gum4.png"/><image width="138" height="388" transform="translate(342.84 107.9) scale(0.22)" xlink:href="full-gum5.png"/><image width="141" height="388" transform="translate(311.83 107.9) scale(0.22)" xlink:href="full-gum6.png"/><image width="133" height="388" transform="translate(282.58 107.9) scale(0.22)" xlink:href="full-gum7.png"/><image width="150" height="388" transform="translate(249.59 107.9) scale(0.22)" xlink:href="full-gum8.png"/><image width="149" height="388" transform="translate(216.81 107.9) scale(0.22)" xlink:href="full-gum9.png"/><image width="132" height="388" transform="translate(187.78 107.9) scale(0.22)" xlink:href="full-gum10.png"/><image width="147" height="357" transform="translate(155.45 107.9) scale(0.22)" xlink:href="full-gum11.png"/><image width="148" height="348" transform="translate(122.9 107.9) scale(0.22)" xlink:href="full-gum12.png"/><image width="186" height="312" transform="translate(81.99 107.9) scale(0.22)" xlink:href="full-gum13.png"/><image width="168" height="306" transform="translate(45.04 107.9) scale(0.22)" xlink:href="full-gum14.png"/><image width="170" height="262" transform="translate(7.65 107.9) scale(0.22)" xlink:href="full-gum15.png"/><image width="165" height="263" transform="translate(512.64 107.9) scale(0.22)" xlink:href="full-gum16.png"/><path class="cls-1" d="M277,161.09l.28-.08-.35.11Z"/><line class="cls-1" x1="162.54" y1="161.05" x2="162.39" y2="161.09"/><path class="cls-2" d="M282.58,140.15v57.64h-7.9c-191-3.42-257.33-23-266.43-34.07C1.24,155.22.31,136,.2,129v-.61c0-.22,0-.42,0-.59l0-.58,1.35.14c1.72.18,3.34.34,5,.59a15.6,15.6,0,0,0,5-.32l1.27-.2a1.54,1.54,0,0,0,.72-.46,3.41,3.41,0,0,1,.88-.6,16.94,16.94,0,0,1,8.13-1,28,28,0,0,1,5.16,1,4.15,4.15,0,0,0,2.1,0,8.2,8.2,0,0,1,3.86.24c.41.1.81.19,1.22.26,1.92.3,4,.64,6,1.07a9.2,9.2,0,0,1,2.5.94,7.68,7.68,0,0,0,3.75.94A41.93,41.93,0,0,1,60.17,132a11.56,11.56,0,0,0,7.68.08,25.24,25.24,0,0,1,8.56-.84,15,15,0,0,0,3.12-.33,27.39,27.39,0,0,1,8.38.31c2.78.38,5.61.81,8.34,1.23l1.29.2a33.5,33.5,0,0,0,9.23-.27l2.45-.28,2.14-.23a61.82,61.82,0,0,1,12.27-.51,16.58,16.58,0,0,1,6.2,1.95l1.12.6c.79.41,1.58.83,2.35,1.28a4,4,0,0,0,2.23.6l1.06,0a18.12,18.12,0,0,0,6-.81,17.41,17.41,0,0,1,4.62-.57,3.26,3.26,0,0,1,2.41,1.06l.83.68c2.2,1.82,4.28,3.53,7.07,4.11a8.41,8.41,0,0,0,3.14.33l.25-.12.09.07.15,0a13.32,13.32,0,0,0,3.27-.93c1.14-.6,2.29-1.2,3.46-1.77.51-.25,1-.48,1.53-.71l.65-.29a6.57,6.57,0,0,1,7.23.74,12.52,12.52,0,0,0,5,1.77l1,.2a20.72,20.72,0,0,0,3.44.41,66.34,66.34,0,0,0,11.47-.9l1.93-.29a17.79,17.79,0,0,1,6.74-.23,48.45,48.45,0,0,0,7.86.85c2.74.16,5,.27,7.34.34a10.55,10.55,0,0,1,5.12,1.51,6.2,6.2,0,0,0,2.4.54l1.12.17a17,17,0,0,0,5.85.23l.33,0a.65.65,0,0,0,.33-.07,4.35,4.35,0,0,1,3.38-1.34l1.48-.06c4.94-.22,10.05-.44,15.09.84a82.46,82.46,0,0,1,7.87,2.52c3.15,1.1,5.73.8,7.87-.92a9.51,9.51,0,0,1,2.9-1.54l.33-.1.13,0a2.88,2.88,0,0,1,.4-.09c.7-.18,1.75-.41,2.25-.51l.12,0,.17,0A33.73,33.73,0,0,1,282.58,140.15Z"/><path class="cls-2" d="M554.44,126.24v.92c0,.24,0,.68,0,1.3-.09,7-.94,26.59-8.07,35.26-2,2.46-5.6,11.16-56.48,19.53-49.26,8.11-117.87,13-203.93,14.54h-3.37V140.15a35.2,35.2,0,0,1,5.24-.09,5.57,5.57,0,0,1,2.18.55c3,1.4,6.36,1.75,10.78,1.13a31.3,31.3,0,0,0,7.24-1.61,13.83,13.83,0,0,1,7.65-.43,38.07,38.07,0,0,0,4.39.51,40.41,40.41,0,0,1,4.33.49,61.48,61.48,0,0,0,7.34.69,6.65,6.65,0,0,0,3.69-.67c3.54-1.82,7.51-2.53,12.83-2.3a12.57,12.57,0,0,1,5.07,1.75,13.09,13.09,0,0,0,11.95.24,4.55,4.55,0,0,1,2.77-.27,54.38,54.38,0,0,0,12.53,1,3.13,3.13,0,0,0,1.82-.71,19.7,19.7,0,0,1,7.89-3.19,4.79,4.79,0,0,1,2.43.34,15.36,15.36,0,0,0,3.67,1,11.36,11.36,0,0,0,4.1-1.06c1.1-.4,2.14-.81,3.19-1.21,1.26-.49,2.55-1,3.86-1.45a7.33,7.33,0,0,1,4.74.07l1.85.58a19.92,19.92,0,0,0,7.56,1.39l2.39-.39c.67-.11,1.34-.2,2-.29a34.26,34.26,0,0,0,3.44-.57,37,37,0,0,0,3.58-1.1,31.56,31.56,0,0,1,4.28-1.26c1.63-.33,3.27-.82,4.85-1.31a38.62,38.62,0,0,1,6.63-1.6c4.93-.56,10.53-1.2,15.95.38.48.14,1,.31,1.43.48l.87.28c5.52,1.5,11.15.59,16.59-.3l.41-.06a11.77,11.77,0,0,1,4.68.47,33.58,33.58,0,0,0,8.64.67,58.63,58.63,0,0,0,8.5-.53,5.84,5.84,0,0,0,1.59-.53,69.14,69.14,0,0,1,9.13-3.85,40.71,40.71,0,0,1,21.45-1l.26.06c5.17,1.16,3.51,2.36,8.93,1.63a28.86,28.86,0,0,0,6.48-1.53Z"/><image width="165" height="308" transform="matrix(0.22, 0, 0, -0.22, 476.35, 91.89)" xlink:href="full-gum17.png"/><image width="181" height="326" transform="matrix(0.22, 0, 0, -0.22, 436.54, 91.89)" xlink:href="full-gum18.png"/><image width="145" height="346" transform="matrix(0.22, 0, 0, -0.22, 404.65, 91.89)" xlink:href="full-gum19.png"/><image width="143" height="357" transform="matrix(0.22, 0, 0, -0.22, 373.19, 91.89)" xlink:href="full-gum20.png"/><image width="138" height="388" transform="matrix(0.22, 0, 0, -0.22, 342.84, 91.89)" xlink:href="full-gum21.png"/><image width="141" height="388" transform="matrix(0.22, 0, 0, -0.22, 311.83, 91.89)" xlink:href="full-gum22.png"/><image width="133" height="388" transform="matrix(0.22, 0, 0, -0.22, 282.58, 91.89)" xlink:href="full-gum23.png"/><image width="150" height="388" transform="matrix(0.22, 0, 0, -0.22, 249.59, 91.89)" xlink:href="full-gum24.png"/><image width="149" height="388" transform="matrix(0.22, 0, 0, -0.22, 216.81, 91.89)" xlink:href="full-gum25.png"/><image width="132" height="388" transform="matrix(0.22, 0, 0, -0.22, 187.78, 91.89)" xlink:href="full-gum26.png"/><image width="147" height="357" transform="matrix(0.22, 0, 0, -0.22, 155.45, 91.89)" xlink:href="full-gum27.png"/><image width="148" height="348" transform="matrix(0.22, 0, 0, -0.22, 122.9, 91.89)" xlink:href="full-gum28.png"/><image width="186" height="312" transform="matrix(0.22, 0, 0, -0.22, 81.99, 91.89)" xlink:href="full-gum29.png"/><image width="168" height="306" transform="matrix(0.22, 0, 0, -0.22, 45.04, 91.89)" xlink:href="full-gum30.png"/><image width="170" height="262" transform="matrix(0.22, 0, 0, -0.22, 7.65, 91.89)" xlink:href="full-gum31.png"/><image width="165" height="263" transform="matrix(0.22, 0, 0, -0.22, 512.64, 91.89)" xlink:href="full-gum32.png"/><path class="cls-2" d="M282.58,2V59.63a33.73,33.73,0,0,1-3.39-.5l-.17,0-.12,0c-.5-.1-1.55-.33-2.25-.51a2.88,2.88,0,0,1-.4-.09l-.13,0-.33-.1a9.51,9.51,0,0,1-2.9-1.54c-2.14-1.72-4.72-2-7.87-.92a82.46,82.46,0,0,1-7.87,2.52c-5,1.28-10.15,1.06-15.09.84l-1.48-.06a4.35,4.35,0,0,1-3.38-1.34.65.65,0,0,0-.33-.07l-.33,0a17,17,0,0,0-5.85.23l-1.12.17a6.2,6.2,0,0,0-2.4.54,10.55,10.55,0,0,1-5.12,1.51c-2.31.07-4.6.18-7.34.34a48.45,48.45,0,0,0-7.86.85,17.79,17.79,0,0,1-6.74-.23l-1.93-.29a66.34,66.34,0,0,0-11.47-.9,20.72,20.72,0,0,0-3.44.41l-1,.2a12.52,12.52,0,0,0-5,1.77,6.57,6.57,0,0,1-7.23.74l-.65-.29c-.51-.23-1-.46-1.53-.71-1.17-.57-2.32-1.17-3.46-1.77a13.32,13.32,0,0,0-3.27-.93l-.15,0-.09.07-.25-.12a8.41,8.41,0,0,0-3.14.33c-2.79.58-4.87,2.29-7.07,4.11l-.83.68a3.26,3.26,0,0,1-2.41,1.06,17.41,17.41,0,0,1-4.62-.57,18.12,18.12,0,0,0-6-.81l-1.06,0a4,4,0,0,0-2.23.6c-.77.45-1.56.87-2.35,1.28l-1.12.6a16.58,16.58,0,0,1-6.2,2A61.82,61.82,0,0,1,111.36,68l-2.14-.23-2.45-.28a33.5,33.5,0,0,0-9.23-.27l-1.29.2c-2.73.42-5.56.85-8.34,1.23a27.39,27.39,0,0,1-8.38.31,15,15,0,0,0-3.12-.33,25.24,25.24,0,0,1-8.56-.84,11.56,11.56,0,0,0-7.68.08A41.93,41.93,0,0,1,47.11,70a7.68,7.68,0,0,0-3.75.94,9.2,9.2,0,0,1-2.5.94c-2,.43-4.1.77-6,1.07-.41.07-.81.16-1.22.26a8.2,8.2,0,0,1-3.86.24,4.15,4.15,0,0,0-2.1,0,28,28,0,0,1-5.16,1,16.94,16.94,0,0,1-8.13-1,3.41,3.41,0,0,1-.88-.6,1.54,1.54,0,0,0-.72-.46l-1.27-.2a15.6,15.6,0,0,0-5-.32c-1.66.25-3.28.41-5,.59l-1.35.14v0c0-2-1-22.4,1.84-37.87.63-3.48,2-11.13,4.67-16.08C18.09-2.86,66.28,1.18,78.06,2.1c34.57,2.7,78,3.07,135,1.7,17.07-.41,35.35-1,55-1.69h.14l6.5-.12Z"/><path class="cls-2" d="M268,2.11c-19.62.71-37.9,1.28-55,1.69Q238.6,2.72,268,2.11Z"/><path class="cls-2" d="M554.44,73.54v-1.4c0-.45,0-.78,0-.82,0-1.59,1-22.29-1.84-37.92-.63-3.47-2-11.13-4.67-16.08C536.5-4.06,488.31,0,476.53.91,431.58,4.42,371.14,5.06,286,2h-3.37V59.63a35.2,35.2,0,0,0,5.24.09,5.57,5.57,0,0,0,2.18-.55c3-1.4,6.36-1.75,10.78-1.13A31.3,31.3,0,0,1,308,59.65a13.83,13.83,0,0,0,7.65.43,38.07,38.07,0,0,1,4.39-.51,40.41,40.41,0,0,0,4.33-.49,61.48,61.48,0,0,1,7.34-.69,6.65,6.65,0,0,1,3.69.67c3.54,1.82,7.51,2.53,12.83,2.3a12.57,12.57,0,0,0,5.07-1.75,13.09,13.09,0,0,1,11.95-.24,4.55,4.55,0,0,0,2.77.27,54.38,54.38,0,0,1,12.53-1,3.13,3.13,0,0,1,1.82.71,19.7,19.7,0,0,0,7.89,3.19,4.79,4.79,0,0,0,2.43-.34,15.36,15.36,0,0,1,3.67-1,11.36,11.36,0,0,1,4.1,1.06c1.1.4,2.14.81,3.19,1.21,1.26.49,2.55,1,3.86,1.45a7.33,7.33,0,0,0,4.74-.07l1.85-.58a19.92,19.92,0,0,1,7.56-1.39l2.39.39c.67.11,1.34.2,2,.29a34.26,34.26,0,0,1,3.44.57,37,37,0,0,1,3.58,1.1,31.56,31.56,0,0,0,4.28,1.26c1.63.33,3.27.82,4.85,1.31a38.62,38.62,0,0,0,6.63,1.6c4.93.56,10.53,1.2,15.95-.38.48-.14,1-.31,1.43-.48l.87-.28c5.52-1.5,11.15-.59,16.59.3l.41.06a11.77,11.77,0,0,0,4.68-.47,33.58,33.58,0,0,1,8.64-.67,58.63,58.63,0,0,1,8.5.53,5.84,5.84,0,0,1,1.59.53,69.14,69.14,0,0,0,9.13,3.85,40.71,40.71,0,0,0,21.45,1l.26-.06a18.54,18.54,0,0,0,2.62-.76c1.26-.49,2.16-.87,2.32-.94C544.48,71.17,547.26,71.15,554.44,73.54Z"/></g></svg>