<svg width="11" height="22" viewBox="0 0 11 22" fill="none" xmlns="http://www.w3.org/2000/svg">
<path d="M1.54438 21.6284C1.18417 21.6291 0.835077 21.5037 0.557713 21.2738C0.401606 21.1444 0.272566 20.9855 0.177982 20.8061C0.0833974 20.6267 0.0251281 20.4305 0.00651111 20.2285C-0.0121058 20.0266 0.0092956 19.823 0.0694892 19.6294C0.129683 19.4357 0.227485 19.2559 0.357296 19.1001L7.26396 10.8367L0.603964 2.55799C0.475904 2.4003 0.380272 2.21885 0.322564 2.02408C0.264857 1.8293 0.246212 1.62505 0.267702 1.42304C0.289192 1.22104 0.350391 1.02528 0.447784 0.847004C0.545177 0.668731 0.676843 0.511463 0.835213 0.384241C0.994723 0.243893 1.18152 0.138031 1.38388 0.0732975C1.58625 0.00856436 1.79981 -0.0136413 2.01116 0.00807286C2.22251 0.0297871 2.42709 0.0949529 2.61206 0.199481C2.79704 0.304009 2.95841 0.445641 3.08605 0.615491L10.5323 9.86549C10.759 10.1413 10.883 10.4874 10.883 10.8444C10.883 11.2015 10.759 11.5476 10.5323 11.8234L2.82396 21.0734C2.66931 21.26 2.47285 21.4075 2.25052 21.5039C2.0282 21.6003 1.78628 21.643 1.54438 21.6284Z" fill="#14726E"/>
</svg>
