<?xml version="1.0" encoding="utf-8"?>
<!-- Generator: Adobe Illustrator 24.2.3, SVG Export Plug-In . SVG Version: 6.00 Build 0)  -->
<svg version="1.1" id="Layer_1" xmlns="http://www.w3.org/2000/svg" xmlns:xlink="http://www.w3.org/1999/xlink" x="0px" y="0px"
	 viewBox="0 0 20 16" style="enable-background:new 0 0 20 16;" xml:space="preserve">
<style type="text/css">
	.st0{fill:#A17E3F;}
</style>
<path class="st0" d="M14.8,0c0.6,0,1.1,0.2,1.5,0.6C16.7,1,17,1.5,17,2.1l0,0.2v11.2c0,0.1,0,0.2,0.1,0.3c0.1,0.1,0.2,0.1,0.3,0.2
	c0.1,0,0.2,0,0.3-0.1c0.1-0.1,0.2-0.2,0.2-0.3l0-0.1V3c0.5,0.1,1,0.3,1.4,0.7C19.7,4.1,20,4.6,20,5.1l0,0.2v7.5
	c0,0.8-0.3,1.6-0.9,2.2c-0.6,0.6-1.3,1-2.2,1l-0.2,0H3.2c-0.8,0-1.6-0.3-2.2-0.9c-0.6-0.6-1-1.3-1-2.2l0-0.2V2.2
	c0-0.6,0.2-1.1,0.6-1.5C1,0.3,1.5,0,2.1,0l0.2,0H14.8z M7.2,7H3.7C3.5,7,3.4,7.1,3.2,7.2C3.1,7.4,3,7.6,3,7.8v3.5
	C3,11.7,3.3,12,3.7,12h3.5c0.2,0,0.4-0.1,0.5-0.2C7.9,11.6,8,11.4,8,11.2V7.8c0-0.2-0.1-0.4-0.2-0.5C7.6,7.1,7.4,7,7.2,7z
	 M13.3,10.5h-2.5l-0.1,0c-0.2,0-0.4,0.1-0.5,0.3c-0.1,0.1-0.2,0.3-0.2,0.5c0,0.2,0.1,0.4,0.2,0.5c0.1,0.1,0.3,0.2,0.5,0.2h2.5l0.1,0
	c0.2,0,0.4-0.1,0.5-0.3s0.2-0.3,0.2-0.5c0-0.2-0.1-0.4-0.2-0.5C13.6,10.6,13.4,10.5,13.3,10.5z M6.5,8.5v2h-2v-2H6.5z M13.2,7
	l-2.5,0l-0.1,0c-0.2,0-0.4,0.1-0.5,0.3C10,7.4,10,7.6,10,7.8c0,0.2,0.1,0.4,0.2,0.5c0.1,0.1,0.3,0.2,0.5,0.2l2.5,0l0.1,0
	c0.2,0,0.4-0.1,0.5-0.3S14,7.9,14,7.7c0-0.2-0.1-0.4-0.2-0.5C13.6,7.1,13.4,7,13.2,7L13.2,7z M13.3,3.5H3.7l-0.1,0
	c-0.2,0-0.4,0.1-0.5,0.3C3,3.9,3,4.1,3,4.3c0,0.2,0.1,0.4,0.2,0.5C3.4,4.9,3.6,5,3.7,5h9.5l0.1,0c0.2,0,0.4-0.1,0.5-0.3
	C14,4.6,14,4.4,14,4.2c0-0.2-0.1-0.4-0.2-0.5S13.4,3.5,13.3,3.5L13.3,3.5z"/>
</svg>
