<svg width="25" height="14" viewBox="0 0 25 14" fill="none" xmlns="http://www.w3.org/2000/svg">
<path d="M24.6323 11.4902C24.6331 11.8991 24.4906 12.2953 24.2298 12.6102C24.0828 12.7874 23.9024 12.9339 23.6988 13.0412C23.4952 13.1486 23.2724 13.2147 23.0432 13.2359C22.814 13.257 22.5829 13.2327 22.3631 13.1644C22.1433 13.096 21.9391 12.985 21.7623 12.8377L12.3823 4.99768L2.98475 12.5577C2.80575 12.703 2.59978 12.8116 2.37869 12.8771C2.15759 12.9426 1.92573 12.9638 1.69643 12.9394C1.46713 12.915 1.24491 12.8455 1.04255 12.735C0.840186 12.6244 0.661665 12.4749 0.517251 12.2952C0.357937 12.1141 0.237769 11.9021 0.164288 11.6724C0.0908068 11.4427 0.0656003 11.2002 0.0902489 10.9603C0.114897 10.7204 0.188869 10.4882 0.307523 10.2782C0.426176 10.0682 0.586948 9.88506 0.779751 9.74018L11.2798 1.28768C11.5929 1.03028 11.9857 0.889573 12.391 0.889573C12.7963 0.889573 13.1891 1.03028 13.5023 1.28768L24.0023 10.0377C24.214 10.2132 24.3814 10.4362 24.4909 10.6886C24.6004 10.941 24.6488 11.2156 24.6323 11.4902Z" fill="#A17E3F"/>
</svg>
