<svg width="16" height="16" viewBox="0 0 16 16" fill="none" xmlns="http://www.w3.org/2000/svg">
<g clip-path="url(#clip0)">
<path d="M10.2062 5.79298C12.0732 7.66202 12.0476 10.6585 10.2174 12.4989C10.214 12.5027 10.2099 12.5067 10.2062 12.5105L8.10615 14.6105C6.25396 16.4627 3.24056 16.4624 1.38865 14.6105C-0.463535 12.7586 -0.463535 9.74486 1.38865 7.89298L2.54821 6.73342C2.85571 6.42592 3.38528 6.6303 3.40115 7.06486C3.4214 7.61867 3.52071 8.17508 3.70396 8.71239C3.76603 8.89433 3.72168 9.09558 3.58575 9.23152L3.17678 9.64048C2.30096 10.5163 2.2735 11.9424 3.14068 12.8267C4.01643 13.7198 5.45587 13.7251 6.33834 12.8427L8.43834 10.743C9.31931 9.86201 9.31562 8.43808 8.43834 7.5608C8.32268 7.44536 8.20618 7.35567 8.11518 7.29302C8.05081 7.24881 7.99765 7.19017 7.95996 7.12177C7.92227 7.05337 7.90108 6.97712 7.89809 6.89908C7.88572 6.56886 8.00271 6.22858 8.26365 5.96764L8.92159 5.30967C9.09412 5.13714 9.36478 5.11595 9.56484 5.25558C9.79395 5.41556 10.0086 5.59539 10.2062 5.79298ZM14.6104 1.38855C12.7585 -0.46339 9.74506 -0.46364 7.89287 1.38855L5.79287 3.48855C5.78912 3.4923 5.78506 3.49636 5.78162 3.50011C3.95143 5.34048 3.92578 8.33702 5.79287 10.206C5.99046 10.4036 6.20505 10.5834 6.43415 10.7434C6.63421 10.883 6.9049 10.8618 7.0774 10.6893L7.73534 10.0314C7.99628 9.77042 8.11328 9.43014 8.1009 9.09992C8.09791 9.02188 8.07673 8.94563 8.03903 8.87723C8.00134 8.80883 7.94819 8.75019 7.88381 8.70598C7.79281 8.64333 7.67631 8.55364 7.56065 8.4382C6.68337 7.56092 6.67968 6.13698 7.56065 5.25602L9.66065 3.15633C10.5431 2.27386 11.9825 2.27917 12.8583 3.17227C13.7255 4.05664 13.6981 5.4827 12.8222 6.35852L12.4132 6.76748C12.2773 6.90342 12.233 7.10467 12.295 7.28661C12.4783 7.82392 12.5776 8.38033 12.5978 8.93414C12.6137 9.3687 13.1433 9.57308 13.4508 9.26558L14.6103 8.10602C16.4626 6.25417 16.4626 3.24042 14.6104 1.38855Z" fill="#A17E3F"/>
</g>
<defs>
<clipPath id="clip0">
<rect width="16" height="16" fill="white"/>
</clipPath>
</defs>
</svg>
