<svg xmlns="http://www.w3.org/2000/svg" viewBox="0 0 561.25 20.5"><defs><style>.cls-1{fill:#d44747;}</style></defs><g id="Layer_2" data-name="Layer 2"><g id="trash"><path class="cls-1" d="M561.25,2.64A10.71,10.71,0,0,0,557,3.91c-1.93,1.2-3.74.89-5.69.63-5.5-.73-10.83-2.33-16.29-3.3-3.55-.64-7.06-.13-10.59.14-5.58.43-10.49,2.9-15.52,5-1.72.72-3.31,1.42-5.25,1a7.81,7.81,0,0,0-3.58.22,24.74,24.74,0,0,1-12.47-.33,14.69,14.69,0,0,0-6.29-.15,52.47,52.47,0,0,1-8.46,1A23.85,23.85,0,0,1,466,6.83c-5.43-1.66-10.86-1.33-16.33-.17a103,103,0,0,1-10.76,2,11.7,11.7,0,0,0-2.62.76,61.07,61.07,0,0,1-7.51,2c-1.76.42-3.63.21-5.43.57-.26.05-.61,0-.25-.4.47-.12,1.14.4,1.36-.45,1.82-.3,3.66-.43,5.48-.86,2.67-.63,5.16-1.83,7.84-2.36,3.87-.77,7.53-2.44,11.44-2.9,5.24-.6,10.54-1.16,15.75.36.65.19,1.29.43,1.93.65,0,.17-.32.38,0,.48s.32-.16.37-.37c5.77,1.57,11.49.58,17.22-.35a11.16,11.16,0,0,1,4.45.46,34.92,34.92,0,0,0,8.82.69,59.54,59.54,0,0,0,8.54-.54,6.19,6.19,0,0,0,1.75-.57A68.84,68.84,0,0,1,517.11,2a40.18,40.18,0,0,1,21.18-1c5.35,1.2,10.77,2.45,16.37,1.7a30.4,30.4,0,0,0,6.59-1.56Z"/><path class="cls-1" d="M163.17,15.53a4.87,4.87,0,0,1-3.66.52c-3.79-.91-7.43-2.23-10.21-5.15a3.44,3.44,0,0,0-3.37-1c-2.91.49-5.72,1.52-8.72,1.57a8.32,8.32,0,0,1-3.53-.52,21.5,21.5,0,0,1-3.35-1.61c-2.94-1.94-6.32-1.9-9.64-2.4-4.37-.67-8.5.43-12.7,1A51.43,51.43,0,0,1,91.52,7.6c-2.58-.48-5.23-.57-7.85-.79A12.09,12.09,0,0,0,80.61,7a12.38,12.38,0,0,1-4.46,0,13.69,13.69,0,0,0-7,.6,14,14,0,0,1-9.77-.09,38.24,38.24,0,0,0-12-2,16.7,16.7,0,0,1-8-2.09,8.11,8.11,0,0,0-3.16-.81c-2.3-.26-4.55-1-6.93-.52a4.15,4.15,0,0,1-1.84-.16,24.72,24.72,0,0,0-9.15-.39,3.61,3.61,0,0,0-2.45,1,2.77,2.77,0,0,1-1.67.75A29.36,29.36,0,0,1,4,3.61C2.92,3.42,1.83,3.31.74,3.2.13,3.14-.07,2.84,0,2.26S.59,2,.85,2c2,.2,3.94.38,5.89.67,2.19.33,4.28-.2,6.41-.52.7-.11,1.06-.81,1.72-1.09a16.27,16.27,0,0,1,7.87-1A26.67,26.67,0,0,1,27.82,1a4.64,4.64,0,0,0,2.37,0c1.67-.4,3.27.24,4.87.51,2,.32,4,.65,6,1.07a8.17,8.17,0,0,1,2.36.87,8.18,8.18,0,0,0,4,1A41.74,41.74,0,0,1,60.32,6.59a12,12,0,0,0,8,.08,24.59,24.59,0,0,1,8.36-.81,15.49,15.49,0,0,0,3.26-.34,26.72,26.72,0,0,1,8.18.31c3.23.44,6.44.94,9.65,1.43,4,.62,7.88-.14,11.8-.54,4.76-.49,9.51-1.18,14.32-.74a15.86,15.86,0,0,1,6,1.89c1.15.62,2.33,1.21,3.46,1.87a4.48,4.48,0,0,0,2.5.67c2.45-.08,4.91,0,7.26-.87A16.63,16.63,0,0,1,147.55,9c1-.1,1.67.61,2.39,1.19,2.37,1.94,4.68,4,7.82,4.65a9.22,9.22,0,0,0,3.35.33A2.49,2.49,0,0,1,163.17,15.53Z"/><path class="cls-1" d="M420.3,12c-2.22.13-4.22-.81-6.27-1.4a10.17,10.17,0,0,0-6.82,0c-3,1.19-6.11,2.34-9.12,3.63a2.82,2.82,0,0,1-1.81-.12c-1.31-.33-2.6-.73-3.91-1.07a5.4,5.4,0,0,0-3.44.16,22.25,22.25,0,0,0-4.56,2.12c-2,1.43-4.43,1.12-6.68,1.22a36.29,36.29,0,0,1-8.92-.91,4.92,4.92,0,0,0-3.19.25,14.56,14.56,0,0,1-9.62.94,17.39,17.39,0,0,1-3.78-1.72A9.71,9.71,0,0,0,346.59,14a38.73,38.73,0,0,0-9.67,1.72,2,2,0,0,0-.67.35,6.47,6.47,0,0,1-5.8,1.2c-5.4-1.14-10.94-1.29-16.39-2.16-2.66-.42-5.22.55-7.74,1.22a50.28,50.28,0,0,1-11.05,1.39c-2.57.1-4.94-.92-7.29-1.8a12.36,12.36,0,0,0-5.72-.41c-1.11.11-2.21.31-3.35.48a.56.56,0,0,1,.52-.63,33.05,33.05,0,0,1,8.65-.61,5.27,5.27,0,0,1,2,.5c3.56,1.65,7.26,1.71,11.06,1.17a31.53,31.53,0,0,0,7.34-1.63,13.22,13.22,0,0,1,7.37-.41c2.9.57,5.86.46,8.74,1a61.66,61.66,0,0,0,7.42.7,7.15,7.15,0,0,0,3.93-.72c4-2.06,8.23-2.44,12.58-2.25a12.07,12.07,0,0,1,4.83,1.68,13.57,13.57,0,0,0,12.43.26,4,4,0,0,1,2.45-.23,54.75,54.75,0,0,0,12.65,1A3.73,3.73,0,0,0,383,15a19.36,19.36,0,0,1,7.66-3.09,4.43,4.43,0,0,1,2.15.31,16.2,16.2,0,0,0,3.8,1,11.91,11.91,0,0,0,4.43-1.11c2.33-.84,4.62-1.81,7-2.64a6.78,6.78,0,0,1,4.4.07c3.12.92,6.23,2.26,9.62,2,.16.41.41.44.73.18-.35.57-.69.65-1.8.42C420.78,11.77,420.55,11.77,420.3,12Z"/><path class="cls-1" d="M278.79,15.68c-.47.61-1.19.44-1.78.7a10.28,10.28,0,0,0-3,2.32c-.26.25-.49.63-.8.71-2.77.76-5.53,1.78-8.41.41-1.62-.76-3.3-1.41-4.87-2.24a14.94,14.94,0,0,0-6-1.39c-4.09-.33-8.19,0-12.29-.23a2.92,2.92,0,0,0-1.49.3c-3.22,1.69-6.68,1.33-10.1,1.15a7.19,7.19,0,0,1-3.92-1.18,5.54,5.54,0,0,0-3.65-1c-.72.05-1.46-.06-2.19-.07-2.43-.05-4.85-.5-7.31-.14a12.41,12.41,0,0,1-5-.69,17.65,17.65,0,0,0-7.92,0A75.27,75.27,0,0,0,192,16c-1.86.55-3.62-.14-5.4-.47s-3.55-.8-5.35-1.1a10,10,0,0,1-3.56-1.33c-3.07-1.94-6-1.44-9.06,0-1.28.62-2.51,1.34-3.79,2-.31.16-.78.6-1,.11s.35-.66.69-.84c1.29-.68,2.59-1.35,3.91-2,.72-.35,1.45-.67,2.17-1a6.1,6.1,0,0,1,6.71.68c1.85,1.32,4,1.6,6.15,2.07a20.75,20.75,0,0,0,3.57.42,66,66,0,0,0,11.57-.91c2.81-.36,5.7-1.14,8.48-.52a49.2,49.2,0,0,0,7.9.86c2.45.14,4.89.27,7.34.34a9.92,9.92,0,0,1,4.88,1.44,6.61,6.61,0,0,0,2.64.61c2.35.34,4.69.85,7.08.39.32-.06.68,0,.92-.25a3.87,3.87,0,0,1,3-1.19c5.51-.22,11-.62,16.47.76,2.66.67,5.24,1.58,7.82,2.51,2.87,1,5.79,1.06,8.36-1A9,9,0,0,1,278.79,15.68Z"/></g></g></svg>