<svg xmlns="http://www.w3.org/2000/svg" viewBox="0 0 545.5 881.08"><defs><style>.cls-1{fill:none;}.cls-2{fill:#777;}.cls-3{fill:#fff;}</style></defs><g id="Layer_2" data-name="Layer 2"><g id="Layer_1-2" data-name="Layer 1"><polygon class="cls-1" points="356.19 267.56 356.19 267.56 356.19 267.56 356.19 267.56"/><path class="cls-2" d="M286.32,817.6a208.43,208.43,0,0,1-3.54,20.93c27.61,2,41.08-12.26,41.21-12.41a1.44,1.44,0,0,1,.65-.38c-.14-1.46-.29-2.83-.42-4.13-.4-3.81-.75-7.1-.79-10.38,0-.23,0-.46,0-.69-3.38,2.63-13.05,9.19-25.3,9.19A33.91,33.91,0,0,1,286.32,817.6Z"/><path class="cls-2" d="M288.05,841.73q-2.87,0-6-.24c-.29,1.2-.58,2.41-.89,3.61-2.47,9.36-1.14,17.19,3.74,22.06s13,6.29,22.59,3.75l1.76-.5c1-.3,2-.6,3.06-.82,2.89-.63,5.77-1.28,8.65-1.93,7.15-1.62,14.49-3.29,21.8-4.5l1.37-.23c8.93-1.47,18.16-3,24.83-10.19,3.84-4.14,5.38-8.34,4.34-11.81s-4.52-6-9.86-7.38a61.33,61.33,0,0,0-9-1.3c-1.65-.16-3.33-.32-5-.54-5.93-.82-11.85-1.67-17.32-2.45l-6.16-.88C324.22,830.18,312,841.73,288.05,841.73Z"/><path class="cls-2" d="M220.71,809.22q-.12,4.14-.43,8.33c-.26,3.31-.8,5.62-1.71,7.23,1.66,1.56,16,14.19,43.61,12.26-.61-2.43-1.28-5.33-1.83-8.29-.42-2.32-.92-4.7-1.4-7l0-.13c-.38-1.84-.76-3.7-1.12-5.57a33.92,33.92,0,0,1-12,2.2C233.8,818.25,224.25,811.93,220.71,809.22Z"/><path class="cls-2" d="M207,668.56c-.19,1.63-.39,3.26-.59,4.86-.79,6.19-1.61,12.57-.92,18.65,2.09,18.63,5.47,36.83,9,55.38,3.31,17.22,6.49,37.18,6.27,58.07a1.51,1.51,0,0,1,.46.26c.17.15,17,14.78,36,7.28a64.6,64.6,0,0,1-1.13-16c1.69-21.94,4.63-44.77,9-69.8,2.48-14.23,4.3-27.11,1.46-40.66a155.55,155.55,0,0,1-2.95-19.16c-11.4,8.92-21.61,11.91-30.17,11.91C219.85,679.35,210.41,671.81,207,668.56Z"/><path class="cls-2" d="M240.71,516.83a78.64,78.64,0,0,1-15,1.52c-16.24,0-29.67-5.87-39.5-17.31,1.46,21.29,5.09,43.86,13.42,66.12,5.39,14.39,10.55,29.84,9.25,46.59a165.6,165.6,0,0,0-.12,17.11c.11,3.94.22,8,.14,11.94-.12,5.31-.58,10.69-1,15.89-.17,2-.34,4-.49,5.95,0,.05,0,.09,0,.14a1.48,1.48,0,0,1,.49.38c.89,1,22,25,54.12-.21a1.5,1.5,0,0,1,1.49-.21,87.32,87.32,0,0,1,2.12-26.28c2-7.91,3.49-15,2.45-21.58-1.86-11.75-.58-22.8.77-34.49q.35-2.91.66-5.83c1.25-11.57,1.67-27.2,2.09-42.31.22-8.25.43-16,.76-23.12l0-5.66A116.43,116.43,0,0,1,240.71,516.83Z"/><path class="cls-2" d="M319.19,518.37a68.27,68.27,0,0,1-14.06-1.53,103.22,103.22,0,0,1-29.88-11.68l0,5.7c.26,2.59.52,5.23.8,7.92l.16,1.64c3.18,31.35,6.77,66.89,5.89,94.7a143.72,143.72,0,0,0,1.67,27.41,65.21,65.21,0,0,1,.33,20,1.43,1.43,0,0,1,.76.39c.87.87,21.24,20.71,52.15-.19a1.48,1.48,0,0,1,.92-.25c-.48-5.46-1.19-11-2.22-16.44l-.07-.38c-1.17-6.27-2.38-12.75-1.39-18.82.8-4.93,1.56-9.87,2.32-14.81,3-19.38,6.1-39.41,11.49-58.47a279,279,0,0,0,9.63-54.29C348.29,511.87,335.16,518.37,319.19,518.37Z"/><path class="cls-2" d="M253.7,420.25a67.51,67.51,0,0,1,19.06,22.63c3.15-9.7,10.52-16.87,17.5-22.85l-18.19-20.88Z"/><path class="cls-2" d="M435.87,295.2a18.88,18.88,0,0,0,1.34-13.53,1.51,1.51,0,0,1,.12-1.25A88,88,0,0,1,428,260.34c-3.21-9.5-7.72-18.76-12.07-27.72-.85-1.75-1.69-3.48-2.52-5.21-.61-1.26-1.23-2.51-1.86-3.77a32.5,32.5,0,0,1-11.2,18.16c-8.9,7.2-21.72,9.8-38.11,7.77l.06.06c.53.66,1.09,1.34,1.63,2l10.3,13.09c10.7,13.58,21.77,27.63,32.7,41.66l.7.9c1.4,1.78,2.82,3.61,4.06,5.51C424.11,308.62,432.25,302.69,435.87,295.2Z"/><path class="cls-2" d="M486.47,401.76c7.76-3.82,10.37-13.3,10.4-13.4a1.43,1.43,0,0,1,.08-.22c-10.53-13.72-16.45-29.35-20.44-41.57C468.65,322.52,458,303.68,444.05,289q-1.67-1.75-3.19-3.66a22.49,22.49,0,0,1-2.25,11.13c-3.91,8.15-12.45,14.54-25.38,19a22.65,22.65,0,0,1,1.1,2.34c10.75,27.48,29,49.15,43.65,65a55.24,55.24,0,0,1,11.17,18.32,1.73,1.73,0,0,1,.54.11C476.15,403.87,481.8,404.06,486.47,401.76Z"/><path class="cls-2" d="M353.34,423.07c-20.37-13.33-57-2.5-60.24-1.51-7.07,6-14.77,13.18-17.68,22.87l-.56,3.34.37,53.94a1.38,1.38,0,0,1,.4.17,101.12,101.12,0,0,0,30.19,12c22,4.58,39-1.4,50.45-17.75a1.49,1.49,0,0,1,1.73-.55,306.4,306.4,0,0,0-.76-48.95c-.74-7.79-1.69-15.6-2.76-23.4a1.17,1.17,0,0,1-.32,0A1.43,1.43,0,0,1,353.34,423.07Z"/><path class="cls-2" d="M283.58,665.72c-.24,1.22-.52,2.43-.84,3.65-5.79,21.84-6.41,40.3-2,58.08,3.4,13.55,6.74,28,7.17,42a330.73,330.73,0,0,1-1.27,45c19.05,7.51,35.85-7.12,36-7.27a1.51,1.51,0,0,1,.63-.32l-.06-2.42c-.23-7.09-.46-14.42.62-21.46,1.33-8.75,3.24-17.54,5.08-26,1.66-7.66,3.38-15.58,4.67-23.45,3.38-20.49,6.31-43.92,4.58-68-10.8,7.17-20.48,9.6-28.61,9.6A40.85,40.85,0,0,1,283.58,665.72Z"/><path class="cls-2" d="M216.51,827c-2,1.24-4.9,1.31-9.76.23-1.08-.24-2.16-.49-3.23-.75a59.47,59.47,0,0,0-12.67-2.05h-.24a10.76,10.76,0,0,0-8.29,3.25c-2.1,2.35-3,5.75-2.48,9.84a20.67,20.67,0,0,0,12,16.85c19.19,9,35.31,16.08,50.72,22.25a20,20,0,0,0,7.43,1.49,18,18,0,0,0,12.62-5.28c6.08-5.87,5.23-13.47,3.59-20.13-.64-2.62-1.35-5.29-2-7.86l0-.13c-.42-1.55-.83-3.11-1.24-4.68-2.26.17-4.45.26-6.55.26C231.42,840.26,218.52,828.9,216.51,827Z"/><path class="cls-2" d="M487.79,404.45a18.71,18.71,0,0,1-8.38,1.91,26.91,26.91,0,0,1-9.12-1.74c.21.78.41,1.56.57,2.33.6,2.77,1.09,5.34,1.57,7.81,2.86,14.71,4.74,24.43,18.46,35.23.92.72,10,8.81,10.79,9.69,18.52,19.88,22.14,20.07,22.8,19.66,0,0,.18-.11.24-.45l.16-.91c-5.57-8.65-13.33-20.26-14.65-21.32a1.5,1.5,0,0,1,1.87-2.34c2.27,1.81,13.87,19.79,16.17,23.37a1.54,1.54,0,0,1,.1,1.44,8.33,8.33,0,0,0,2.22,1.66,3.54,3.54,0,0,0,2.36-.35c.28-.23.32-.57.36-1.11,0-.11,0-.26,0-.38l0-.23a1.58,1.58,0,0,1-.46-.56c-5.8-12.66-13.45-26.88-15.7-27.78a1.52,1.52,0,0,1-.86-1.94,1.5,1.5,0,0,1,1.91-.87c4.4,1.65,14.41,22.88,17.38,29.34a1.43,1.43,0,0,1,.13.59c1-.13,1.54-.29,1.88-.82.63-1,.34-3.49-.86-7.34l-12.11-22.59a1.5,1.5,0,0,1,2.65-1.42l11.79,22A1.28,1.28,0,0,0,540,467c.75-.74,1.38-3.46-2.8-13.34-2.33-5.5-4.92-10.88-7.65-16.58L524.72,427l5.58,5a25.87,25.87,0,0,0,6.46,4.7,6.67,6.67,0,0,0,3.56.26l.44-.08.18.07a4,4,0,0,0,1.45-1.89c.51-1.62-.75-3.17-1.9-4.18A67.45,67.45,0,0,1,533.4,423a68.71,68.71,0,0,0-7.48-8.21c-3.25-2.83-5.93-5.57-8.53-8.23a103.89,103.89,0,0,0-11.15-10.3c-.78-.6-1.61-1.19-2.42-1.76a34.19,34.19,0,0,1-4.62-3.67C498,394.07,494.7,401.05,487.79,404.45Z"/><path class="cls-2" d="M294.2,139.32c11.79.5,16.38-1,27-4.58-2.17-1.22-4.4-2.52-6.7-3.94-11-6.79-13.16-17-12.59-30.2-8.33,10.49-17.67,15.93-27.79,16.14h-.62c-.37,0-.74,0-1.11,0a1.53,1.53,0,0,1-.3,0,1.59,1.59,0,0,1-.39-.06c-13.43-.81-24.17-10.39-28.34-14.68-.19,8.41-1.85,17.29-10,22.78-5.2,3.5-10.48,7-16,10.14a58.76,58.76,0,0,0,22.17,3.76C252.55,138.4,279.66,138.71,294.2,139.32Z"/><path class="cls-2" d="M186.09,496.14c27.82,37.59,81.32,8.64,86.14,5.92l-.37-54a63.68,63.68,0,0,0-20.93-26.15l-.32-.24a1.38,1.38,0,0,1-.27-.27c-4.48-2-37.38-15.43-63.06,7.45a1.47,1.47,0,0,1-.73.33c-.73,12.63-1.16,25.14-1.25,37.33-.08,9.34,0,19.2.57,29.38A1.7,1.7,0,0,1,186.09,496.14Z"/><path class="cls-2" d="M55.94,387.82A60,60,0,0,1,43.38,398.9a54,54,0,0,0-13.8,12.48c-2,2.44-4.33,5.19-8.1,9-8.77,8.87-18,19.46-18.4,21.84-.08.54-.4,3.28,1.1,4.19,1.24.76,3.5.12,6.61-1.81l.3-.14c1.48-.51,3.94-2.91,6.16-5.19l6.89-7.1L19.66,441c-.22.43-.47.94-.68,1.47l-.54,1.32c-1.93,4.75-3.92,9.67-6.18,14.12-4.81,9.47-4.45,12.13-3.8,12.87s2.24.34,3.74-.17l16.72-29.08a1.5,1.5,0,1,1,2.6,1.49L13.69,474a1.54,1.54,0,0,1-.28.34c-1.77,4.59-1.06,5.43-.77,5.57.54.27,2.43-.27,5.48-2.79L37.5,449.06A1.5,1.5,0,0,1,40,450.77l-19.31,28c-.76,5,.13,6.1.55,6.33s1.89.22,5.32-3.09l.54-.52a1.57,1.57,0,0,1,.23-.49L46,455.4a1.5,1.5,0,1,1,2.42,1.77L29.72,482.72a1.41,1.41,0,0,1-.66.5l0,.12c-.22,1.08.08,1.29.18,1.36,2,1.37,13.65-6.7,15.47-8.94s3.84-4.62,5.79-6.92c10.06-11.94,20.47-24.29,25.3-40a199.48,199.48,0,0,1,8.41-22.43c-.69,0-1.38.07-2,.07C64.57,406.47,57.93,393.27,55.94,387.82Z"/><path class="cls-2" d="M187.29,247.22c20.14.95,47.37-14.42,66.16-29.16a31.72,31.72,0,0,1,17.12-6.71V141.72c-11.61-.17-23.59-.2-31,0a62,62,0,0,1-25.69-4.91c-7.71,4-16,6.95-25.19,7.64a30.89,30.89,0,0,0-23.31,12.75l-.66.92c-6.12,8.52-12.44,17.33-15.39,27-1.68,5.49-3.27,11.11-4.81,16.55-1.13,4-2.27,8-3.46,12a1.62,1.62,0,0,1,.21.36C141.37,214.35,153.16,245.56,187.29,247.22Z"/><path class="cls-2" d="M322.63,137.41c-9.69,3.29-14.75,5-24.37,5-1.31,0-2.69,0-4.18-.09-5.52-.23-12.84-.42-20.51-.55v69.49a32,32,0,0,1,17.73,5.64c16.35,11.23,41.65,25.44,69.35,29.45,16.46,2.37,29.17.07,37.76-6.85a29.83,29.83,0,0,0,10.64-19.2,1.47,1.47,0,0,1,.34-.85c-1.06-2.06-2.13-4.1-3.18-6.1-3.11-5.92-6.32-12-9.12-18.22a83.37,83.37,0,0,1-3.75-10.89,74.64,74.64,0,0,0-4.2-11.81c-7-14.21-19.5-22.67-39.39-26.63a91.88,91.88,0,0,1-25-9.13l-.1.05Z"/><path class="cls-2" d="M274.05,113.74c9.49-.2,18.32-5.58,26.26-16a1.51,1.51,0,0,1,2-.36A5.29,5.29,0,0,1,304.6,95C314,90.83,316.45,82.11,318,74.26c1.15-5.68,1.36-12.63-7.2-16.08l-1.17-.47.26-1.23c4.73-22.34-2.14-38.6-20.42-48.34A42.33,42.33,0,0,0,273.57,3.2V113.75Z"/><path class="cls-2" d="M243.78,98.05c.13.15,11.74,13.88,26.79,15.53V3c-8.71-.14-17.3,2.75-25.58,8.57-14,9.89-18.55,24.11-13.77,43.49l.31,1.26-1.19.49c-8.31,3.42-9.87,6.89-7,15.48A45.54,45.54,0,0,0,241,96.15a6.82,6.82,0,0,1,1.46,1.38A1.47,1.47,0,0,1,243.78,98.05Z"/><path class="cls-2" d="M359.67,250.18l.26-.91c-28.16-4.14-53.78-18.53-70.33-29.89a29,29,0,0,0-16-5.12v97.08c19.49,37.58,67.34,37,67.83,37a1.5,1.5,0,1,1,.06,3h-.28c-3.89,0-46.78-.79-67.61-33.93V396.3l19.32,22.18c6.24-1.87,40.27-11.2,61.12,1.5-1.65-11.65-3.55-23.25-5.42-34.62-2.14-13.05-4.36-26.54-6.16-39.89-1.15-8.56-2.4-21.27.08-32.68,3.32-15.3,7.83-30.67,12.2-45.53l1.48.3h0l-1.44-.42C356.37,261.6,358.06,255.87,359.67,250.18Z"/><path class="cls-2" d="M99.49,299.31c-5.46,8.61-10.9,17.4-15.67,26.4-7.07,13.35-12.12,27.53-17.53,43.35A58.39,58.39,0,0,1,58.17,385c.43,1.79,5.37,20,26.61,18.39a1.49,1.49,0,0,1,.73.13,192.33,192.33,0,0,1,23.41-38.08c2.81-3.57,5.79-7.14,8.68-10.59,7.39-8.84,15-18,20.53-28C133.25,326.39,104.6,322.84,99.49,299.31Z"/><path class="cls-2" d="M251.23,418.52l19.34-22.22V315.81c-8.22,9.21-33.33,33.57-70,34.8A140.34,140.34,0,0,1,192.37,392a86.49,86.49,0,0,0-4.91,23.46c-.25,3.3-.46,6.59-.67,9.88C213,403.56,245.33,416,251.23,418.52Z"/><path class="cls-2" d="M270.57,311.19V214.36a28.83,28.83,0,0,0-15.27,6.06c-9,7.05-39.5,29.39-65.32,29.83l0,.14c1,5.69,2,11.43,3.06,17,2.48,13.3,5,27,6.24,40.69a307.52,307.52,0,0,1,1.44,39.54C240.86,346.13,266.69,316,270.57,311.19Z"/><path class="cls-2" d="M139.75,218a209.29,209.29,0,0,1-12.07,31.67c-1.05,2.14-2.08,4.29-3.11,6.44-2.91,6.05-5.91,12.31-9.39,18.15-3.92,6.59-8.12,13.16-12.17,19.52l-1.13,1.77c0,.05,0,.11,0,.17,3,26.15,36.74,28.13,37.08,28.15a1.53,1.53,0,0,1,.64.18,591,591,0,0,1,43.68-70c.83-1.14,1.68-2.27,2.53-3.39l.38-.5C157.16,248.28,143.71,226.12,139.75,218Z"/><path class="cls-3" d="M540.52,439.94a2.54,2.54,0,0,0,.73,0c1.3-.15,3.34-2,4-4.05.45-1.43.69-4.28-2.78-7.34a64.82,64.82,0,0,1-6.76-7.49,71.52,71.52,0,0,0-7.82-8.56c-3.16-2.75-5.8-5.45-8.36-8.07a107,107,0,0,0-11.45-10.57c-.83-.65-1.7-1.26-2.55-1.86a24.05,24.05,0,0,1-5-4.22c-11-13.7-17.08-29.74-21.14-42.18-8-24.48-18.84-43.7-33.13-58.74-6.55-6.89-11.3-15.38-15.4-27.52-3.28-9.68-7.83-19-12.23-28.09-.84-1.73-1.68-3.45-2.51-5.18-2.3-4.79-4.8-9.55-7.23-14.16-3.08-5.87-6.27-11.95-9-18.06a81.66,81.66,0,0,1-3.6-10.5,76.62,76.62,0,0,0-4.39-12.28C384.4,156,371.22,147,350.34,142.86c-10.82-2.15-21.39-6.66-34.28-14.62-10.32-6.37-11.89-16.44-11.08-29.5a2.52,2.52,0,0,1,.84-1C316.5,93,319.24,83.43,321,74.85c.71-3.5,2.81-13.91-7.87-18.95,4.54-23.19-2.92-40.14-22.19-50.4A45,45,0,0,0,273.07.13a2.36,2.36,0,0,0-1.34-.06C262-.35,252.42,2.71,243.27,9.16,228.4,19.63,223.4,34.49,228,54.58c-8.82,4-10.78,9-7.51,18.71a48.48,48.48,0,0,0,18.77,25.34,3.76,3.76,0,0,1,1.09,1.17c0,8.23-1,17.31-8.72,22.5-13.1,8.8-26.63,17.89-43.19,19.12a33.9,33.9,0,0,0-25.53,14l-.66.92c-6.26,8.72-12.73,17.74-15.82,27.85-1.69,5.53-3.28,11.16-4.84,16.65-4.5,15.92-9.16,32.39-16.62,47.52-1.06,2.14-2.09,4.3-3.13,6.47-2.87,6-5.84,12.18-9.25,17.9-3.9,6.55-8.09,13.11-12.17,19.51-6.6,10.34-13.42,21-19.27,32.06C74,337.85,68.9,352.15,63.45,368.09a54.92,54.92,0,0,1-8.51,16.2l-.1.13a56.38,56.38,0,0,1-13.14,12c-8.13,5.47-10.77,8.65-14.43,13.05-2,2.38-4.24,5.08-7.92,8.79C15,422.66.76,437.35.11,441.78-.07,443-.41,447.12,2.62,449c2.27,1.38,5.38.87,9.62-1.73a9.46,9.46,0,0,0,2-1.15c-1.47,3.58-3,7.17-4.68,10.45-5.66,11.16-5,14.38-3.38,16.21a4.54,4.54,0,0,0,4.08,1.4c-1.3,3.66-1.75,7.08,1,8.47,1.53.75,3.56.35,6.06-1.22-.1,2.7.38,5.23,2.47,6.32s4.51,0,6.63-1.68a3.48,3.48,0,0,0,1.07,1.14c5,3.43,18.84-8.72,19.49-9.51,1.89-2.31,3.82-4.6,5.75-6.89C63,458.6,73.63,446,78.65,429.72a191.38,191.38,0,0,1,32.62-62.45c2.79-3.54,5.76-7.09,8.64-10.53,7.73-9.26,15.74-18.84,21.46-29.55a588.93,588.93,0,0,1,44.37-71.38c.58-.78,1.16-1.57,1.75-2.35.84,4.86,1.75,9.73,2.63,14.46,2.46,13.22,5,26.9,6.2,40.41,2.22,25.24,3.72,54.52-6.76,82.6a89.34,89.34,0,0,0-5.09,24.28c-1.31,17.36-2,34.61-2.17,51.29-.24,30.5,1.29,66.44,14.5,101.71,5.28,14.08,10.32,29.17,9.07,45.31a167,167,0,0,0-.12,17.47c.1,3.86.21,7.85.13,11.74-.12,5.22-.58,10.55-1,15.7-.17,2-.34,4-.5,6-.21,2.85-.59,5.79-1,8.65-.81,6.35-1.65,12.91-.92,19.35,2.1,18.74,5.49,37,9.07,55.6,3.91,20.32,7.65,44.44,5.72,69.31-.29,3.84-1,6.13-2.15,7s-3.66.88-7.73,0c-1.06-.23-2.13-.48-3.19-.74a61.29,61.29,0,0,0-13.32-2.13c-4.5,0-8.24,1.41-10.8,4.25-2.7,3-3.82,7.22-3.23,12.19a23.56,23.56,0,0,0,13.74,19.21c19.24,9,35.41,16.14,50.87,22.32a22.87,22.87,0,0,0,8.55,1.71A20.91,20.91,0,0,0,264.73,875c7.16-6.92,6.25-15.5,4.42-23-.66-2.66-1.37-5.34-2.06-7.93l0-.13-1.16-4.4a1.94,1.94,0,0,0,0-.59,2.5,2.5,0,0,0-.51-1.32c-.67-2.62-1.48-6-2.11-9.38-.43-2.35-.93-4.75-1.41-7.07l0-.13c-.41-2-.82-4-1.21-6a2.37,2.37,0,0,0-.17-.91,66,66,0,0,1-1.37-16.83c1.68-21.84,4.61-44.58,9-69.51,2.54-14.55,4.4-27.73,1.44-41.79-2.69-12.84-5.25-29.76-1-46.81,2-8.23,3.63-15.63,2.5-22.77-1.79-11.35-.53-22.19.79-33.68.23-2,.46-3.9.67-5.85,1.25-11.69,1.68-27.38,2.1-42.6,0-.27,0-.54,0-.81,2.76,27.85,5.35,57.63,4.59,81.56a147.13,147.13,0,0,0,1.71,28,59.67,59.67,0,0,1-1,25.6c-5.92,22.35-6.55,41.28-2,59.58,3.36,13.39,6.66,27.62,7.09,41.41.62,20.65.43,47.8-6.66,74.75-2.75,10.43-1.15,19.29,4.52,24.94s14.81,7.36,25.48,4.52c.61-.16,1.22-.34,1.87-.53.94-.27,1.9-.55,2.82-.75,2.9-.63,5.79-1.28,8.71-1.95,7.07-1.6,14.37-3.25,21.59-4.45l1.37-.23c9.43-1.55,19.17-3.15,26.54-11.11,4.59-4.95,6.37-10.18,5-14.71s-5.61-7.83-12-9.43a63.75,63.75,0,0,0-9.51-1.38c-1.59-.15-3.24-.31-4.82-.52-5.91-.82-11.83-1.67-17.29-2.45l-4.94-.71c-.15-1.51-.3-2.93-.44-4.29-.39-3.74-.73-7-.77-10.11l0-1.42v-.41a2.53,2.53,0,0,0,0-.87q0-2-.12-4.05c-.22-7-.44-14.15.59-20.92,1.32-8.65,3.22-17.4,5.05-25.87,1.67-7.69,3.39-15.64,4.7-23.59,4.32-26.24,8-57.29,2.11-88.6l-.07-.39c-1.12-6-2.29-12.23-1.38-17.78.8-4.93,1.56-9.88,2.33-14.83,3-19.29,6.07-39.23,11.41-58.11,9.67-34.2,12.78-70.52,9.24-108-2-20.64-5.37-41.42-8.68-61.51-2.14-13-4.35-26.5-6.14-39.81-1.13-8.34-2.35-20.69,0-31.64,3.29-15.2,7.8-30.51,12.15-45.32l0-.12c1.37-4.65,2.77-9.42,4.14-14.21l10.1,12.82c10.69,13.58,21.76,27.63,32.68,41.65l.71.91c2.43,3.11,4.95,6.32,6.28,9.72,10.94,27.95,29.4,49.91,44.25,65.91a50.68,50.68,0,0,1,12.15,22.78c.59,2.75,1.08,5.3,1.56,7.77,3,15.37,4.95,25.52,19.54,37,.74.59,9.73,8.6,10.46,9.39,21.63,23.22,24.6,21.38,26.57,20.16a3.64,3.64,0,0,0,.49-.36c2.08,1.84,3,2.18,3.7,2.24,2.12.18,3.6-.15,4.65-1a3.88,3.88,0,0,0,1.29-2.24,5.16,5.16,0,0,0,4-2.2c1.06-1.69,1.07-4.09,0-8.08a4.13,4.13,0,0,0,1.92-1.08c2.42-2.39,1.78-7.37-2.15-16.64-2-4.74-4.19-9.37-6.49-14.18a16.23,16.23,0,0,0,2.1,1.12A9.58,9.58,0,0,0,540.52,439.94Zm-9.63-3.52c2.75,5.72,5.34,11.12,7.68,16.65,3.55,8.38,4.34,13.14,2.48,15a2.73,2.73,0,0,1-1.36.7,1.5,1.5,0,0,1-.79,1.33,1.36,1.36,0,0,1-.28.11c1,3.71,1.13,6,.31,7.28s-2.16,1.42-3.36,1.56l-.74.1c0,.09,0,.21,0,.3a2.84,2.84,0,0,1-.88,2.14c-.73.62-1.86.84-3.56.69-.66,0-1.91-1-3.28-2.28l-.08,0a1.48,1.48,0,0,1-1-.36,1.89,1.89,0,0,1-.78,1c-1.16.72-3.89,2.41-24.68-19.92-.76-.81-9.77-8.86-10.63-9.53-14.15-11.14-16.08-21.08-19-36.12-.48-2.48-1-5-1.56-7.79-.24-1.09-.53-2.2-.86-3.31a1.49,1.49,0,0,1-.81-2,1.62,1.62,0,0,1,.1-.18,53.74,53.74,0,0,0-10.95-18c-14.76-15.91-33.1-37.72-43.95-65.43a23.23,23.23,0,0,0-1.27-2.67,1.48,1.48,0,0,1-1-.94,1.51,1.51,0,0,1,0-.73c-1.28-2-2.76-3.9-4.23-5.77l-.7-.9c-10.85-13.92-22-28-32.69-41.66l-10.31-13.08c-.54-.69-1.09-1.36-1.61-2-1.62,5.71-3.3,11.43-4.93,17h0l0,.08c-4.36,14.85-8.88,30.21-12.19,45.47-2.42,11.18-1.19,23.71-.05,32.16,1.79,13.31,4,26.8,6.15,39.85,3.3,20.08,6.71,40.84,8.66,61.41,3.53,37.25.44,73.38-9.18,107.4-5.37,19-8.46,39-11.45,58.29-.77,4.95-1.53,9.89-2.33,14.82-.95,5.81.24,12.16,1.38,18.3l.08.38c5.8,31.08,2.18,62-2.12,88.09-1.3,7.89-3,15.83-4.68,23.52-1.84,8.48-3.74,17.26-5.07,25.95-1.06,6.9-.83,14.17-.61,21.19,0,1,.06,2,.09,3a1.49,1.49,0,0,1,.05,1.81c0,.65,0,1.31,0,2,0,3.21.38,6.47.78,10.25.15,1.46.32,3,.47,4.67a1.48,1.48,0,0,1,.38.81l5.39.77c5.58.8,11.65,1.68,17.72,2.51,1.62.23,3.29.38,4.91.54a61.15,61.15,0,0,1,9.26,1.34c5.87,1.46,9.76,4.45,10.94,8.4s-.47,8.71-4.68,13.26c-7,7.59-16.51,9.14-25.68,10.65l-1.38.23c-7.27,1.21-14.61,2.87-21.7,4.48q-4.33,1-8.67,1.94c-1,.21-2,.5-3,.79l-1.8.51c-10.13,2.69-18.66,1.22-24-4.14s-6.74-13.6-4.14-23.5c.32-1.2.61-2.4.9-3.6a1.47,1.47,0,0,1-.56-1.29,1.5,1.5,0,0,1,1.17-1.34,205.69,205.69,0,0,0,3.64-21.61,1.5,1.5,0,0,1-.28-1.55,1.49,1.49,0,0,1,.55-.68,328.89,328.89,0,0,0,1.29-45.11c-.42-13.93-3.75-28.25-7.12-41.73-4.52-18-3.9-36.73,2-58.83.44-1.64.78-3.29,1.07-4.93a1.53,1.53,0,0,1,.13-.76,62.92,62.92,0,0,0-.16-20.52,145.94,145.94,0,0,1-1.69-27.69c.88-27.72-2.71-63.2-5.88-94.51q-.36-3.6-.72-7.08l-.24,0h-.11c-.28,6.5-.47,13.53-.66,20.78-.42,15.14-.84,30.8-2.1,42.44q-.31,2.92-.66,5.84c-1.34,11.59-2.6,22.53-.78,34.09,1.09,6.86-.48,14.1-2.47,22.17-4.29,17.35-1.7,34.48,1,47.48,2.9,13.8,1.05,26.83-1.45,41.22-4.36,25-7.3,47.77-9,69.65a64.69,64.69,0,0,0,1.18,16,1.45,1.45,0,0,1,.53.66,1.51,1.51,0,0,1-.15,1.4c.39,2,.8,4.06,1.22,6.06.49,2.36,1,4.79,1.44,7.17.53,2.88,1.19,5.76,1.91,8.62a1.49,1.49,0,0,1,.95,1.26,1.47,1.47,0,0,1-.32,1,.32.32,0,0,1,0,.09c.42,1.61.84,3.22,1.26,4.8.71,2.63,1.43,5.34,2.09,8,1.73,7.07,2.62,15.16-4,21.56a19.48,19.48,0,0,1-13.67,5.7,21.52,21.52,0,0,1-8-1.6c-15.44-6.18-31.58-13.26-50.8-22.29a22.1,22.1,0,0,1-12.88-18c-.53-4.53.45-8.33,2.86-11,2.25-2.5,5.57-3.81,9.66-3.75a60.38,60.38,0,0,1,13,2.09l3.21.75c4.48,1,7.12,1,8.76-.11a1.5,1.5,0,0,1,.45-1,1.41,1.41,0,0,1,.89-.39c.85-1.41,1.36-3.58,1.61-6.77s.4-6.28.47-9.4h0a1.5,1.5,0,0,1-.12-2.11,1.67,1.67,0,0,1,.16-.12c.25-20.87-2.93-40.83-6.25-58.06-3.57-18.58-6.95-36.81-9.05-55.49-.71-6.26.12-12.73.92-19,.25-2,.51-4,.72-6.07l-.08-.08a1.51,1.51,0,0,1,.17-2.12l.12-.07,0-.38q.22-3,.5-6c.44-5.18.9-10.54,1-15.79.08-3.94,0-8-.14-11.87a166,166,0,0,1,.13-17.27c1.27-16.44-3.83-31.71-9.16-45.94-8.68-23.16-12.28-46.64-13.66-68.66-.29-.37-.59-.73-.87-1.11a1.5,1.5,0,0,1,.31-2.1,1.78,1.78,0,0,1,.36-.19c-.53-10.09-.63-19.86-.55-29.12.1-12.39.53-25.09,1.28-37.92a1.46,1.46,0,0,1,.12-1.85q.35-5.7.76-11.41a88.59,88.59,0,0,1,5-23.87,139,139,0,0,0,8.15-41.15,1.49,1.49,0,0,1,.12-2.43c.6-13.8-.32-27.23-1.42-39.68-1.19-13.58-3.75-27.29-6.21-40.55-1-5.57-2.11-11.32-3.07-17l-.68-.17-.8,1.07c-.84,1.12-1.69,2.24-2.52,3.38A591,591,0,0,0,140,326.48c-5.65,10.58-13.6,20.1-21.29,29.31-2.88,3.44-5.86,7-8.66,10.55a191.31,191.31,0,0,0-23.77,39,1.11,1.11,0,0,1-.12.27,197.38,197.38,0,0,0-9,23.68c-4.93,16-15.44,28.47-25.6,40.52-1.93,2.3-3.87,4.6-5.76,6.91-1.25,1.53-13.95,11.64-17.48,9.22a2.58,2.58,0,0,1-.81-2.89c-2.58,2.5-5.16,4.31-7,3.34-1.46-.77-1.95-2.91-1.5-6.75a1.47,1.47,0,0,1-.65-.24,1.52,1.52,0,0,1-.32-.3C16,480.65,13.49,482,12,481.26s-1.63-2.82-.25-6.67l-.08,0a1.51,1.51,0,0,1-.55-2.05l0-.05c-1.39.33-2.85.37-3.79-.71-1.12-1.28-1.72-4.09,3.59-14.54,2.23-4.38,4.21-9.28,6.13-14l.54-1.31c.22-.54.47-1.06.74-1.59-2.68,2.76-5,5-6.75,5.57-2.51,1.55-4.56,2.34-6.17,2.34a3.77,3.77,0,0,1-2-.53C1.16,446.32,1.45,443,1.59,442c.63-4.3,18.64-22.5,18.83-22.68,3.72-3.76,6-6.49,8-8.9,3.58-4.3,6.17-7.4,14.12-12.76a58.21,58.21,0,0,0,12.84-11.53c-.11-.38-.16-.61-.17-.63a1.5,1.5,0,0,1,1.14-1.79,1.59,1.59,0,0,1,.84.06,57.08,57.08,0,0,0,7.68-15.2c5.43-15.88,10.5-30.12,17.62-43.56,5.06-9.54,10.86-18.84,16.61-27.88,0-.36-.12-.7-.16-1.06a1.49,1.49,0,0,1,1.32-1.66,1.45,1.45,0,0,1,.55,0c.3-.47.59-.94.89-1.4,4.07-6.37,8.27-13,12.19-19.55,3.45-5.79,6.44-12,9.33-18,1-2.15,2.06-4.31,3.12-6.45,5.23-10.6,9.08-21.83,12.46-33.06-.23-.55-.35-.87-.36-.9a1.49,1.49,0,0,1,.89-1.92,1.4,1.4,0,0,1,.34-.08c1.16-3.95,2.28-7.9,3.39-11.82,1.54-5.45,3.14-11.09,4.82-16.61,3-9.88,9.43-18.79,15.61-27.42l.66-.91a32.37,32.37,0,0,1,24.42-13.38c8.81-.65,16.74-3.46,24.19-7.25a1.45,1.45,0,0,1,.07-1,1.49,1.49,0,0,1,2-.79l.72.29c5.86-3.22,11.46-7,17-10.67,8.1-5.44,9.35-14.66,9.37-23.12-.2-.23-.34-.39-.38-.45a1.5,1.5,0,0,1-.23-1.53,5.31,5.31,0,0,0-1.12-1,47,47,0,0,1-18.2-24.58c-3.12-9.3-1.23-13.61,7.84-17.35-5-20-.24-34.8,14.36-45.08,8.58-6,17.52-9,26.47-8.84A1.51,1.51,0,0,1,272.07.36a1.49,1.49,0,0,1,1.48,1.33,43.58,43.58,0,0,1,16.67,5.13c18.93,10.09,26.06,26.9,21.18,50,9.68,3.89,9.28,12,8.11,17.76-1.66,8.22-4.28,17.36-14.3,21.83a3.56,3.56,0,0,0-1.72,2.17c-.85,13.7.83,24.21,11.78,31,2.7,1.67,5.31,3.18,7.83,4.56l.61-.2a1.49,1.49,0,0,1,1.9.94,1.38,1.38,0,0,1,.07.63A90.11,90.11,0,0,0,350,144.33c20.39,4.06,33.24,12.77,40.44,27.44a74.9,74.9,0,0,1,4.3,12,81.23,81.23,0,0,0,3.68,10.69c2.78,6.15,6,12.24,9.08,18.14,1.08,2.07,2.19,4.17,3.28,6.29a1.5,1.5,0,0,1,1.22,1.57c0,.06,0,.3-.07.68.94,1.85,1.87,3.71,2.77,5.57s1.67,3.46,2.51,5.19c4.38,9,8.91,18.31,12.15,27.91a86.3,86.3,0,0,0,9.23,19.81,1.49,1.49,0,0,1,1.4,1,13,13,0,0,1,.45,1.72,57,57,0,0,0,4.66,5.57c14.14,14.88,24.86,33.91,32.79,58.17,4,12.12,9.83,27.61,20.24,41.16a1.64,1.64,0,0,1,.54,0,1.5,1.5,0,0,1,1.06,1.84l0,.07a28.08,28.08,0,0,0,4.91,4.06c.83.58,1.69,1.19,2.5,1.81a107,107,0,0,1,11.3,10.44c2.58,2.63,5.24,5.36,8.45,8.15a69,69,0,0,1,7.64,8.39,66.41,66.41,0,0,0,6.93,7.66c2.69,2.37,2.76,4.44,2.34,5.76a4.9,4.9,0,0,1-2.74,3,1,1,0,0,1-.48-.08,8.16,8.16,0,0,1-4.44-.35,27.17,27.17,0,0,1-6.86-5Q530.11,434.77,530.89,436.42Z"/><path class="cls-3" d="M8.46,470.76c-.65-.74-1-3.4,3.8-12.87,2.26-4.45,4.25-9.37,6.18-14.12l.54-1.32c.21-.53.46-1,.68-1.47l4.48-8.82-6.89,7.1c-2.22,2.28-4.68,4.68-6.16,5.19l-.3.14c-3.11,1.93-5.37,2.57-6.61,1.81-1.5-.91-1.18-3.65-1.1-4.19.35-2.38,9.63-13,18.4-21.84,3.77-3.8,6.07-6.55,8.1-9a54,54,0,0,1,13.8-12.48,60,60,0,0,0,12.56-11.08c-.26-.71-.45-1.29-.56-1.69a58.21,58.21,0,0,1-12.84,11.53C34.59,403,32,406.12,28.42,410.42c-2,2.41-4.28,5.14-8,8.9-.19.18-18.2,18.38-18.83,22.68-.14,1-.43,4.32,1.81,5.68a3.77,3.77,0,0,0,2,.53c1.61,0,3.66-.79,6.17-2.34,1.73-.6,4.07-2.81,6.75-5.57-.27.53-.52,1.05-.74,1.59l-.54,1.31c-1.92,4.73-3.9,9.63-6.13,14-5.31,10.45-4.71,13.26-3.59,14.54.94,1.08,2.4,1,3.79.71l1.08-1.87C10.7,471.1,9.1,471.5,8.46,470.76Z"/><path class="cls-3" d="M101.88,295.56l1.13-1.77c4-6.36,8.25-12.93,12.17-19.52,3.48-5.84,6.48-12.1,9.39-18.15,1-2.15,2.06-4.3,3.11-6.44A209.29,209.29,0,0,0,139.75,218c-.41-.84-.73-1.55-.95-2-3.38,11.23-7.23,22.46-12.46,33.06-1.06,2.14-2.09,4.3-3.12,6.45-2.89,6-5.88,12.24-9.33,18-3.92,6.59-8.12,13.18-12.19,19.55-.3.46-.59.93-.89,1.4A1.49,1.49,0,0,1,101.88,295.56Z"/><path class="cls-3" d="M18,477.31l.13-.18c-3.05,2.52-4.94,3.06-5.48,2.79-.29-.14-1-1,.77-5.57a1.5,1.5,0,0,1-1,.41,1.48,1.48,0,0,1-.67-.17c-1.38,3.85-1.28,5.91.25,6.67s4-.61,6.08-2.17A1.52,1.52,0,0,1,18,477.31Z"/><path class="cls-3" d="M185.87,495.9c-.55-10.18-.65-20-.57-29.38.09-12.19.52-24.7,1.25-37.33a1.28,1.28,0,0,1-.27.05,1.49,1.49,0,0,1-1.12-.51s0-.1-.08-.14c-.75,12.83-1.18,25.53-1.28,37.92-.08,9.26,0,19,.55,29.12A1.53,1.53,0,0,1,185.87,495.9Z"/><path class="cls-3" d="M186.79,425.32c.21-3.29.42-6.58.67-9.88A86.49,86.49,0,0,1,192.37,392a140.34,140.34,0,0,0,8.23-41.37l-.52,0a1.41,1.41,0,0,1-1-.33A139,139,0,0,1,191,391.46a88.59,88.59,0,0,0-5,23.87q-.42,5.71-.76,11.41a.54.54,0,0,1,.09-.12C185.79,426.17,186.29,425.74,186.79,425.32Z"/><path class="cls-3" d="M200.75,347.6a307.52,307.52,0,0,0-1.44-39.54c-1.21-13.65-3.76-27.39-6.24-40.69-1-5.55-2.1-11.29-3.06-17l0-.14-.76,0c-.69,0-1.39,0-2.08-.05l-.91-.07-.38.5c-.85,1.12-1.7,2.25-2.53,3.39a591,591,0,0,0-43.68,70,1.5,1.5,0,0,1-.71,2.81h-.08l-.72-.05c-5.54,10-13.14,19.16-20.53,28-2.89,3.45-5.87,7-8.68,10.59a192.33,192.33,0,0,0-23.41,38.08,1.48,1.48,0,0,1,.88,1.25,1.43,1.43,0,0,1-.07.59,191.31,191.31,0,0,1,23.77-39c2.8-3.55,5.78-7.11,8.66-10.55,7.69-9.21,15.64-18.73,21.29-29.31a591,591,0,0,1,44.49-71.55c.83-1.14,1.68-2.26,2.52-3.38l.8-1.07.68.17c1,5.68,2,11.43,3.07,17,2.46,13.26,5,27,6.21,40.55,1.1,12.45,2,25.88,1.42,39.68a1.59,1.59,0,0,1,.77-.24Z"/><path class="cls-3" d="M85,406.35l-.82,0a199.48,199.48,0,0,0-8.41,22.43c-4.83,15.72-15.24,28.07-25.3,40q-2.92,3.45-5.79,6.92c-1.82,2.24-13.46,10.31-15.47,8.94-.1-.07-.4-.28-.18-1.36l0-.12a1.46,1.46,0,0,1-.55.11,1.43,1.43,0,0,1-.88-.29,1.48,1.48,0,0,1-.56-1.6l-.54.52c-3.43,3.31-4.8,3.35-5.32,3.09s-1.31-1.3-.55-6.33l-.2.29a1.51,1.51,0,0,1-1.24.65l-.2,0c-.45,3.84,0,6,1.5,6.75,1.89,1,4.47-.84,7.05-3.34a2.58,2.58,0,0,0,.81,2.89c3.53,2.42,16.23-7.69,17.48-9.22,1.89-2.31,3.83-4.61,5.76-6.91,10.16-12.05,20.67-24.52,25.6-40.52a197.38,197.38,0,0,1,9-23.68A1.49,1.49,0,0,1,85,406.35Z"/><path class="cls-3" d="M58.14,384.85l0,.12a58.39,58.39,0,0,0,8.12-15.91c5.41-15.82,10.46-30,17.53-43.35,4.77-9,10.21-17.79,15.67-26.4-.15-.71-.28-1.44-.39-2.18-5.75,9-11.55,18.34-16.61,27.88-7.12,13.44-12.19,27.68-17.62,43.56a57.08,57.08,0,0,1-7.68,15.2A1.49,1.49,0,0,1,58.14,384.85Z"/><path class="cls-3" d="M413.39,227.41c.83,1.73,1.67,3.46,2.52,5.21,4.35,9,8.86,18.22,12.07,27.72a88,88,0,0,0,9.35,20.08,1.48,1.48,0,0,1,.78-.67,1.57,1.57,0,0,1,.52-.08,86.3,86.3,0,0,1-9.23-19.81c-3.24-9.6-7.77-18.91-12.15-27.91q-1.26-2.59-2.51-5.19c-.9-1.86-1.83-3.72-2.77-5.57-.07.54-.2,1.39-.44,2.45C412.16,224.9,412.78,226.15,413.39,227.41Z"/><path class="cls-3" d="M444.05,289c14,14.72,24.6,33.56,32.46,57.61,4,12.22,9.91,27.85,20.44,41.57a1.51,1.51,0,0,1,1.22-.88c-10.41-13.55-16.28-29-20.24-41.16-7.93-24.26-18.65-43.29-32.79-58.17a57,57,0,0,1-4.66-5.57,20.48,20.48,0,0,1,.38,2.94Q442.39,287.21,444.05,289Z"/><path class="cls-3" d="M324.77,136.67a91.88,91.88,0,0,0,25,9.13c19.89,4,32.4,12.42,39.39,26.63a74.64,74.64,0,0,1,4.2,11.81,83.37,83.37,0,0,0,3.75,10.89c2.8,6.19,6,12.3,9.12,18.22,1.05,2,2.12,4,3.18,6.1a1.55,1.55,0,0,1,1.25-.54,1,1,0,0,1,.18,0c-1.09-2.12-2.2-4.22-3.28-6.29-3.1-5.9-6.3-12-9.08-18.14a81.23,81.23,0,0,1-3.68-10.69,74.9,74.9,0,0,0-4.3-12c-7.2-14.67-20.05-23.38-40.44-27.44a90.11,90.11,0,0,1-24.36-8.88A1.47,1.47,0,0,1,324.77,136.67Z"/><path class="cls-3" d="M273.57,3.2a42.33,42.33,0,0,1,15.94,4.94c18.28,9.74,25.15,26,20.42,48.34l-.26,1.23,1.17.47c8.56,3.45,8.35,10.4,7.2,16.08C316.45,82.11,314,90.83,304.6,95a5.29,5.29,0,0,0-2.3,2.39l.12.08a1.5,1.5,0,0,1,.28,2.1c-.27.35-.54.68-.81,1-.57,13.2,1.59,23.41,12.59,30.2,2.3,1.42,4.53,2.72,6.7,3.94l.48-.17,1.44-.49c-2.52-1.38-5.13-2.89-7.83-4.56-10.95-6.76-12.63-17.27-11.78-31a3.56,3.56,0,0,1,1.72-2.17c10-4.47,12.64-13.61,14.3-21.83,1.17-5.8,1.57-13.87-8.11-17.76,4.88-23.07-2.25-39.88-21.18-50a43.58,43.58,0,0,0-16.67-5.13.88.88,0,0,1,0,.17Z"/><path class="cls-3" d="M233.32,124.79c8.17-5.49,9.83-14.37,10-22.78-.66-.68-1.16-1.23-1.48-1.59,0,8.46-1.27,17.68-9.37,23.12-5.51,3.71-11.11,7.45-17,10.67l1.8.72C222.84,131.82,228.12,128.29,233.32,124.79Z"/><path class="cls-3" d="M141.05,213.67c1.19-4,2.33-8,3.46-12,1.54-5.44,3.13-11.06,4.81-16.55,3-9.65,9.27-18.46,15.39-27l.66-.92a30.89,30.89,0,0,1,23.31-12.75c9.23-.69,17.48-3.66,25.19-7.64l-.26-.1a1.5,1.5,0,0,1-.85-1c-7.45,3.79-15.38,6.6-24.19,7.25a32.37,32.37,0,0,0-24.42,13.38l-.66.91c-6.18,8.63-12.58,17.54-15.61,27.42-1.68,5.52-3.28,11.16-4.82,16.61-1.11,3.92-2.23,7.87-3.39,11.82A1.48,1.48,0,0,1,141.05,213.67Z"/><path class="cls-3" d="M242.43,97.53A6.82,6.82,0,0,0,241,96.15a45.54,45.54,0,0,1-17.62-23.82c-2.88-8.59-1.32-12.06,7-15.48l1.19-.49-.31-1.26C226.44,35.72,231,21.5,245,11.61,253.27,5.79,261.86,2.9,270.57,3V1.86a1.73,1.73,0,0,1,0-.32c-9-.13-17.89,2.8-26.47,8.84-14.6,10.28-19.31,25-14.36,45.08-9.07,3.74-11,8-7.84,17.35a47,47,0,0,0,18.2,24.58,5.31,5.31,0,0,1,1.12,1,1.49,1.49,0,0,1,.42-.58A1.44,1.44,0,0,1,242.43,97.53Z"/><path class="cls-3" d="M326.2,828.16l-.21.22,6.16.88c5.47.78,11.39,1.63,17.32,2.45,1.64.22,3.32.38,5,.54a61.33,61.33,0,0,1,9,1.3c5.34,1.33,8.84,4,9.86,7.38s-.5,7.67-4.34,11.81c-6.67,7.21-15.9,8.72-24.83,10.19l-1.37.23c-7.31,1.21-14.65,2.88-21.8,4.5-2.88.65-5.76,1.3-8.65,1.93-1,.22-2,.52-3.06.82l-1.76.5c-9.6,2.54-17.62,1.21-22.59-3.75s-6.21-12.7-3.74-22.06c.31-1.2.6-2.41.89-3.61l-.64,0a1.51,1.51,0,0,1-.81-.33c-.29,1.2-.58,2.4-.9,3.6-2.6,9.9-1.13,18.24,4.14,23.5s13.9,6.83,24,4.14l1.8-.51c1-.29,2-.58,3-.79q4.33-.94,8.67-1.94c7.09-1.61,14.43-3.27,21.7-4.48l1.38-.23c9.17-1.51,18.66-3.06,25.68-10.65,4.21-4.55,5.87-9.26,4.68-13.26s-5.07-6.94-10.94-8.4a61.15,61.15,0,0,0-9.26-1.34c-1.62-.16-3.29-.31-4.91-.54-6.07-.83-12.14-1.71-17.72-2.51l-5.39-.77A1.5,1.5,0,0,1,326.2,828.16Z"/><path class="cls-3" d="M258.48,815.8l-.68.25c.36,1.87.74,3.73,1.12,5.57l0,.13c.48,2.3,1,4.68,1.4,7,.55,3,1.22,5.86,1.83,8.29l.9-.06a1.49,1.49,0,0,1,.66.12c-.72-2.86-1.38-5.74-1.91-8.62-.44-2.38-.95-4.81-1.44-7.17-.42-2-.83-4-1.22-6.06A1.52,1.52,0,0,1,258.48,815.8Z"/><path class="cls-3" d="M469.15,401.07A55.24,55.24,0,0,0,458,382.75c-14.67-15.81-32.9-37.48-43.65-65a22.65,22.65,0,0,0-1.1-2.34l-.62.22a1.61,1.61,0,0,1-.48.08,1.5,1.5,0,0,1-.47-.08,23.23,23.23,0,0,1,1.27,2.67c10.85,27.71,29.19,49.52,43.95,65.43a53.74,53.74,0,0,1,10.95,18A1.49,1.49,0,0,1,469.15,401.07Z"/><path class="cls-3" d="M218.4,824.62l.17.16c.91-1.61,1.45-3.92,1.71-7.23q.32-4.18.43-8.33c-.83-.64-1.34-1.08-1.46-1.19q-.1,4.68-.47,9.4c-.25,3.19-.76,5.36-1.61,6.77A1.48,1.48,0,0,1,218.4,824.62Z"/><path class="cls-3" d="M323.41,810.54c0,.23,0,.46,0,.69,0,3.28.39,6.57.79,10.38.13,1.3.28,2.67.42,4.13a1.45,1.45,0,0,1,1.47.3l.07.09c-.15-1.66-.32-3.21-.47-4.67-.4-3.78-.74-7-.78-10.25,0-.66,0-1.32,0-2a2.56,2.56,0,0,1-.2.26C324.59,809.59,324.14,810,323.41,810.54Z"/><path class="cls-3" d="M263.32,840l-.4,0c.41,1.57.82,3.13,1.24,4.68l0,.13c.69,2.57,1.4,5.24,2,7.86,1.64,6.66,2.49,14.26-3.59,20.13A18,18,0,0,1,250,878.08a20,20,0,0,1-7.43-1.49c-15.41-6.17-31.53-13.24-50.72-22.25a20.67,20.67,0,0,1-12-16.85c-.48-4.09.38-7.49,2.48-9.84a10.76,10.76,0,0,1,8.29-3.25h.24a59.47,59.47,0,0,1,12.67,2.05c1.07.26,2.15.51,3.23.75,4.86,1.08,7.74,1,9.76-.23l-.26-.26a1.47,1.47,0,0,1-.42-1.08c-1.64,1.07-4.28,1.1-8.76.11l-3.21-.75a60.38,60.38,0,0,0-13-2.09c-4.09-.06-7.41,1.25-9.66,3.75-2.41,2.68-3.39,6.48-2.86,11a22.1,22.1,0,0,0,12.88,18c19.22,9,35.36,16.11,50.8,22.29a21.52,21.52,0,0,0,8,1.6,19.48,19.48,0,0,0,13.67-5.7c6.62-6.4,5.73-14.49,4-21.56-.66-2.69-1.38-5.4-2.09-8-.42-1.58-.84-3.19-1.26-4.8a.32.32,0,0,0,0-.09A1.46,1.46,0,0,1,263.32,840Z"/><path class="cls-3" d="M525.74,479.32c-.28-.44-.56-.89-.86-1.34l-.16.91c-.06.34-.19.42-.24.45-.66.41-4.28.22-22.8-19.66-.81-.88-9.87-9-10.79-9.69-13.72-10.8-15.6-20.52-18.46-35.23-.48-2.47-1-5-1.57-7.81-.16-.77-.36-1.55-.57-2.33-.58-.2-1.16-.42-1.75-.67h0c.33,1.11.62,2.22.86,3.31.58,2.75,1.08,5.31,1.56,7.79,2.92,15,4.85,25,19,36.12.86.67,9.87,8.72,10.63,9.53,20.79,22.33,23.52,20.64,24.68,19.92a1.89,1.89,0,0,0,.78-1A1.64,1.64,0,0,1,525.74,479.32Z"/><path class="cls-3" d="M411.65,312.83h0c-1.24-1.9-2.66-3.73-4.06-5.51l-.7-.9c-10.93-14-22-28.08-32.7-41.66l-10.3-13.09c-.54-.69-1.1-1.37-1.63-2l-.06-.06c-.66-.08-1.32-.16-2-.26l-.29,0-.26.91c-1.61,5.69-3.3,11.42-4.92,17l1.44.42c1.63-5.55,3.31-11.27,4.93-17,.52.65,1.07,1.32,1.61,2L373,265.67c10.73,13.64,21.84,27.74,32.69,41.66l.7.9c1.47,1.87,2.95,3.79,4.23,5.77A1.48,1.48,0,0,1,411.65,312.83Z"/><path class="cls-3" d="M286.56,814.49l.12,0a330.73,330.73,0,0,0,1.27-45c-.43-14.09-3.77-28.5-7.17-42-4.45-17.78-3.83-36.24,2-58.08.32-1.22.6-2.43.84-3.65-.51-.44-.79-.71-.81-.73a1.46,1.46,0,0,1-.41-.94c-.29,1.64-.63,3.29-1.07,4.93-5.86,22.1-6.48,40.79-2,58.83,3.37,13.48,6.7,27.8,7.12,41.73a328.89,328.89,0,0,1-1.29,45.11A1.48,1.48,0,0,1,286.56,814.49Z"/><path class="cls-3" d="M282.78,838.53a208.43,208.43,0,0,0,3.54-20.93l-.87-.33a1.38,1.38,0,0,1-.56-.39,205.69,205.69,0,0,1-3.64,21.61,1.37,1.37,0,0,1,.45,0Z"/><path class="cls-3" d="M284.14,662.49a65.21,65.21,0,0,0-.33-20,143.72,143.72,0,0,1-1.67-27.41c.88-27.81-2.71-63.35-5.89-94.7l-.16-1.64c-.28-2.69-.54-5.33-.8-7.92V512a1.51,1.51,0,0,1-1.26,1.49q.36,3.48.72,7.08c3.17,31.31,6.76,66.79,5.88,94.51a145.94,145.94,0,0,0,1.69,27.69,62.92,62.92,0,0,1,.16,20.52,1.5,1.5,0,0,1,.29-.42A1.47,1.47,0,0,1,284.14,662.49Z"/><path class="cls-3" d="M272.3,512v-.89c-.33,7.13-.54,14.87-.76,23.12-.42,15.11-.84,30.74-2.09,42.31q-.31,2.93-.66,5.83c-1.35,11.69-2.63,22.74-.77,34.49,1,6.59-.49,13.67-2.45,21.58a87.32,87.32,0,0,0-2.12,26.28,1.52,1.52,0,0,1,.61.46,1.49,1.49,0,0,1-.25,2.11l-.17.13a155.55,155.55,0,0,0,2.95,19.16c2.84,13.55,1,26.43-1.46,40.66-4.37,25-7.31,47.86-9,69.8a64.6,64.6,0,0,0,1.13,16l.12,0a1.49,1.49,0,0,1,1.42.18,64.69,64.69,0,0,1-1.18-16c1.69-21.88,4.63-44.67,9-69.65,2.5-14.39,4.35-27.42,1.45-41.22-2.73-13-5.32-30.13-1-47.48,2-8.07,3.56-15.31,2.47-22.17-1.82-11.56-.56-22.5.78-34.09q.35-2.91.66-5.84c1.26-11.64,1.68-27.3,2.1-42.44.19-7.25.38-14.28.66-20.78A1.48,1.48,0,0,1,272.3,512Z"/><path class="cls-3" d="M342.51,312.79c-2.48,11.41-1.23,24.12-.08,32.68,1.8,13.35,4,26.84,6.16,39.89,1.87,11.37,3.77,23,5.42,34.62.32.19.65.37,1,.58a1.5,1.5,0,0,1,.43,2.08,1.46,1.46,0,0,1-.93.63c1.07,7.8,2,15.61,2.76,23.4a306.4,306.4,0,0,1,.76,48.95,2,2,0,0,1,.36.18,1.5,1.5,0,0,1,.36,2.09c-.32.46-.66.89-1,1.34a279,279,0,0,1-9.63,54.29c-5.39,19.06-8.49,39.09-11.49,58.47-.76,4.94-1.52,9.88-2.32,14.81-1,6.07.22,12.55,1.39,18.82l.07.38c1,5.49,1.74,11,2.22,16.44a1.5,1.5,0,0,1,.76,2.74l-.52.33c1.73,24.13-1.2,47.56-4.58,68-1.29,7.87-3,15.79-4.67,23.45-1.84,8.51-3.75,17.3-5.08,26-1.08,7-.85,14.37-.62,21.46l.06,2.42a1.5,1.5,0,0,1,1.49.44l0,0c0-1,0-2-.09-3-.22-7-.45-14.29.61-21.19,1.33-8.69,3.23-17.47,5.07-25.95,1.66-7.69,3.38-15.63,4.68-23.52,4.3-26.12,7.92-57,2.12-88.09l-.08-.38c-1.14-6.14-2.33-12.49-1.38-18.3.8-4.93,1.56-9.87,2.33-14.82,3-19.33,6.08-39.32,11.45-58.29,9.62-34,12.71-70.15,9.18-107.4-2-20.57-5.36-41.33-8.66-61.41-2.14-13.05-4.36-26.54-6.15-39.85-1.14-8.45-2.37-21,.05-32.16,3.31-15.26,7.83-30.62,12.19-45.47l0-.08-1.48-.3C350.34,282.12,345.83,297.49,342.51,312.79Z"/><path class="cls-3" d="M540.6,438.4a1,1,0,0,0,.48.08,4.9,4.9,0,0,0,2.74-3c.42-1.32.35-3.39-2.34-5.76a66.41,66.41,0,0,1-6.93-7.66,69,69,0,0,0-7.64-8.39c-3.21-2.79-5.87-5.52-8.45-8.15a107,107,0,0,0-11.3-10.44c-.81-.62-1.67-1.23-2.5-1.81a28.08,28.08,0,0,1-4.91-4.06c-.06.21-.24.8-.55,1.63a34.19,34.19,0,0,0,4.62,3.67c.81.57,1.64,1.16,2.42,1.76a103.89,103.89,0,0,1,11.15,10.3c2.6,2.66,5.28,5.4,8.53,8.23A68.71,68.71,0,0,1,533.4,423a67.45,67.45,0,0,0,7.09,7.84c1.15,1,2.41,2.56,1.9,4.18a4,4,0,0,1-1.45,1.89l-.18-.07-.44.08a6.67,6.67,0,0,1-3.56-.26,25.87,25.87,0,0,1-6.46-4.7l-5.58-5,4.82,10.08c2.73,5.7,5.32,11.08,7.65,16.58,4.18,9.88,3.55,12.6,2.8,13.34a1.28,1.28,0,0,1-.86.34l.39.73a1.45,1.45,0,0,1,.17.7,2.73,2.73,0,0,0,1.36-.7c1.86-1.85,1.07-6.61-2.48-15-2.34-5.53-4.93-10.93-7.68-16.65q-.78-1.65-1.59-3.33a27.17,27.17,0,0,0,6.86,5A8.16,8.16,0,0,0,540.6,438.4Z"/><path class="cls-3" d="M536.87,469.47l-.07-.13c1.2,3.85,1.49,6.33.86,7.34-.34.53-.88.69-1.88.82a1.47,1.47,0,0,1-.87,1.4,1.4,1.4,0,0,1-.62.14,1.48,1.48,0,0,1-.91-.32l0,.23c0,.12,0,.27,0,.38,0,.54-.08.88-.36,1.11a3.54,3.54,0,0,1-2.36.35,8.33,8.33,0,0,1-2.22-1.66,1.54,1.54,0,0,1-.55.64,1.51,1.51,0,0,1-.73.22c1.37,1.26,2.62,2.23,3.28,2.28,1.7.15,2.83-.07,3.56-.69a2.84,2.84,0,0,0,.88-2.14c0-.09,0-.21,0-.3l.74-.1c1.2-.14,2.56-.29,3.36-1.56s.74-3.57-.31-7.28a1.52,1.52,0,0,1-.42.06A1.49,1.49,0,0,1,536.87,469.47Z"/><path class="cls-3" d="M207.34,664.78s0-.09,0-.14c.15-2,.32-4,.49-5.95.45-5.2.91-10.58,1-15.89.08-4,0-8-.14-11.94a165.6,165.6,0,0,1,.12-17.11c1.3-16.75-3.86-32.2-9.25-46.59-8.33-22.26-12-44.83-13.42-66.12-.56-.65-1.11-1.32-1.64-2,1.38,22,5,45.5,13.66,68.66,5.33,14.23,10.43,29.5,9.16,45.94a166,166,0,0,0-.13,17.27c.11,3.9.22,7.93.14,11.87-.12,5.25-.58,10.61-1,15.79q-.27,3-.5,6l0,.38A1.49,1.49,0,0,1,207.34,664.78Z"/><path class="cls-3" d="M220.78,805.52c.22-20.89-3-40.85-6.27-58.07-3.57-18.55-6.95-36.75-9-55.38-.69-6.08.13-12.46.92-18.65.2-1.6.4-3.23.59-4.86-.74-.7-1.2-1.19-1.36-1.38-.21,2-.47,4.07-.72,6.07-.8,6.26-1.63,12.73-.92,19,2.1,18.68,5.48,36.91,9.05,55.49,3.32,17.23,6.5,37.19,6.25,58.06A1.45,1.45,0,0,1,220.78,805.52Z"/><path class="cls-3" d="M271.68,116.69a1.49,1.49,0,0,1-1.11-1.44v-1.67c-15-1.65-26.66-15.38-26.79-15.53a1.47,1.47,0,0,0-1.35-.52,3.71,3.71,0,0,1,.94,2.12c0,.78,0,1.57,0,2.36C247.51,106.3,258.25,115.88,271.68,116.69Z"/><path class="cls-3" d="M300.31,97.76c-7.94,10.4-16.77,15.78-26.26,16h-.48v1.5a1.51,1.51,0,0,1-1.2,1.47c.37,0,.74,0,1.11,0h.62c10.12-.21,19.46-5.65,27.79-16.14,0-.7.06-1.42.11-2.14a2.93,2.93,0,0,1,.3-1.06A1.51,1.51,0,0,0,300.31,97.76Z"/><path class="cls-3" d="M241.25,98.44a1.5,1.5,0,0,0,.23,1.53c0,.06.18.22.38.45,0-.26,0-.51,0-.77A2.56,2.56,0,0,0,241.25,98.44Z"/><path class="cls-3" d="M243.37,99.65a3.71,3.71,0,0,0-.94-2.12,1.44,1.44,0,0,0-.76.33,1.49,1.49,0,0,0-.42.58,2.56,2.56,0,0,1,.62,1.21c0,.26,0,.51,0,.77.32.36.82.91,1.48,1.59C243.36,101.22,243.37,100.43,243.37,99.65Z"/><path class="cls-3" d="M301.89,100.6c.27-.34.54-.67.81-1a1.5,1.5,0,0,0-.28-2.1l-.12-.08a2.93,2.93,0,0,0-.3,1.06C302,99.18,301.92,99.9,301.89,100.6Z"/><path class="cls-3" d="M270.57,141.72v-.8a1.5,1.5,0,0,1,3,0v.85c7.67.13,15,.32,20.51.55,1.49.06,2.87.09,4.18.09,9.62,0,14.68-1.71,24.37-5l2-.69.1-.05c-1.18-.61-2.37-1.26-3.59-1.93-10.6,3.59-15.19,5.08-27,4.58-14.54-.61-41.65-.92-54.71-.63a58.76,58.76,0,0,1-22.17-3.76c-1.13.64-2.28,1.25-3.45,1.85a62,62,0,0,0,25.69,4.91C247,141.52,259,141.55,270.57,141.72Z"/><path class="cls-3" d="M214.8,133.92a1.49,1.49,0,0,0-2,.79,1.45,1.45,0,0,0-.07,1c.92-.48,1.84-1,2.76-1.46Z"/><path class="cls-3" d="M325.61,134.82a1.49,1.49,0,0,0-1.9-.94l-.61.2c.87.48,1.73.93,2.58,1.37A1.38,1.38,0,0,0,325.61,134.82Z"/><path class="cls-3" d="M213.61,136.68l.26.1c1.17-.6,2.32-1.21,3.45-1.85l-1.8-.72c-.92.5-1.84,1-2.76,1.46A1.5,1.5,0,0,0,213.61,136.68Z"/><path class="cls-3" d="M321.18,134.74c1.22.67,2.41,1.32,3.59,1.93a1.47,1.47,0,0,0,.91-1.22c-.85-.44-1.71-.89-2.58-1.37l-1.44.49Z"/><path class="cls-3" d="M270.57,315.81V396.3l.37-.42a1.48,1.48,0,0,1,1.13-.52,1.51,1.51,0,0,1,1.13.52l.37.42V317.38c-.61-1-1.2-2-1.77-3Z"/><path class="cls-3" d="M270.57,141.72v69.63q1.5-.12,3-.09V141.77Z"/><path class="cls-3" d="M270.57,214.36v96.83l.26-.32a1.53,1.53,0,0,1,.95-.63,1.51,1.51,0,0,1,1.62.79l.17.31V214.26A27.34,27.34,0,0,0,270.57,214.36Z"/><path class="cls-3" d="M273.57,140.92a1.5,1.5,0,0,0-3,0v.8l3,.05Z"/><path class="cls-3" d="M400.33,241.8a32.5,32.5,0,0,0,11.2-18.16c-.7-1.4-1.42-2.8-2.14-4.19a1.47,1.47,0,0,0-.34.85,29.83,29.83,0,0,1-10.64,19.2c-8.59,6.92-21.3,9.22-37.76,6.85-27.7-4-53-18.22-69.35-29.45a32,32,0,0,0-17.73-5.64v3a29,29,0,0,1,16,5.12c16.55,11.36,42.17,25.75,70.33,29.89l.53-1.86,1.76,2.16C378.61,251.6,391.43,249,400.33,241.8Z"/><path class="cls-3" d="M270.57,214.36v-3a31.72,31.72,0,0,0-17.12,6.71c-18.79,14.74-46,30.11-66.16,29.16-34.13-1.66-45.92-32.87-46-33.19a1.62,1.62,0,0,0-.21-.36c-.42,1.45-.86,2.89-1.3,4.34,4,8.11,17.41,30.27,46.48,32.14l1-1.36,2.59.63.14.83c25.82-.44,56.33-22.78,65.32-29.83A28.83,28.83,0,0,1,270.57,214.36Z"/><path class="cls-3" d="M139.33,213.14a1.49,1.49,0,0,0-.89,1.92s.13.35.36.9c.3-1,.58-1.93.87-2.9A1.4,1.4,0,0,0,139.33,213.14Z"/><path class="cls-3" d="M412,220.51a1.5,1.5,0,0,0-1.22-1.57c.39.75.77,1.5,1.15,2.25C412,220.81,412,220.57,412,220.51Z"/><path class="cls-3" d="M359.93,249.27l.29,0c.68.1,1.34.18,2,.26l-1.76-2.16Z"/><path class="cls-3" d="M187.25,248.79l-1,1.36.91.07c.69,0,1.39.05,2.08.05l.76,0-.14-.83Z"/><path class="cls-3" d="M409.39,219.45c.72,1.39,1.44,2.79,2.14,4.19.24-1.06.37-1.91.44-2.45-.38-.75-.76-1.5-1.15-2.25a1,1,0,0,0-.18,0A1.55,1.55,0,0,0,409.39,219.45Z"/><path class="cls-3" d="M141.05,213.67a1.48,1.48,0,0,0-1.38-.61c-.29,1-.57,1.94-.87,2.9.22.5.54,1.21.95,2C140.19,216.56,140.63,215.12,141.05,213.67Z"/><path class="cls-3" d="M270.57,211.35v3a27.34,27.34,0,0,1,3-.1v-3Q272.07,211.23,270.57,211.35Z"/><path class="cls-3" d="M270.57,315.81v-4.62c-3.88,4.82-29.71,34.94-69.82,36.41,0,1-.09,2-.15,3C237.24,349.38,262.35,325,270.57,315.81Z"/><path class="cls-3" d="M341.18,351.31h.28a1.5,1.5,0,1,0-.06-3c-.49,0-48.34.61-67.83-37v6C294.4,350.52,337.29,351.31,341.18,351.31Z"/><path class="cls-3" d="M198.54,349.18a1.54,1.54,0,0,0,.57,1.13q.07-1.21.12-2.43A1.53,1.53,0,0,0,198.54,349.18Z"/><path class="cls-3" d="M200.6,350.61c.06-1,.11-2,.15-3l-.75,0a1.59,1.59,0,0,0-.77.24q0,1.22-.12,2.43a1.41,1.41,0,0,0,1,.33Z"/><path class="cls-3" d="M271.78,310.24a1.53,1.53,0,0,0-.95.63l-.26.32v4.62l1.23-1.41c.57,1,1.16,2,1.77,3v-6l-.17-.31A1.51,1.51,0,0,0,271.78,310.24Z"/><path class="cls-3" d="M272.07,398.36a1.5,1.5,0,0,1-1.5-1.5v-.56l-19.34,22.22c.58.25.91.41.94.43a1.5,1.5,0,1,1-1.32,2.69l-.51-.23a1.38,1.38,0,0,0,.27.27l.32.24a63.68,63.68,0,0,1,20.93,26.15v-2.19a1.5,1.5,0,0,1,1.49-1.51h0a1.5,1.5,0,0,1,1.5,1.49v1.91l.56-3.34c2.91-9.69,10.61-16.88,17.68-22.87l-.25.07a1.5,1.5,0,1,1-.92-2.85l1-.3L273.57,396.3v.56A1.5,1.5,0,0,1,272.07,398.36Zm.69,44.52a67.51,67.51,0,0,0-19.06-22.63l18.37-21.1L290.26,420C283.28,426,275.91,433.18,272.76,442.88Z"/><path class="cls-3" d="M272.07,395.36a1.48,1.48,0,0,0-1.13.52l-.37.42v.56a1.5,1.5,0,0,0,3,0v-.56l-.37-.42A1.51,1.51,0,0,0,272.07,395.36Z"/><path class="cls-3" d="M293.89,420.3a1.49,1.49,0,0,1-.53,1l-.26.23c3.21-1,39.87-11.82,60.24,1.51a1.43,1.43,0,0,0,.82.24,1.17,1.17,0,0,0,.32,0c-.15-1.1-.31-2.19-.47-3.29-20.85-12.7-54.88-3.37-61.12-1.5l.63.72A1.48,1.48,0,0,1,293.89,420.3Z"/><path class="cls-3" d="M355.41,422.64a1.5,1.5,0,0,0-.43-2.08c-.32-.21-.65-.39-1-.58.16,1.1.32,2.19.47,3.29A1.46,1.46,0,0,0,355.41,422.64Z"/><path class="cls-3" d="M291,420.67a1.51,1.51,0,0,0,1.89,1l.25-.07.26-.23a1.49,1.49,0,0,0,.16-2.13l-.63-.72-1,.3A1.5,1.5,0,0,0,291,420.67Z"/><path class="cls-3" d="M250.34,421.41a1.47,1.47,0,0,1-.32-.77,1.45,1.45,0,0,1,.36-1.14l.85-1c-5.9-2.55-38.25-15-64.44,6.8-.08,1.29-.17,2.58-.24,3.87a1.47,1.47,0,0,0,.73-.33C213,406,245.86,419.41,250.34,421.41Z"/><path class="cls-3" d="M185.08,428.59c0-.62.08-1.24.12-1.85A1.46,1.46,0,0,0,185.08,428.59Z"/><path class="cls-3" d="M186.28,429.24a1.28,1.28,0,0,0,.27-.05c.07-1.29.16-2.58.24-3.87-.5.42-1,.85-1.5,1.3a.54.54,0,0,0-.09.12c0,.61-.09,1.23-.12,1.85,0,0,0,.1.08.14A1.49,1.49,0,0,0,186.28,429.24Z"/><path class="cls-3" d="M250,420.64a1.47,1.47,0,0,0,.32.77l.51.23a1.5,1.5,0,1,0,1.32-2.69s-.36-.18-.94-.43l-.85,1A1.45,1.45,0,0,0,250,420.64Z"/><path class="cls-3" d="M274.08,504.45c-.16.1-.79.46-1.83,1l0,5.66a1.21,1.21,0,0,1,0-.19l3-.08h0l0-5.7C274.64,504.8,274.25,504.55,274.08,504.45Z"/><path class="cls-3" d="M272.58,501.85a1.53,1.53,0,0,1,1.51,0,1.5,1.5,0,0,1,1.14-.13l-.37-53.94,0,.2a1.52,1.52,0,0,1-1.31,1.25h-.17a1.51,1.51,0,0,1-1.39-.93c0-.07-.07-.15-.1-.23l.37,54Z"/><path class="cls-3" d="M273.69,513.5h.11l.24,0L273.8,511C273.76,511.83,273.72,512.66,273.69,513.5Z"/><path class="cls-3" d="M275.3,512v-1.14h0l-3,.08a1.21,1.21,0,0,0,0,.19V512a1.48,1.48,0,0,0,1.39,1.48c0-.84.07-1.67.11-2.49l.24,2.48A1.51,1.51,0,0,0,275.3,512Z"/><path class="cls-3" d="M273.35,449.23h.17a1.52,1.52,0,0,0,1.31-1.25l0-.2v-1.91a1.5,1.5,0,0,0-1.5-1.49h0a1.5,1.5,0,0,0-1.49,1.51v2.19c0,.08.07.16.1.23A1.51,1.51,0,0,0,273.35,449.23Z"/><path class="cls-3" d="M356.27,496.17c-11.47,16.35-28.45,22.33-50.45,17.75a101.12,101.12,0,0,1-30.19-12,1.38,1.38,0,0,0-.4-.17l0,3.45a103.22,103.22,0,0,0,29.88,11.68,68.27,68.27,0,0,0,14.06,1.53c16,0,29.1-6.5,38.54-19.14.09-1.2.19-2.4.27-3.61A1.49,1.49,0,0,0,356.27,496.17Z"/><path class="cls-3" d="M358.72,497.89a1.5,1.5,0,0,0-.36-2.09,2,2,0,0,0-.36-.18c-.08,1.21-.18,2.41-.27,3.61C358.06,498.78,358.4,498.35,358.72,497.89Z"/><path class="cls-3" d="M274.09,501.84a1.5,1.5,0,0,1,0,2.59l0,0c.17.1.56.35,1.17.71l0-3.45A1.5,1.5,0,0,0,274.09,501.84Z"/><path class="cls-3" d="M225.69,518.35a78.64,78.64,0,0,0,15-1.52,116.43,116.43,0,0,0,31.54-11.36l0-3.41c-4.82,2.72-58.32,31.67-86.14-5.92a1.7,1.7,0,0,0-.22-.24c.09,1.7.2,3.42.32,5.14C196,512.48,209.45,518.35,225.69,518.35Z"/><path class="cls-3" d="M184,495.82a1.5,1.5,0,0,0-.31,2.1c.28.38.58.74.87,1.11-.07-1.13-.14-2.27-.2-3.4A1.78,1.78,0,0,0,184,495.82Z"/><path class="cls-3" d="M185.87,495.9a1.53,1.53,0,0,0-1.52-.27c.06,1.13.13,2.27.2,3.4.53.69,1.08,1.36,1.64,2C186.07,499.32,186,497.6,185.87,495.9Z"/><path class="cls-3" d="M273.56,502.33a1.55,1.55,0,0,1,.53-.49,1.53,1.53,0,0,0-1.51,0l-.35.21,0,3.41c1-.56,1.67-.92,1.83-1l-.07,0A1.5,1.5,0,0,1,273.56,502.33Z"/><path class="cls-3" d="M274.64,502.38a1.5,1.5,0,0,0-.55-.54,1.55,1.55,0,0,0-.53.49,1.5,1.5,0,0,0,.45,2.08l.07,0,0,0A1.49,1.49,0,0,0,274.64,502.38Z"/><path class="cls-3" d="M438.61,296.43a22.49,22.49,0,0,0,2.25-11.13,57.39,57.39,0,0,1-3.53-4.88,1.51,1.51,0,0,0-.12,1.25,18.88,18.88,0,0,1-1.34,13.53c-3.62,7.49-11.76,13.42-24.2,17.62a29.31,29.31,0,0,1,1.56,2.63C426.16,311,434.7,304.58,438.61,296.43Z"/><path class="cls-3" d="M410.71,314.73a1.48,1.48,0,0,0,1,.94c-.31-.56-.65-1.12-1-1.67A1.51,1.51,0,0,0,410.71,314.73Z"/><path class="cls-3" d="M440,280.64a1.49,1.49,0,0,0-1.4-1c.6.92,1.22,1.82,1.85,2.69A13,13,0,0,0,440,280.64Z"/><path class="cls-3" d="M412.61,315.67l.62-.22a29.31,29.31,0,0,0-1.56-2.63h0a1.48,1.48,0,0,0-1,1.17c.35.55.69,1.11,1,1.67a1.5,1.5,0,0,0,.47.08A1.61,1.61,0,0,0,412.61,315.67Z"/><path class="cls-3" d="M437.33,280.42a57.39,57.39,0,0,0,3.53,4.88,20.48,20.48,0,0,0-.38-2.94c-.63-.87-1.25-1.77-1.85-2.69a1.57,1.57,0,0,0-.52.08A1.48,1.48,0,0,0,437.33,280.42Z"/><path class="cls-3" d="M497,388.14a1.43,1.43,0,0,0-.08.22c0,.1-2.64,9.58-10.4,13.4-4.67,2.3-10.32,2.11-16.78-.58a1.73,1.73,0,0,0-.54-.11c.44,1.19.81,2.37,1.14,3.55a26.91,26.91,0,0,0,9.12,1.74,18.71,18.71,0,0,0,8.38-1.91c6.91-3.4,10.21-10.38,11.41-13.61-.36-.37-.71-.74-1-1.14Z"/><path class="cls-3" d="M467.73,402a1.49,1.49,0,0,0,.81,2c-.22-.71-.46-1.42-.71-2.14A1.62,1.62,0,0,0,467.73,402Z"/><path class="cls-3" d="M499.75,389.21l0-.07a1.5,1.5,0,0,0-1.06-1.84,1.64,1.64,0,0,0-.54,0c.39.5.77,1,1.16,1.5C499.46,388.92,499.61,389.06,499.75,389.21Z"/><path class="cls-3" d="M470.29,404.62c-.33-1.18-.7-2.36-1.14-3.55a1.49,1.49,0,0,0-1.32.74c.25.72.49,1.43.71,2.14h0C469.13,404.2,469.71,404.42,470.29,404.62Z"/><path class="cls-3" d="M497,388.14l1.21,1.56c.33.4.68.77,1,1.14.31-.83.49-1.42.55-1.63-.14-.15-.29-.29-.42-.45-.39-.49-.77-1-1.16-1.5A1.51,1.51,0,0,0,497,388.14Z"/><path class="cls-3" d="M101.92,295.73c0-.06,0-.12,0-.17-.8,1.24-1.59,2.5-2.39,3.75,5.11,23.53,33.76,27.08,38.64,27.51.19-.35.4-.7.59-1.05l.92-1.71a1.53,1.53,0,0,0-.64-.18C138.66,323.86,104.93,321.88,101.92,295.73Z"/><path class="cls-3" d="M100.26,294.41a1.49,1.49,0,0,0-1.32,1.66c0,.36.11.7.16,1.06l1.71-2.68A1.45,1.45,0,0,0,100.26,294.41Z"/><path class="cls-3" d="M138.13,326.82l.72.05h.08a1.5,1.5,0,0,0,.71-2.81l-.92,1.71C138.53,326.12,138.32,326.47,138.13,326.82Z"/><path class="cls-3" d="M101.88,295.56a1.49,1.49,0,0,0-1.07-1.11l-1.71,2.68c.11.74.24,1.47.39,2.18C100.29,298.06,101.08,296.8,101.88,295.56Z"/><path class="cls-3" d="M58.17,385l-.89,1.2-.05.05c-.42.54-.85,1.07-1.29,1.6,2,5.45,8.63,18.65,26.2,18.65.67,0,1.36,0,2-.07.44-1,.87-1.95,1.32-2.91a1.49,1.49,0,0,0-.73-.13C63.54,405,58.6,386.76,58.17,385Z"/><path class="cls-3" d="M86.32,405.33l-.12.27A1.11,1.11,0,0,0,86.32,405.33Z"/><path class="cls-3" d="M56.09,385.25c.38-.49.74-1,1.1-1.48a1.59,1.59,0,0,0-.84-.06,1.5,1.5,0,0,0-1.14,1.79s.06.25.17.63l.68-.84Z"/><path class="cls-3" d="M57.23,386.22l.05-.05.89-1.2,0-.12a1.49,1.49,0,0,0-1-1.08c-.36.5-.72,1-1.1,1.48l0,0-.68.84c.11.4.3,1,.56,1.69C56.38,387.29,56.81,386.76,57.23,386.22Z"/><path class="cls-3" d="M85.51,403.49c-.45,1-.88,1.94-1.32,2.91l.82,0a1.49,1.49,0,0,0,1.19-.75l.12-.27a1.43,1.43,0,0,0,.07-.59A1.48,1.48,0,0,0,85.51,403.49Z"/><path class="cls-3" d="M337.05,662.69c-30.91,20.9-51.28,1.06-52.15.19a1.43,1.43,0,0,0-.76-.39c-.16,1.08-.34,2.16-.56,3.23a40.85,40.85,0,0,0,26,9.39c8.13,0,17.81-2.43,28.61-9.6-.07-1-.15-2-.24-3.07A1.48,1.48,0,0,0,337.05,662.69Z"/><path class="cls-3" d="M282.36,664.05c0-.26.09-.51.13-.76A1.53,1.53,0,0,0,282.36,664.05Z"/><path class="cls-3" d="M283.58,665.72c.22-1.07.4-2.15.56-3.23a1.47,1.47,0,0,0-1.36.38,1.5,1.5,0,0,0-.29.42c0,.25-.09.5-.13.76a1.46,1.46,0,0,0,.41.94S283.07,665.28,283.58,665.72Z"/><path class="cls-3" d="M338.73,665.18a1.5,1.5,0,0,0-.76-2.74c.09,1,.17,2,.24,3.07Z"/><path class="cls-3" d="M262,665c-32.09,25.25-53.23,1.25-54.12.21a1.48,1.48,0,0,0-.49-.38c-.09,1.25-.22,2.52-.36,3.78,3.43,3.25,12.87,10.79,26.48,10.79,8.56,0,18.77-3,30.17-11.91-.08-.89-.14-1.79-.19-2.7A1.5,1.5,0,0,0,262,665Z"/><path class="cls-3" d="M205.71,665a1.51,1.51,0,0,0-.17,2.12l.08.08c.07-.76.15-1.52.21-2.27Z"/><path class="cls-3" d="M263.8,667.31a1.49,1.49,0,0,0,.25-2.11,1.52,1.52,0,0,0-.61-.46c.05.91.11,1.81.19,2.7Z"/><path class="cls-3" d="M207,668.56c.14-1.26.27-2.53.36-3.78a1.49,1.49,0,0,0-1.51.13c-.06.75-.14,1.51-.21,2.27C205.78,667.37,206.24,667.86,207,668.56Z"/><path class="cls-3" d="M282.78,838.53c-.22,1-.45,2-.69,3q3.09.24,6,.24c23.9,0,36.17-11.55,37.94-13.35l-1.12-.16-.11-1.19q-.06-.66-.12-1.29a1.44,1.44,0,0,0-.65.38C323.86,826.27,310.39,840.48,282.78,838.53Z"/><path class="cls-3" d="M326.56,826.94a1.48,1.48,0,0,0-.38-.81c0,.26.05.51.08.77Z"/><path class="cls-3" d="M280.08,839.83a1.47,1.47,0,0,0,.56,1.29c.21-.87.42-1.75.61-2.63A1.5,1.5,0,0,0,280.08,839.83Z"/><path class="cls-3" d="M282.09,841.49c.24-1,.47-2,.69-3l-1.08-.07a1.37,1.37,0,0,0-.45,0c-.19.88-.4,1.76-.61,2.63a1.51,1.51,0,0,0,.81.33Z"/><path class="cls-3" d="M324.64,825.74q.06.63.12,1.29l.11,1.19,1.12.16.21-.22a1.5,1.5,0,0,0,.36-1.22l-.3,0c0-.26-.05-.51-.08-.77l-.07-.09A1.45,1.45,0,0,0,324.64,825.74Z"/><path class="cls-3" d="M286.68,814.53c-.11,1-.24,2-.36,3.07a33.91,33.91,0,0,0,11.79,2.13c12.25,0,21.92-6.56,25.3-9.19,0-.23,0-.47,0-.71l0-.75,0-.07,0,0v-.23c0-.6,0-1.19-.05-1.79a1.51,1.51,0,0,0-.63.32C322.53,807.41,305.73,822,286.68,814.53Z"/><path class="cls-3" d="M324.89,809.23h0a1.49,1.49,0,0,0-.05-1.81l0,1.26A1,1,0,0,1,324.89,809.23Z"/><path class="cls-3" d="M284.61,815.33a1.5,1.5,0,0,0,.28,1.55c.09-.74.19-1.49.27-2.23A1.49,1.49,0,0,0,284.61,815.33Z"/><path class="cls-3" d="M285.45,817.27l.87.33c.12-1,.25-2.05.36-3.07l-.12,0a1.48,1.48,0,0,0-1.4.16c-.08.74-.18,1.49-.27,2.23A1.38,1.38,0,0,0,285.45,817.27Z"/><path class="cls-3" d="M323.32,806.94c0,.6,0,1.19.05,1.79V809l0,0,0,.07,0,.75c0,.24,0,.48,0,.71.73-.56,1.18-.95,1.28-1a2.56,2.56,0,0,0,.2-.26h0a1,1,0,0,0,0-.54l0-1.26,0,0A1.5,1.5,0,0,0,323.32,806.94Z"/><path class="cls-3" d="M218.57,824.78a6.27,6.27,0,0,1-1.65,1.93c-.13.1-.28.17-.41.26,2,1.93,14.91,13.29,39.86,13.29,2.1,0,4.29-.09,6.55-.26l0-.13-.13-.49.05-.11-.09-.08-.13-.48-.41-1.67C234.6,839,220.23,826.34,218.57,824.78Z"/><path class="cls-3" d="M264.43,839a.93.93,0,0,1-.06.37,1.47,1.47,0,0,0,.32-1,1.49,1.49,0,0,0-.95-1.26c.1.41.2.82.31,1.24A1,1,0,0,1,264.43,839Z"/><path class="cls-3" d="M217.17,824.2a1.41,1.41,0,0,0-.89.39,1.5,1.5,0,0,0-.45,1c.06,0,.14-.08.2-.13A4.56,4.56,0,0,0,217.17,824.2Z"/><path class="cls-3" d="M216.25,826.71l.26.26c.13-.09.28-.16.41-.26a6.27,6.27,0,0,0,1.65-1.93l-.17-.16a1.48,1.48,0,0,0-1.23-.42,4.56,4.56,0,0,1-1.14,1.3c-.06,0-.14.08-.2.13A1.47,1.47,0,0,0,216.25,826.71Z"/><path class="cls-3" d="M262.18,837l.41,1.67.13.48.09.08-.05.11.13.49,0,.13.4,0a1.46,1.46,0,0,0,1.05-.57.93.93,0,0,0,.06-.37,1,1,0,0,0-.38-.69c-.11-.42-.21-.83-.31-1.24a1.49,1.49,0,0,0-.66-.12Z"/><path class="cls-3" d="M221.24,805.78a1.51,1.51,0,0,0-.46-.26c0,1.23,0,2.46-.07,3.7,3.54,2.71,13.09,9,25.11,9a33.92,33.92,0,0,0,12-2.2c0-.21-.09-.42-.13-.63l0-.21v-.07l0,0,0-.2q-.18-.9-.33-1.83C238.2,820.56,221.41,805.93,221.24,805.78Z"/><path class="cls-3" d="M259.09,814.67a1.09,1.09,0,0,1,.06.47.43.43,0,0,0,0,.11,1.51,1.51,0,0,0,.15-1.4,1.45,1.45,0,0,0-.53-.66c.09.47.17.95.26,1.42Z"/><path class="cls-3" d="M219.12,805.91a1.5,1.5,0,0,0,.12,2.11h0c0-.75,0-1.49,0-2.24A1.67,1.67,0,0,0,219.12,805.91Z"/><path class="cls-3" d="M257.37,813l-.12,0q.15.93.33,1.83l0,.2,0,0v.07l0,.21c0,.21.09.42.13.63l.68-.25a1.52,1.52,0,0,0,.69-.55.43.43,0,0,1,0-.11,1.09,1.09,0,0,0-.06-.47l0-.06c-.09-.47-.17-1-.26-1.42A1.49,1.49,0,0,0,257.37,813Z"/><path class="cls-3" d="M220.78,805.52a1.45,1.45,0,0,0-1.5.27c0,.75,0,1.49,0,2.24.12.11.63.55,1.46,1.19C220.75,808,220.77,806.75,220.78,805.52Z"/><path class="cls-3" d="M273.5,113.75h.07V3.2c-.31,0-.63-.08-.94-.1l-.35-.05-.09,0h-.35c-.42,0-.85,0-1.27,0V113.58A25.76,25.76,0,0,0,273.5,113.75Z"/><path class="cls-3" d="M272.07,116.75a1.53,1.53,0,0,0,.3,0l-.69,0A1.59,1.59,0,0,0,272.07,116.75Z"/><path class="cls-3" d="M272.3,1.5a1,1,0,0,1,.44.11l.81.08A1.49,1.49,0,0,0,272.07.36a1.51,1.51,0,0,0-1.47,1.18l1.32,0A1,1,0,0,1,272.3,1.5Z"/><path class="cls-3" d="M270.57,3c.42,0,.85,0,1.27,0h.35l.09,0,.35.05c.31,0,.63.07.94.1V1.86a.88.88,0,0,0,0-.17l-.81-.08a1,1,0,0,0-.44-.11,1,1,0,0,0-.38.08l-1.32,0a1.73,1.73,0,0,0,0,.32ZM272.08,3Z"/><path class="cls-3" d="M273.57,115.25v-1.5h-.07a25.76,25.76,0,0,1-2.93-.17v1.67a1.49,1.49,0,0,0,1.11,1.44l.69,0A1.51,1.51,0,0,0,273.57,115.25Z"/><path class="cls-3" d="M525.31,444.72a1.5,1.5,0,0,0-.62,2l12.11,22.59a.56.56,0,0,0,0-.12l-.73-2.35,2.42.42a3.4,3.4,0,0,0,.68,0l-11.79-22A1.5,1.5,0,0,0,525.31,444.72Z"/><path class="cls-3" d="M538.2,468.77c.15.5.29,1,.42,1.43a1.36,1.36,0,0,0,.28-.11,1.5,1.5,0,0,0,.79-1.33A4.12,4.12,0,0,1,538.2,468.77Z"/><path class="cls-3" d="M539.52,468.06l-.39-.73a3.4,3.4,0,0,1-.68,0l-2.42-.42.73,2.35a.56.56,0,0,1,0,.12l.07.13a1.49,1.49,0,0,0,1.33.79,1.52,1.52,0,0,0,.42-.06c-.13-.46-.27-.93-.42-1.43a4.12,4.12,0,0,0,1.49,0A1.45,1.45,0,0,0,539.52,468.06Z"/><path class="cls-3" d="M535.65,476.91c-3-6.46-13-27.69-17.38-29.34a1.5,1.5,0,0,0-1.91.87,1.52,1.52,0,0,0,.86,1.94c2.25.9,9.9,15.12,15.7,27.78a1.58,1.58,0,0,0,.46.56l.1-.89,1.12-.18.8-.1.38-.05A1.43,1.43,0,0,0,535.65,476.91Z"/><path class="cls-3" d="M534.6,477.65l-1.12.18-.1.89a1.48,1.48,0,0,0,.91.32,1.4,1.4,0,0,0,.62-.14,1.47,1.47,0,0,0,.87-1.4l-.38.05Z"/><path class="cls-3" d="M528.27,477.69c-2.3-3.58-13.9-21.56-16.17-23.37a1.5,1.5,0,0,0-1.87,2.34c1.32,1.06,9.08,12.67,14.65,21.32l.34-1.85,2,1.95c.43.41.79.75,1.13,1.05A1.54,1.54,0,0,0,528.27,477.69Z"/><path class="cls-3" d="M526.05,479.65a1.48,1.48,0,0,0,1,.36l.08,0-.9-.83A2.75,2.75,0,0,1,526.05,479.65Z"/><path class="cls-3" d="M528.37,479.13c-.34-.3-.7-.64-1.13-1.05l-2-1.95-.34,1.85c.3.45.58.9.86,1.34a1.64,1.64,0,0,0,.31.33,2.75,2.75,0,0,0,.14-.49l.9.83a1.51,1.51,0,0,0,.73-.22A1.54,1.54,0,0,0,528.37,479.13Z"/><path class="cls-3" d="M13.69,474l17.83-31a1.5,1.5,0,1,0-2.6-1.49L12.2,470.59l.08,0,3.21-1.1-1.35,3.12c-.28.65-.52,1.23-.73,1.77A1.54,1.54,0,0,0,13.69,474Z"/><path class="cls-3" d="M11.12,472.46l0,.05a1.51,1.51,0,0,0,.55,2.05l.08,0c.29-.79.63-1.66,1-2.61A16.77,16.77,0,0,1,11.12,472.46Z"/><path class="cls-3" d="M13.41,474.35c.21-.54.45-1.12.73-1.77l1.35-3.12-3.21,1.1-.08,0-1.08,1.87a16.77,16.77,0,0,0,1.64-.48c-.41.95-.75,1.82-1,2.61a1.48,1.48,0,0,0,.67.17A1.5,1.5,0,0,0,13.41,474.35Z"/><path class="cls-3" d="M39.58,448.68a1.49,1.49,0,0,0-2.08.38L18.12,477.13l.14-.12,3.08-2.59-.63,4c0,.11,0,.21-.05.32l19.31-28A1.5,1.5,0,0,0,39.58,448.68Z"/><path class="cls-3" d="M18.05,479.09a1.52,1.52,0,0,0,.32.3,1.47,1.47,0,0,0,.65.24c.06-.47.12-.95.2-1.47C18.86,478.47,18.46,478.78,18.05,479.09Z"/><path class="cls-3" d="M20.46,479l.2-.29c0-.11,0-.21.05-.32l.63-4L18.26,477l-.14.12-.13.18a1.52,1.52,0,0,0,.06,1.78c.41-.31.81-.62,1.17-.93-.08.52-.14,1-.2,1.47l.2,0A1.51,1.51,0,0,0,20.46,479Z"/><path class="cls-3" d="M29.72,482.72l18.74-25.55A1.5,1.5,0,1,0,46,455.4L27.3,481a1.57,1.57,0,0,0-.23.49L30,478.61l-.94,4.61A1.41,1.41,0,0,0,29.72,482.72Z"/><path class="cls-3" d="M27.07,481.44a1.48,1.48,0,0,0,.56,1.6,1.43,1.43,0,0,0,.88.29,1.46,1.46,0,0,0,.55-.11l.94-4.61Z"/></g></g></svg>