<svg xmlns="http://www.w3.org/2000/svg" viewBox="0 0 576.75 879.07"><defs><style>.cls-1{fill:#777;}.cls-2{fill:#fff;}</style></defs><g id="Layer_2" data-name="Layer 2"><g id="Layer_1-2" data-name="Layer 1"><path class="cls-1" d="M53.88,394.43a17.65,17.65,0,0,1-6.09-8.88,30.28,30.28,0,0,1-7.17,4.4c-6.84,3-13.41,6.12-18.6,10.59-6.75,5.82-12.48,12.94-18.24,20.34A5.58,5.58,0,0,0,3,424a3.18,3.18,0,0,0,.93,2.41,3.09,3.09,0,0,0,2.35.91,6.34,6.34,0,0,0,3.14-.73,38.42,38.42,0,0,0,6.9-6.12c1-1,2-2,3-3h0l0,0a29.6,29.6,0,0,1,4.09-3.31,30.68,30.68,0,0,1,5.72-3.69l1.12,2.78A25,25,0,0,0,25.89,416a147.74,147.74,0,0,1-16,22.75c-4.32,4.91-7.53,12.62-6.45,14.14.17.24,1.11.44,3.41-.5a4.57,4.57,0,0,1,1.06-.31c1.14-1.19,3.22-3.5,5.69-6.23,2.92-3.22,6.9-7.63,11.64-12.77l2.21,2c-4.73,5.12-8.71,9.53-11.62,12.74-3.09,3.42-4.87,5.39-6,6.5a11.12,11.12,0,0,1-1.54,2.43c-1.45,1.95-4.16,5.59-3.26,7.33a3,3,0,0,0,1.83,1.73c1.62.39,3.83-1.17,4.77-1.84a6.37,6.37,0,0,1,.8-.5c1.5-1.56,8.66-9.27,21.94-27.75l1.22.88h0l1.22.88C23.17,456.5,16,464.11,14.51,465.68c-.47,1.92.59,2.46,1,2.64,2,1,6.24.1,8.75-3.5l.31-.45c1.67-2.47,2.52-3.72,3.25-4.16,3.58-4.73,9.38-12.67,14.9-21.47l2.54,1.6c-5.72,9.11-11.72,17.3-15.31,22-1,4-.41,5.45.06,5.65,1.75.73,7.59-3.36,11.45-9.8a174.65,174.65,0,0,1,12-16.92c9-11.63,17.48-22.61,19.36-38.11A25.4,25.4,0,0,1,74,398.35a43.34,43.34,0,0,1-5.53.38C62.47,398.73,57.6,397.3,53.88,394.43Z"/><path class="cls-1" d="M286,245.09a11.51,11.51,0,0,1,5.28,1c7.11,3.38,11.76,14.56,17.16,41.27,8,39.48,36.4,39.69,43.31,39.14-2.07-13.9-3.47-31.81,2.41-49.86,3.71-11.4,6.58-20.67,9-29.18,1.09-3.79,1.94-7.72,2.92-12.26.38-1.76.79-3.62,1.23-5.61H286Z"/><path class="cls-1" d="M517.6,394.63c-6.05,5.11-13.71,5.89-17.55,5.93a31.85,31.85,0,0,1,1.86,9.69,19.52,19.52,0,0,0,3.19,9.86c6.77,9.72,14,19.39,21,28.74l4.22,5.66c1.93,2.59,3.74,3.93,5.54,4.11a6.69,6.69,0,0,0,4.59-1.69c-2.11-3.05-8-11.42-10.86-13.9l1-1.13h0l1-1.13c3,2.65,8.86,10.86,11.18,14.19l.07-.06.94,1.53c3.69,6,8.08,7.55,9.51,7,.47-.19.64-.71.52-1.54-.19-.37-.43-.89-.76-1.62a134.8,134.8,0,0,0-13.19-22.75l2.46-1.72A138.64,138.64,0,0,1,555.73,459c.13.3.26.58.38.83a4.25,4.25,0,0,1,.64.55c1.16,1.19,2.59,2.37,4.88,1.31a3.17,3.17,0,0,0,1.07-.67v0a1.89,1.89,0,0,1,0-1.14c-2.43-4.56-11.23-20.84-15.81-27.23l2.44-1.75c4.94,6.91,14.31,24.35,16.3,28.09a2.84,2.84,0,0,0,2.55-1.18c1.09-1.5,1.32-4.57-.64-8-1.26-2.23-2.94-6-4.71-10.09-2.44-5.55-5.2-11.84-7.29-14.91-.26-.27-2-1.93-7.3-4.39l1.27-2.72c5.38,2.5,7.49,4.32,8.14,5,1.07.54,2.08,1.14,3.05,1.72,2.06,1.24,4,2.4,5.81,2.53a11.73,11.73,0,0,0,4.48-.83,4.09,4.09,0,0,0,2.36-2.11,4,4,0,0,0,.21-2.88c-.18-.12-.48-.28-.74-.43-3.34-1.86-13.48-7.51-35.94-32.06a36.13,36.13,0,0,0-6.33-5.06,55.68,55.68,0,0,1-5.13-3.84C524.46,386,521.84,391.05,517.6,394.63Z"/><path class="cls-1" d="M311.45,453.6c3.51-6.81,7.05-13.68,11-20.32H241.55c6.9,10.57,12.68,21.37,17.75,30.86a267,267,0,0,0,23.09,35.44l.52-.05a267.32,267.32,0,0,0,23-35.39C307.82,460.66,309.67,457.07,311.45,453.6Z"/><path class="cls-1" d="M347,648.18q-.71-7.39-2-15.17c-1.4-8.6-2.86-17.46-1.55-25.91.53-3.41,1-6.82,1.56-10.24q.9-6,1.84-12c-5.45,6.75-12.11,11-19.86,12.72a37.14,37.14,0,0,1-8,.84c-11.92,0-22.56-5.25-27.09-7.84-.18,12.07-.58,24.11-1,35.92-.24,7.16-.49,14.53-.69,21.83C297.77,643.67,321.37,632,347,648.18Z"/><path class="cls-1" d="M217.65,580.89a99.79,99.79,0,0,1,.14,21.64,74,74,0,0,0,.11,12c.18,2.77.36,5.64.32,8.47-.07,6-.39,12.24-.92,18.65,29.48-12.68,47.32-.75,54,5.44A113.1,113.1,0,0,1,274,616c1.37-6,2.76-13,1.75-19.15a66.22,66.22,0,0,1-.72-6.8,82.32,82.32,0,0,1-25.84,4.63C238,594.68,225.91,591.62,217.65,580.89Z"/><path class="cls-1" d="M260.88,274c3.08-11.38,5.74-21.22,12.37-24.71a38.37,38.37,0,0,1,9.76-3.85v-15.8H198.82a289.36,289.36,0,0,1,11.07,78.22c0,6.62,0,13.63-.45,20.83C247.42,323.69,254.88,296.18,260.88,274Z"/><path class="cls-2" d="M383.23,860l.12-1.42a1.4,1.4,0,0,0-.81.25l.63,1.15Z"/><path class="cls-2" d="M576.29,419.74c-.28-.75-.89-1.09-2-1.71-3.23-1.8-13-7.28-35.19-31.47a38.54,38.54,0,0,0-6.84-5.5,33.86,33.86,0,0,1-6.83-5.6c-17.93-21.22-31.25-42.53-40.71-65.14-4.06-9.69-10.1-22.06-20.9-31.74-6.58-5.91-10-13.56-13.21-21.54-4.66-11.57-10.47-25.11-18.26-37.78-7.89-12.83-14.64-24.64-17.46-39.35-4.63-24.1-19.48-36.94-45.41-39.25-1.51-.13-3.06-.33-4.55-.52-2-.26-4.05-.52-6.1-.65-17.36-1.07-31-9.93-43-27.9-3.63-5.44-4.38-11.72-2.43-20.72a7.48,7.48,0,0,0,5.66,1.19c3.27-.78,5.19-4.25,6.34-6.79a92.38,92.38,0,0,0,6.12-16.12c2.26-9.21-1.68-13.31-5.89-15.13,3.89-20.58-2.25-36-18.27-45.88-17.08-10.53-33.92-10.85-48.7-.93C242.88,17.8,236.9,34,241.31,54.08a12.16,12.16,0,0,0-6.71,5.81c-1.47,3.07-1.36,7,.33,11.51a49.31,49.31,0,0,1,1.39,4.79c1.55,6,3.3,12.87,12.29,14.78l.62,1.45a38,38,0,0,1,2.1,5.64c2.4,9.29,4.24,19.8-4.26,27-12.61,10.71-26.45,16.3-41.16,16.61-22,.47-35.9,8.06-43.79,23.9-2.09,4.19-3.92,8.56-5.7,12.79l-1.5,3.56q-2.78,6.51-5.5,13.05c-3.33,7.91-6.76,16.1-10.29,24.08-1.45,3.28-3.12,6.56-4.73,9.73a145.48,145.48,0,0,0-6.28,13.42c-6.62,17-14.91,30.14-26.07,41.2a80.33,80.33,0,0,0-16.18,23.76c-2.44,5.44-4.83,11-7.13,16.39-7.39,17.26-15,35.1-25.58,51.18-4.12,6.29-8.24,10-13.76,12.46-7,3.12-13.84,6.32-19.34,11.06-7,6-12.79,13.24-18.65,20.76A8.52,8.52,0,0,0,0,423.86a6.15,6.15,0,0,0,6.42,6.46A9.56,9.56,0,0,0,11,429.14,39.21,39.21,0,0,0,18,423,129.39,129.39,0,0,1,7.6,436.8C4.46,440.38-1.92,450.61,1,454.66c.86,1.21,2.25,1.66,4.15,1.37-2,2.77-4.34,6.48-2.77,9.51a5.87,5.87,0,0,0,3.79,3.26,7.49,7.49,0,0,0,5.36-1.11A4.73,4.73,0,0,0,14.14,471c3.29,1.61,8.91.33,12.25-4.1.17,2,1,3.28,2.41,3.87,4.11,1.73,11.16-4.31,15.18-11a174.65,174.65,0,0,1,11.84-16.63c8.85-11.43,18-23.25,20-39.58a27,27,0,0,1,6.41-13.65c8.68-9.69,17.86-19.25,26.73-28.49,4.21-4.38,8.55-8.91,12.8-13.39a139.82,139.82,0,0,0,28.21-43.31,50.81,50.81,0,0,1,7.52-12.63l3.1-3.82c13.43-16.6,27.28-33.73,36.21-54.8a285.63,285.63,0,0,1,10.12,74.4c.08,18.23-.44,39.34-7.64,59.17-3.6,9.92-5.55,19.19-5.79,27.54-.79,27.77-1,56.16-.5,86.79.34,22.84,5.1,46.37,14.14,69.94,6.87,17.9,9.39,34.55,7.71,50.92a75.44,75.44,0,0,0,.1,12.49c.17,2.72.35,5.53.31,8.25-.08,6.68-.46,13.72-1.12,20.95a72.36,72.36,0,0,1-1.14,7.23c-.79,4.17-1.6,8.47-1.2,12.71,1.54,16,3.69,32.15,5.78,47.79.6,4.54,1.21,9.09,1.8,13.63.9,7,1.89,14,2.85,20.86,1.82,13,3.7,26.42,5.08,39.66,2.07,19.9-4.59,36.76-19.8,50.12a63.36,63.36,0,0,0-14.69,18.46,16.57,16.57,0,0,0,1.5,17.43,17.26,17.26,0,0,0,16.62,7,50.24,50.24,0,0,1,11.1,0c4.71.33,9.58.68,14.41-.69,5-1.42,10.38-9,12.16-12.82a51.86,51.86,0,0,1,13.6-17.92c9.91-8.45,13.12-18.73,9.84-31.41-3.16-12.16-6.17-25-5.29-37.32,1.86-26.22,6.24-52.07,9.84-71.67,2.79-15.16,2.9-27.89.35-40.06-3.69-17.61-3.69-34,0-50.18,1.44-6.3,2.88-13.59,1.8-20.3-1.69-10.39-.51-20.27.74-30.74.3-2.51.61-5.11.87-7.68,1.34-13.24,2.05-26.75,2.73-39.81.15-2.94.3-5.93.47-8.93.47,4.15,1,8.29,1.47,12.35,1.75,14.31,3.55,29.1,3.88,43.65.46,20.36-.25,41.11-.93,61.18-.28,8.11-.57,16.5-.77,24.75a9.72,9.72,0,0,1-.52,2.4c-.14.48-.28,1-.4,1.45-5,21.62-4,42.68,3,62.6,8.73,25,7,51.41,5.49,74.75-.24,3.76-1.41,7.44-2.63,11.33-.65,2.06-1.32,4.18-1.84,6.31-.36,1.5-.76,3-1.16,4.49a74.61,74.61,0,0,0-2.74,13.61c-.86,11.4,4.3,16.44,13.5,21.3a83.14,83.14,0,0,1,20.69,14.87c7.65,7.85,25.39,14.82,39,14.82a27.89,27.89,0,0,0,8.62-1.21,48.38,48.38,0,0,0,10-4.38c6.59-4,8.94-8.72,6.71-13.5a1.54,1.54,0,0,1,0,.36,1.51,1.51,0,0,1-1,1.12c1.12,3.47-.85,6.47-3.66,8.78a6.83,6.83,0,0,1-1.78,3.06l-1-1.1a42.63,42.63,0,0,1-7.14,3.33c-.26.47-.45.77-.48.82l-.64-.43-1.48.52c-12.64,4.16-36.75-3.71-46-13.23a84.51,84.51,0,0,0-21.06-15.15c-9.17-4.85-13.48-9.53-12.71-19.87.43-5.66,2.19-11.24,3.6-16.81l-.47-.52c.26-.23.52-.43.77-.65,1.47-5.94,4.09-11.78,4.48-17.77,1.64-25.33,3.08-50.6-5.58-75.35-7-20.1-7.75-40.9-2.91-61.76a21.39,21.39,0,0,0,.94-4.15l-.91-1.19s.36-.28,1-.69c.52-19.87,1.43-39.75,1.71-59.62l-.81-.52.84-1.23c.09-7.59.08-15.17-.09-22.75-.47-21-3.95-42-6.11-63a4.42,4.42,0,0,0-.55-1.25h0l-1.23.13c-1.15,18.92-1.74,37.88-3.66,56.72-1,10.08-2.71,20-2.4,30.12l.58,1.38-.52.21a66.53,66.53,0,0,0,.74,7.1c1,6.33-.31,13.31-1.77,19.72a112.17,112.17,0,0,0-2.54,32.35,21.1,21.1,0,0,1,1.39,1.61l-1.21.89a131.63,131.63,0,0,0,2.36,16c2.77,13.21,2.11,26.1-.35,39.48-4.37,23.76-8.16,47.76-9.87,71.83-.67,9.38.89,19.12,3.06,28.61a19,19,0,0,1,1.53,1.14l-1,1.13c.55,2.33,1.14,4.64,1.73,6.93,3.27,12.59-.19,22.07-9.35,29.89a53.17,53.17,0,0,0-14,18.41c-1.8,3.8-7,10.83-11.22,12-6.68,1.9-13.5.33-20.41.34l-.73.69-.58-.66a31.42,31.42,0,0,0-3.61.32,15.84,15.84,0,0,1-5.51-.12l-.44.33-.34-.51a15.82,15.82,0,0,1-7.66-4.58l-.7.2a12,12,0,0,1-.29-1.37,15.16,15.16,0,0,1-1.61-16.19,61.71,61.71,0,0,1,14.34-18c9.22-8.1,15.31-17.36,18.37-27.73l-.66-1.31c.4-.21.8-.38,1.19-.57a61.48,61.48,0,0,0,1.4-21.79c-2.1-20.25-5.31-40.37-7.93-60.56-2.67-20.45-5.6-40.87-7.57-61.38-.62-6.41,1.74-13.07,2.34-19.66l-.63-1.36.77-.35c.55-6.43.9-12.9,1-19.35.09-6.87-1.12-13.83-.42-20.61a99.09,99.09,0,0,0-.5-24.13,39.89,39.89,0,0,1-2-3.54l1.34-.67a128.35,128.35,0,0,0-6.62-23.27c-8.59-22.39-13.69-45.51-14-69.43-.43-28.9-.32-57.83.5-86.72,0-.76.08-1.53.13-2.29l-.53-.27.65-1.37a93,93,0,0,1,5.45-23.14c4.42-12.17,6.37-24.6,7.19-37.14h0l-.17-1.49.25,0c.41-7,.49-14,.46-21a288.68,288.68,0,0,0-11.13-78.23h-.56c-9.38,24-25.13,42.57-40.4,61.51l.36,1.46c-.13,0-.76.18-1.78.38a51.46,51.46,0,0,0-6.33,11.16A137.62,137.62,0,0,1,120.64,347c-13.2,14-26.74,27.6-39.55,41.91a28.8,28.8,0,0,0-4.81,7.61l.25,1.45-.9.14a23.56,23.56,0,0,0-1.33,5.27C71.47,426.69,54,440.2,42.69,459c-5.32,8.9-15.68,15.38-14.78,6-.81,1-1.28,1.63-1.3,1.65l-1.17-.93c-4.51,6.46-14.32,5.79-12.29-.75l-.05-.06c-.66.21-6.43,5.7-9.42,0-1.4-2.69,1.83-6.82,3.64-9.26l-1-1.15,1.48-.24L8,453.6a3.56,3.56,0,0,0-.64.21c-10.75,4.38-3.8-10.17,1.34-16a139.31,139.31,0,0,0,13.86-19.17l-1.31,1.1-1-1.13c-3.32,3.16-6.29,6.88-10.09,9.27a7.87,7.87,0,0,1-3.87,1,4.64,4.64,0,0,1-4.84-4.89,7,7,0,0,1,1.08-4C8.25,412.7,14.11,405.38,21,399.4c5.43-4.67,12.32-7.88,19-10.82a28.83,28.83,0,0,0,7.36-4.68,9.18,9.18,0,0,1-.16-1.08l1.47-.13a41.94,41.94,0,0,0,5.74-7.12C68.33,354.36,77,330.72,87.23,307.79a78.59,78.59,0,0,1,15.87-23.3,105.1,105.1,0,0,0,12.51-15c-.06-.64-.1-1.29-.13-1.95l1.5-.07a130.76,130.76,0,0,0,12.53-24.73c3.08-7.93,7.55-15.3,11-23.09,4.83-10.93,9.38-22,14-33l.34-1.49.26.06,1.17-2.75c2.32-5.45,4.52-11,7.16-16.27,8.75-17.55,24.22-22.68,42.48-23.07a61.29,61.29,0,0,0,19.68-3.67l.14-1.49,2.94.29A74.9,74.9,0,0,0,248,126.22c7.88-6.7,7.61-15.78,5.64-24.79a68,68,0,0,1-3.39-6.49l1.38-.6c-.68-1.7-1.43-3.29-2-4.69-11.19-1.9-10.7-11.55-13.37-18.77s-1.45-13.1,6.74-15.85c-4.64-19.34,0-35.58,16.43-46.58a38.82,38.82,0,0,1,21.81-6.94h3v.11c7.55.58,15.06,3.35,22.28,7.8,16.84,10.37,21.3,26.35,17.33,45.56,7,2.3,7.57,8,6.16,13.82a92.25,92.25,0,0,1-6,15.85c-2.25,4.95-5.43,8.69-11.59,3.71-.31,1.27-.59,2.51-.82,3.74l1.42.46c-.1.32-.82,2.49-2.16,5.53a23.17,23.17,0,0,0,3.69,14.33c7.08,10.61,15.5,19.29,26.36,24.23l2.16-.44.29,1.47A50.53,50.53,0,0,0,358.75,141c3.55.22,7.07.85,10.61,1.17,24.61,2.18,39.44,13.93,44.06,38,.47,2.42,1.05,4.77,1.72,7.06l.15,0,.26,1.44c3.52,11.31,9.29,21.22,15.53,31.37,7.26,11.8,13,24.68,18.14,37.56A83.3,83.3,0,0,0,456,271.51l1.5.13c0,.11-.07.74-.25,1.73a37.72,37.72,0,0,0,5.61,6.32c9.54,8.56,15.56,19.37,20.51,31.21,10.05,24,24.18,45.68,41,65.53l1.5.09c0,.46-.1.89-.14,1.33,3.74,3.59,8.9,6,12.34,9.72,27.86,30.45,36.45,31.52,36.89,32.69a5.56,5.56,0,0,1-3.39,7.23,12.94,12.94,0,0,1-5.07.91c-3.15-.23-6.14-2.77-9.67-4.54h0c3.71,5.38,9.14,19.92,12.12,25.18,3.64,6.46.89,12.38-4.17,11.34l-.55.29c.12.47.35,1.39-1.89,2.42-3.73,1.71-6-1.1-6.79-1.83l-.26.16c1.06,5.62-7.08,5.07-12.76-4.2h0c-5.72,5.13-9.87,2.86-13.35-1.82C520.59,444,512,432.64,503.87,421a20.88,20.88,0,0,1-3.46-10.65,30.23,30.23,0,0,0-2-9.78l-.79,0,.15-1.49a40.3,40.3,0,0,0-7.93-11.37c-13.29-13.86-27.23-27.12-39.93-41.49-8.24-9.32-15-20-22-30.39-3.86-5.75-7.6-11.57-11.33-17.41l-1.29-.17.22-1.49c-4.3-6.75-8.59-13.51-13-20.2-5.33-8.11-11-16-16.49-24-4.92-7.12-9.88-14.25-15.83-22.85h-1.38c-1.65,7.35-2.7,12.9-4.25,18.29-2.81,9.8-5.88,19.53-9,29.23-5.44,16.7-4.77,33.57-2.12,50.64l.24,1.55h0C359,363,365.9,396.62,368.4,430.52c2.52,34.17.41,68.45-9.31,102.18-4.32,15-7.24,30.45-9.75,46l1.28.78c-.6,1-1.22,1.92-1.86,2.83-1.32,8.35-2.55,16.72-3.84,25.05s.18,17.07,1.55,25.44c.9,5.5,1.62,11,2.12,16.47l1,.71-.87,1.23a162.37,162.37,0,0,1-2.18,45c-5,25.55-10,51.13-14.31,76.82-1.1,6.57.42,13.58.76,20.4.26,5.3.43,10.61.89,15.89l.06.54c.49.27.77.45.8.46l-.57.89a9.47,9.47,0,0,0,1.5,3.59c1.38,1.85,4.05,2.81,5.23,4.73a53.93,53.93,0,0,0,28.29,23.3c5.42,2,9.48,9.06,12.86,15.17l1,.33a4.19,4.19,0,0,1,1.24.56l-.42-.75c-3.53-6.4-7.93-14.37-14.12-16.71a52.55,52.55,0,0,1-27.54-22.68,10.65,10.65,0,0,0-3.11-3,9.79,9.79,0,0,1-2.2-1.9,9.49,9.49,0,0,1-1.49-4.71c-.35-4-.54-8.05-.71-12l-.18-3.86c-.11-2.16-.33-4.36-.55-6.48-.49-4.77-1-9.27-.23-13.6,4.34-25.91,9.45-52.13,14.31-76.77,3.81-19.34,3.78-40.26-.11-64-1.37-8.35-2.78-17-1.55-25q.8-5.12,1.57-10.25c3.22-21.31,6.56-43.35,12.56-64.2,9.08-31.51,12.14-65.1,9.37-102.7-1.84-24.87-6.1-49.94-10.22-74.18-1.59-9.37-3.24-19.06-4.72-28.59-2.14-13.77-3.84-31.9,2.06-50,3.72-11.43,6.6-20.73,9.05-29.28,1.12-3.89,2-7.86,3-12.45.29-1.31.58-2.66.89-4.09l3.95,5.69,11,15.84q2.4,3.48,4.82,6.93c3.87,5.55,7.87,11.29,11.64,17,3.67,5.59,7.33,11.32,10.86,16.87,4.71,7.39,9.57,15,14.54,22.41l3.15,4.72c5.84,8.78,11.88,17.85,18.94,25.84,8.32,9.41,17.3,18.49,26,27.26,4.61,4.65,9.37,9.47,14,14.26,6.62,6.91,9.84,13.81,10.13,21.72a22.23,22.23,0,0,0,3.73,11.45c6.79,9.77,14,19.46,21,28.82l4.22,5.66c2.47,3.3,5,5,7.65,5.31a9.46,9.46,0,0,0,6.57-2.18c4.14,5.89,9.25,7.94,12.2,6.81a3.69,3.69,0,0,0,2.19-2.15,6.36,6.36,0,0,0,6.38.36,4.57,4.57,0,0,0,2.69-2.45,5.82,5.82,0,0,0,5-2.43c2-2.77,1.85-7.2-.45-11.26-1.19-2.11-2.83-5.85-4.57-9.82-1.63-3.71-3.29-7.49-4.85-10.62a13.25,13.25,0,0,0,5.57,2,14.5,14.5,0,0,0,5.67-1,7,7,0,0,0,4.3-9.16Z"/><polygon class="cls-2" points="383.23 859.97 383.36 858.55 383.35 858.55 383.23 859.97 383.23 859.97"/><path class="cls-2" d="M347.3,652a160.64,160.64,0,0,1-2.19,43.93c-4.86,24.66-10,50.9-14.32,76.86-.79,4.72-.29,9.64.2,14.39.22,2.09.44,4.25.54,6.33l.18,3.84c.17,3.82.35,7.77.68,11.66.66.34,1.2.63,1.59.86l-.06-.54c-.46-5.28-.63-10.59-.89-15.89-.34-6.82-1.86-13.83-.76-20.4,4.3-25.69,9.28-51.27,14.31-76.82a162.37,162.37,0,0,0,2.18-45l-.87,1.22Z"/><path class="cls-2" d="M382,859.42l.77.4.38.13-.63-1.15A1.59,1.59,0,0,0,382,859.42Z"/><path class="cls-2" d="M72.81,403.2c-1.88,15.5-10.37,26.48-19.36,38.11a174.65,174.65,0,0,0-12,16.92c-3.86,6.44-9.7,10.53-11.45,9.8-.47-.2-1.06-1.64-.06-5.65-.79,1-1.46,1.91-2,2.58-.9,9.42,9.46,2.94,14.78-6C54,440.2,71.47,426.69,74.3,403.38a23.56,23.56,0,0,1,1.33-5.27l-1.67.24A25.4,25.4,0,0,0,72.81,403.2Z"/><path class="cls-2" d="M333.09,812.81a9.81,9.81,0,0,0,1.41,2.89,12.49,12.49,0,0,0,2.86,2.54,8.29,8.29,0,0,1,2.3,2.08,55.46,55.46,0,0,0,29,23.92c4.49,1.69,8.17,7.54,11.23,13,.82.32,1.56.59,2.16.8-3.38-6.11-7.44-13.12-12.86-15.17a53.93,53.93,0,0,1-28.29-23.3c-1.18-1.92-3.85-2.88-5.23-4.73a9.47,9.47,0,0,1-1.5-3.59l-1,1.65Z"/><path class="cls-2" d="M147.16,303.58A136.89,136.89,0,0,1,119.55,346c-4.24,4.47-8.58,9-12.78,13.37-8.89,9.26-18.09,18.84-26.8,28.57a30.32,30.32,0,0,0-4.74,7.23L76,395l.26,1.48h0v0a28.8,28.8,0,0,1,4.81-7.61C93.9,374.6,107.44,361,120.64,347a137.62,137.62,0,0,0,27.91-42.85A51.46,51.46,0,0,1,154.88,293c-.58.11-1.29.23-2.1.35A51.9,51.9,0,0,0,147.16,303.58Z"/><path class="cls-2" d="M252,91.23c-.33-.75-.64-1.46-.9-2.13l-.31-.79-.83-.14c-7.8-1.33-9.16-6.61-10.72-12.72a49.49,49.49,0,0,0-1.49-5.09c-1.4-3.77-1.54-6.86-.44-9.17,1-2.09,3.1-3.68,6.24-4.74l1.3-.44-.32-1.33c-4.71-19.65.61-34.78,15.82-45a37.13,37.13,0,0,1,21-6.66V1.51A38.82,38.82,0,0,0,259.5,8.45c-16.39,11-21.07,27.24-16.43,46.58-8.19,2.75-9.39,8.67-6.74,15.85s2.18,16.87,13.37,18.77c.54,1.4,1.29,3,2,4.69l1.37-.6C252.69,92.87,252.33,92,252,91.23Z"/><path class="cls-2" d="M23.46,414.1a29.6,29.6,0,0,0-4.09,3.31C19.78,417.06,21.48,415.62,23.46,414.1Z"/><polygon class="cls-2" points="207.84 330.41 207.84 330.41 207.84 330.41 207.84 330.41"/><path class="cls-2" d="M209.89,307.86a289.36,289.36,0,0,0-11.07-78.22h-1.56a288.68,288.68,0,0,1,11.13,78.23c0,7,0,14-.46,21l1.51-.2C209.86,321.49,209.92,314.48,209.89,307.86Z"/><path class="cls-2" d="M195.54,228.5c-8.64,22.44-23.22,40.45-37.32,57.88l-2.76,3.42.47-.11.37,1.46c15.27-18.94,31-37.53,40.4-61.51h-1.13Z"/><path class="cls-2" d="M290.92,626.49c.41-11.81.81-23.85,1-35.92-.61-.35-1.11-.66-1.49-.89-.28,19.87-1.19,39.75-1.71,59.62.39-.26.9-.6,1.52-1C290.43,641,290.68,633.65,290.92,626.49Z"/><path class="cls-2" d="M27.77,460.21c-.73.44-1.58,1.69-3.25,4.16l-.31.45c-2.51,3.6-6.79,4.46-8.75,3.5-.36-.18-1.42-.72-1-2.64l-.31.32-1-1.07c-2,6.54,7.78,7.21,12.29.75l-1.17-.94C24.31,464.69,25.65,463,27.77,460.21Z"/><path class="cls-2" d="M292,587.1c.08-7.33.07-14.67-.1-22-.33-14.69-2.14-29.56-3.9-43.94-.77-6.28-1.56-12.78-2.22-19.16a2.83,2.83,0,0,0-.26-.92l-.61.77L283.7,501a4.42,4.42,0,0,1,.55,1.25c2.16,21,5.64,41.95,6.11,63,.17,7.58.18,15.16.09,22.75l.84-1.26Z"/><path class="cls-2" d="M7,452.94c.13-.11.43-.4.84-.83a4.57,4.57,0,0,0-1.06.31c-2.3.94-3.24.74-3.41.5-1.08-1.52,2.13-9.23,6.45-14.14a147.74,147.74,0,0,0,16-22.75c-1.18.89-2.36,1.82-3.3,2.59A139.31,139.31,0,0,1,8.73,437.79c-5.14,5.85-12.09,20.4-1.34,16A3.56,3.56,0,0,1,8,453.6l.32-.79A1.41,1.41,0,0,0,7,452.94Z"/><path class="cls-2" d="M294.93,804.57a51.13,51.13,0,0,0,2.76-12c1.54-23.63,3.28-50.41-5.65-75.94-6.78-19.38-7.75-39.88-2.87-60.93.1-.43.22-.85.35-1.27a15.68,15.68,0,0,0,.57-2.41l-.52.37-.92-1.18a21.39,21.39,0,0,1-.94,4.15c-4.84,20.86-4.13,41.66,2.91,61.76,8.66,24.75,7.22,50,5.58,75.35-.39,6-3,11.83-4.48,17.77.65-.55,1.3-1.07,2-1.54C294.07,807.29,294.5,805.92,294.93,804.57Z"/><path class="cls-2" d="M157.68,183.11c.51-1.18,1-2.38,1.51-3.57,1.75-4.18,3.57-8.51,5.62-12.61,7.44-14.93,20.13-21.79,41.16-22.24a62.78,62.78,0,0,0,19.86-3.64l-.35,0,.14-1.49h0a61.29,61.29,0,0,1-19.68,3.67c-18.26.39-33.73,5.52-42.48,23.07-2.64,5.3-4.84,10.82-7.16,16.27l-1.17,2.75,1.48.37C157,184.81,157.32,184,157.68,183.11Z"/><path class="cls-2" d="M118.48,267.44c0,.14,0,.28,0,.42a133,133,0,0,0,12.41-24.55c1.74-4.48,4-8.88,6.16-13.15,1.63-3.2,3.32-6.52,4.81-9.88,3.53-8,7-16.2,10.3-24.13,1.08-2.57,2.17-5.13,3.25-7.7l-1.22-.31.32-1.43c-4.65,11-9.2,22-14,33-3.44,7.79-7.91,15.16-11,23.09A130.76,130.76,0,0,1,117,267.5h0Z"/><path class="cls-2" d="M50.3,383.22a45.14,45.14,0,0,0,5.37-6.82c10.69-16.3,18.39-34.27,25.83-51.65,2.3-5.37,4.67-10.93,7.1-16.35a77.65,77.65,0,0,1,15.56-22.85,105,105,0,0,0,11.72-13.82c-.11-.72-.2-1.46-.27-2.21a105.1,105.1,0,0,1-12.51,15,78.59,78.59,0,0,0-15.87,23.3C77,330.72,68.33,354.36,54.42,375.57a41.94,41.94,0,0,1-5.74,7.12l1.52-.12A5.8,5.8,0,0,0,50.3,383.22Z"/><path class="cls-2" d="M249,127.37c7.42-6.31,8.11-14.44,6.87-22.42-.82-1.24-1.55-2.42-2.2-3.52,2,9,2.24,18.09-5.64,24.79a74.9,74.9,0,0,1-19.34,12.1l3,.31A77.62,77.62,0,0,0,249,127.37Z"/><path class="cls-2" d="M12.41,463.54a6.37,6.37,0,0,0-.8.5c-.94.67-3.15,2.23-4.77,1.84A3,3,0,0,1,5,464.15c-.9-1.74,1.81-5.38,3.26-7.33a11.12,11.12,0,0,0,1.54-2.43c-1.07,1.08-1.53,1.35-1.93,1.35a1.59,1.59,0,0,1-.5-.1l-.06-.06c-1.81,2.44-5,6.57-3.64,9.26,3,5.73,8.76.24,9.42,0l-1-1Z"/><path class="cls-2" d="M345,596.86c-.52,3.42-1,6.83-1.56,10.24-1.31,8.45.15,17.31,1.55,25.91q1.27,7.79,2,15.17c.54.34,1.08.69,1.62,1.06-.5-5.48-1.22-11-2.12-16.47-1.37-8.37-2.82-17.22-1.55-25.44s2.52-16.7,3.84-25.05c-.62.89-1.26,1.75-1.92,2.57Q345.9,590.88,345,596.86Z"/><path class="cls-2" d="M553.76,461.9c.12.83,0,1.35-.52,1.54-1.43.54-5.82-1-9.51-7l-.94-1.53-.07.06,1,1.41-1.24.85c5.68,9.27,13.82,9.82,12.76,4.2l-1.26.8C553.89,462.13,553.83,462,553.76,461.9Z"/><path class="cls-2" d="M275.73,596.85c1,6.18-.38,13.13-1.75,19.15a113.1,113.1,0,0,0-2.69,31.09c.64.59,1.17,1.13,1.61,1.59a112.17,112.17,0,0,1,2.54-32.35c1.46-6.41,2.8-13.39,1.77-19.72a66.53,66.53,0,0,1-.74-7.1l-1.46.54A66.22,66.22,0,0,0,275.73,596.85Z"/><path class="cls-2" d="M16.32,420.47a38.42,38.42,0,0,1-6.9,6.12,6.34,6.34,0,0,1-3.14.73,3.09,3.09,0,0,1-2.35-.91A3.18,3.18,0,0,1,3,424a5.58,5.58,0,0,1,.78-3.12c5.76-7.4,11.49-14.52,18.24-20.34,5.19-4.47,11.76-7.56,18.6-10.59a30.28,30.28,0,0,0,7.17-4.4c-.2-.65-.33-1.21-.42-1.65A28.83,28.83,0,0,1,40,388.58c-6.65,2.94-13.54,6.15-19,10.82-6.93,6-12.79,13.3-18.45,20.56a7,7,0,0,0-1.08,4,4.64,4.64,0,0,0,4.84,4.89,7.87,7.87,0,0,0,3.87-1c3.8-2.39,6.77-6.11,10.09-9.27l-1-1.14C18.29,418.43,17.3,419.45,16.32,420.47Z"/><path class="cls-2" d="M356.72,356.73c2,12.08,4.14,24.36,5.94,36.72.13-.06.24-.13.37-.18l.64,1.35h0l.64,1.36c-.41.19-.81.4-1.21.6,1.61,11.33,3,22.72,3.8,34.05,2.75,37.24-.27,70.49-9.25,101.65-4.3,14.94-7.24,30.45-9.74,45.85l.15-.24,1.28.78c2.51-15.52,5.43-31,9.75-46,9.72-33.73,11.83-68,9.31-102.18-2.5-33.9-9.4-67.49-14.69-101.17,0,0-.58.08-1.49.15C353.64,338.6,355.2,347.81,356.72,356.73Z"/><path class="cls-2" d="M416.45,295.28c-.58-.91-1.16-1.83-1.74-2.73-3.54-5.56-7.2-11.3-10.88-16.91-3.79-5.77-7.81-11.53-11.69-17.09-1.61-2.31-3.22-4.61-4.82-6.92-3.52-5.11-7.06-10.2-11-15.85l-5.52-7.95c-.08.32-.12.53-.14.61l-.25,1.19h-.18c5.95,8.6,10.91,15.73,15.83,22.85,5.52,8,11.16,15.88,16.49,24,4.39,6.69,8.68,13.45,13,20.2l.23-1.48Z"/><path class="cls-2" d="M210.44,875.81a14.58,14.58,0,0,1-3.55.09l-1.73,1.27a15.84,15.84,0,0,0,5.51.12,31.42,31.42,0,0,1,3.61-.32c-.33-.38-.73-.87-1.15-1.44C212.24,875.58,211.34,875.67,210.44,875.81Z"/><path class="cls-2" d="M498.78,397.54a42.53,42.53,0,0,0-7.84-11c-4.62-4.82-9.39-9.64-14-14.3-8.66-8.74-17.61-17.79-25.87-27.14-6.93-7.84-12.91-16.82-18.69-25.51q-1.58-2.37-3.16-4.73c-3.61-5.38-7.18-10.89-10.66-16.34-.64-.07-1.28-.14-1.92-.23,3.73,5.84,7.47,11.66,11.33,17.41,7,10.38,13.73,21.07,22,30.39,12.7,14.37,26.64,27.63,39.93,41.49A40.3,40.3,0,0,1,497.79,399l.15-1.5S498.26,397.52,498.78,397.54Z"/><path class="cls-2" d="M198.36,871.94l-1.64.47a15.82,15.82,0,0,0,7.66,4.58,13.51,13.51,0,0,1-1-1.9A14.26,14.26,0,0,1,198.36,871.94Z"/><path class="cls-2" d="M461.83,280.81c8.08,7.24,14.28,16.7,20.13,30.67,9.51,22.72,22.86,44.13,40.78,65.42,0-.19,0-.38.06-.57l1.5.1c-16.78-19.85-30.91-41.53-41-65.53-4.95-11.84-11-22.65-20.51-31.21a37.72,37.72,0,0,1-5.61-6.32c-.1.54-.24,1.2-.43,1.94A38.7,38.7,0,0,0,461.83,280.81Z"/><path class="cls-2" d="M195.62,868.32a13.58,13.58,0,0,1-1.55-5l-.82.2-.65-2.93c.47-.1,1-.24,1.5-.39a13.89,13.89,0,0,1,1.36-4.47,60.47,60.47,0,0,1,14-17.54c9.18-8.06,15.38-17.35,18.59-27.75l-.53.26-.67-1.34h0v0c-3.06,10.37-9.15,19.63-18.37,27.73a61.71,61.71,0,0,0-14.34,18,15.16,15.16,0,0,0,1.61,16.19A12.11,12.11,0,0,1,195.62,868.32Z"/><path class="cls-2" d="M281,501.44c-.34,5.52-.63,11.12-.91,16.54-.68,13-1.38,26.5-2.72,39.67-.26,2.55-.56,5.09-.86,7.63a160.12,160.12,0,0,0-1.58,21.62l.95-.36.58,1.38c-.31-10.13,1.38-20,2.4-30.12,1.92-18.84,2.51-37.8,3.66-56.72l1.23-.13-1.07-.85Z"/><path class="cls-2" d="M366.11,235.25c-1,4.54-1.83,8.47-2.92,12.26-2.44,8.51-5.31,17.78-9,29.18-5.88,18.05-4.48,36-2.41,49.86.81-.07,1.33-.14,1.48-.16l.23,1.41c-2.65-17.07-3.32-33.94,2.12-50.64,3.16-9.7,6.23-19.43,9-29.23,1.55-5.39,2.6-10.94,4.25-18.29h-1.54C366.9,231.63,366.49,233.49,366.11,235.25Z"/><path class="cls-2" d="M530.57,383.53a36.13,36.13,0,0,1,6.33,5.06c22.46,24.55,32.6,30.2,35.94,32.06.26.15.56.31.74.43a4,4,0,0,1-.21,2.88,4.09,4.09,0,0,1-2.36,2.11,11.73,11.73,0,0,1-4.48.83c-1.8-.13-3.75-1.29-5.81-2.53-1-.58-2-1.18-3.05-1.72l.24.25-1.15,1c3.53,1.77,6.52,4.31,9.67,4.54a12.94,12.94,0,0,0,5.07-.91,5.56,5.56,0,0,0,3.39-7.23c-.44-1.17-9-2.24-36.89-32.69-3.44-3.76-8.6-6.13-12.34-9.72-.07.62-.13,1.24-.22,1.84A55.68,55.68,0,0,0,530.57,383.53Z"/><path class="cls-2" d="M282.63,499.89l.28-.36-.52.05C282.49,499.72,282.57,499.82,282.63,499.89Z"/><path class="cls-2" d="M271.62,651.74A133,133,0,0,0,274,667.47c2.47,11.78,2.36,24.14-.36,38.89-3.62,19.68-8,45.64-9.89,72-.64,9.13.75,18.49,2.78,27.63.71.4,1.3.77,1.78,1.09-2.17-9.49-3.73-19.23-3.06-28.61,1.71-24.07,5.5-48.07,9.87-71.83,2.46-13.38,3.12-26.27.35-39.48a131.63,131.63,0,0,1-2.36-16l-1.21.88Z"/><path class="cls-2" d="M267.48,810.19c.52,2.17,1.07,4.33,1.62,6.47,3,11.61.19,20.63-8.88,28.37a54.81,54.81,0,0,0-14.36,18.91c-1.85,3.91-6.77,10.23-10.27,11.22-4.32,1.23-8.72.92-13.38.59-1.73-.12-3.49-.25-5.27-.29l.11.12-1.46,1.36c6.91,0,13.73,1.56,20.41-.34,4.21-1.19,9.42-8.22,11.22-12a53.17,53.17,0,0,1,14-18.41c9.16-7.82,12.62-17.3,9.35-29.89-.59-2.29-1.18-4.6-1.73-6.93l-1,1.13Z"/><path class="cls-2" d="M383.1,861.54l.12-1.5-.43-.22-.82-.28a1.11,1.11,0,0,0-.07.16,1.5,1.5,0,0,0,.81,1.68c-.11,0-.31-.11-.59-.2h0c1.24,2.64.14,5-1.77,6.91a5.81,5.81,0,0,1-.16,2.16c2.81-2.31,4.78-5.31,3.66-8.78a1.81,1.81,0,0,1-.55.09Z"/><path class="cls-2" d="M540.43,456.93a6.69,6.69,0,0,1-4.59,1.69c-1.8-.18-3.61-1.52-5.54-4.11l-4.22-5.66c-7-9.35-14.21-19-21-28.74a19.52,19.52,0,0,1-3.19-9.86,31.85,31.85,0,0,0-1.86-9.69h-.3c-.53,0-1,0-1.32,0a30.23,30.23,0,0,1,2,9.78A20.88,20.88,0,0,0,503.87,421c8.12,11.68,16.72,23,25.23,34.44,3.48,4.68,7.63,7,13.35,1.82l-1.24.84Z"/><path class="cls-2" d="M367.16,875c-12.23,4-35.82-4-44.49-12.85a85.91,85.91,0,0,0-21.43-15.43c-8.49-4.48-12.66-8.56-11.92-18.42A72,72,0,0,1,292,815.24l.66-2.55L292,812h0l-.54-.59c-1.41,5.57-3.17,11.15-3.6,16.81-.77,10.34,3.54,15,12.71,19.87a84.51,84.51,0,0,1,21.06,15.15c9.29,9.52,33.4,17.39,46,13.23l1.48-.52-1.56-1Z"/><path class="cls-2" d="M376.45,871a38.92,38.92,0,0,1-5.36,2.59,15,15,0,0,1-.86,1.94,42.63,42.63,0,0,0,7.14-3.33l-1-1.1Z"/><path class="cls-2" d="M562.72,459.88a1.89,1.89,0,0,0,0,1.14v0a3.17,3.17,0,0,1-1.07.67c-2.29,1.06-3.72-.12-4.88-1.31a4.25,4.25,0,0,0-.64-.55,7.9,7.9,0,0,0,.37.76l-1,.64c.77.73,3.06,3.54,6.79,1.83,2.24-1,2-1.95,1.89-2.42l-.78.41Z"/><path class="cls-2" d="M216.58,573.58a130.58,130.58,0,0,0-6.68-23.35C201,527,196.29,503.81,196,481.32c-.45-30.58-.29-58.93.5-86.66,0-.53.06-1.07.09-1.6l-1.46-.73c-.05.76-.11,1.53-.13,2.29-.82,28.89-.93,57.82-.5,86.72.35,23.92,5.45,47,14,69.43A128.35,128.35,0,0,1,215.12,574l1.34-.68Z"/><path class="cls-2" d="M305.8,10.69c15.36,9.47,20.81,23.86,16.65,44L322.18,56l1.27.42c5.12,1.69,6.77,5.52,5.17,12-1.35,5.49-3.79,10.85-5.94,15.59-1.42,3.13-2.79,4.75-4.3,5.11-1.33.31-3-.34-5-1.94l-1.83-1.48L311,88c-.3,1.19-.59,2.44-.83,3.73l0-.1,1.43.47c.23-1.23.51-2.47.82-3.74,6.16,5,9.34,1.24,11.59-3.71a92.25,92.25,0,0,0,6-15.85c1.41-5.79.83-11.52-6.16-13.82,4-19.21-.49-35.19-17.33-45.56C299.37,5,291.86,2.2,284.31,1.62V3.16C292.54,3.81,300,7.1,305.8,10.69Z"/><path class="cls-2" d="M555.56,424.78c2.09,3.07,4.85,9.36,7.29,14.91,1.77,4,3.45,7.86,4.71,10.09,2,3.46,1.73,6.53.64,8a2.84,2.84,0,0,1-2.55,1.18l.37.69-1.32.7c5.06,1,7.81-4.88,4.17-11.34-3-5.26-8.41-19.8-12.12-25.18l-1.15,1Z"/><path class="cls-2" d="M415.56,188.7h0l.27,1.48-1.27.26c3.61,10.93,9.26,20.65,15.25,30.39,7.67,12.48,13.42,25.87,18,37.33a86,86,0,0,0,6.59,13.7c0-.29.06-.46.06-.48l1.49.13a83.3,83.3,0,0,1-6.75-13.91C444,244.72,438.34,231.84,431.08,220c-6.24-10.15-12-20.06-15.53-31.37v0Z"/><path class="cls-2" d="M196.8,389.83a92.73,92.73,0,0,1,5.27-21.77c4.35-12,6.31-24.38,7.17-36.32l-1.23.16-.16-1.49h0c-.82,12.54-2.77,25-7.19,37.14a93,93,0,0,0-5.45,23.14l.63-1.34C196.17,389.51,196.48,389.68,196.8,389.83Z"/><path class="cls-2" d="M218.22,623c0-2.83-.14-5.7-.32-8.47a74,74,0,0,1-.11-12,99.79,99.79,0,0,0-.14-21.64c-.64-.83-1.26-1.72-1.85-2.64a99.09,99.09,0,0,1,.5,24.13c-.7,6.78.51,13.74.42,20.61-.08,6.45-.43,12.92-1,19.35l1.56-.69C217.83,635.24,218.15,629,218.22,623Z"/><path class="cls-2" d="M313.34,113.26c7.56,11.32,15.79,19.18,25.15,23.9l2.46-.51c-10.86-4.94-19.28-13.62-26.36-24.23a23.17,23.17,0,0,1-3.69-14.33c-.42,1-.91,2-1.46,3.14A23.86,23.86,0,0,0,313.34,113.26Z"/><path class="cls-2" d="M230.26,785.49c-1.39-13.3-3.27-26.75-5.1-39.77-.95-6.82-1.94-13.88-2.85-20.83q-.88-6.81-1.8-13.64c-2.08-15.61-4.23-31.76-5.76-47.68-.37-3.81.38-7.72,1.16-11.86.41-2.17.83-4.4,1.08-6.64l-.76.34-.63-1.36c-.6,6.59-3,13.25-2.34,19.66,2,20.51,4.9,40.93,7.57,61.38,2.62,20.19,5.83,40.31,7.93,60.56a61.48,61.48,0,0,1-1.4,21.79c.58-.28,1.15-.55,1.71-.8A63.69,63.69,0,0,0,230.26,785.49Z"/><path class="cls-2" d="M343.24,139.25a52.53,52.53,0,0,0,15.42,3.24c1.95.12,4,.37,5.89.62,1.53.2,3.11.4,4.68.54,24.75,2.2,38.32,13.9,42.72,36.83.47,2.42,1.05,4.78,1.72,7.08.49-.1,1-.21,1.47-.3-.67-2.29-1.25-4.64-1.72-7.06-4.62-24.11-19.45-35.86-44.06-38-3.54-.32-7.06-.95-10.61-1.17a50.53,50.53,0,0,1-15.35-3.31l.29,1.47Z"/><path class="cls-1" d="M313.34,113.26a23.86,23.86,0,0,1-3.9-12c-4.54,9.22-13.37,22.43-26.63,22.43-12.12,0-21.43-10.42-26.93-18.71,1.24,8,.55,16.11-6.87,22.42a77.62,77.62,0,0,1-17.33,11.26c1.78.2,3.85.43,6.1.7,9.58,1.14,22.21,2.92,27.49,4.82,1.33.49,2.69,1,4.12,1.6,7.95,3.17,16.95,6.76,27,2.2,6.89-3.12,27.56-7.73,39-10.14l3.12-.65C329.13,132.44,320.9,124.58,313.34,113.26Z"/><polygon class="cls-1" points="225.62 139.52 225.62 139.52 225.62 139.52 225.62 139.52"/><path class="cls-2" d="M231.68,138.63c-.61.29-1.22.56-1.83.82l7.93-.12C235.53,139.06,233.46,138.83,231.68,138.63Z"/><path class="cls-2" d="M339.65,137.74c-.39-.18-.77-.39-1.16-.58l-3.12.65Z"/><path class="cls-2" d="M268.28,148.53c4.37,1.75,9.33,3.72,14.73,4.36v-.1h3v.3h.51a26.62,26.62,0,0,0,11.12-2.41c8.64-3.91,41.36-10.59,45.6-11.44-.84-.32-1.67-.67-2.49-1-8.61,1.77-35.8,7.51-43.73,11.1-12.51,5.66-23.5-.59-32.26-3.75-7-2.53-27.75-4.87-35.84-5.72q-1.54.65-3.09,1.2c3.35.32,30.43,3,38.42,5.93C265.54,147.44,266.87,148,268.28,148.53Z"/><path class="cls-2" d="M225.76,138l-.14,1.49c1-.37,2.06-.77,3.08-1.2Z"/><path class="cls-2" d="M343.4,137.68h0l-.29-1.47-2.16.44c.81.36,1.62.71,2.45,1Z"/><path class="cls-2" d="M225.62,139.52l-.14,1.49.35,0q1.54-.56,3.09-1.2Z"/><path class="cls-2" d="M339.65,137.74l3.75-.06c-.83-.32-1.64-.67-2.45-1l-2.46.51C338.88,137.35,339.26,137.56,339.65,137.74Z"/><path class="cls-2" d="M340.75,138.22c.82.36,1.65.71,2.49,1l.45-.1-.29-1.47h0Z"/><path class="cls-2" d="M229.85,139.45c.61-.26,1.22-.53,1.83-.82l-3-.31c-1,.43-2,.83-3.08,1.2h0Z"/><path class="cls-2" d="M264.76,145.57c8.76,3.16,19.75,9.41,32.26,3.75,7.93-3.59,35.12-9.33,43.73-11.1-.37-.16-.74-.31-1.1-.48l-4.28.07c-11.4,2.41-32.07,7-39,10.14-10.07,4.56-19.07,1-27-2.2-1.43-.57-2.79-1.11-4.12-1.6-5.28-1.9-17.91-3.68-27.49-4.82l-7.93.12-.93.4C237,140.7,257.77,143,264.76,145.57Z"/><path class="cls-2" d="M343.4,137.68h0l-3.75.06c.36.17.73.32,1.1.48Z"/><path class="cls-2" d="M229.85,139.45l-4.23.07h0l3.3.33Z"/><path class="cls-1" d="M412,180.48c-4.4-22.93-18-34.63-42.72-36.83-1.57-.14-3.15-.34-4.68-.54-1.93-.25-3.94-.5-5.89-.62a52.53,52.53,0,0,1-15.42-3.24c-4.24.85-37,7.53-45.6,11.44a26.62,26.62,0,0,1-11.12,2.41H286v73.55h82l.5-2.15.16.23c2.72-7.86,12.38-28.48,40.31-36.07,1.5-.4,3.07-.76,4.68-1.09C413,185.26,412.42,182.9,412,180.48Z"/><path class="cls-1" d="M268.28,148.53c-1.41-.56-2.74-1.09-4-1.55-8-2.89-35.07-5.61-38.42-5.93A62.78,62.78,0,0,1,206,144.69c-21,.45-33.72,7.31-41.16,22.24-2.05,4.1-3.87,8.43-5.62,12.61-.5,1.19-1,2.39-1.51,3.57-.36.85-.71,1.7-1.07,2.54q2,.51,3.9,1.08c32.13,9.75,37.14,33.73,37.89,39.91H283V152.89C277.61,152.25,272.65,150.28,268.28,148.53Z"/><path class="cls-1" d="M368,226.64h.05c.14-.5.34-1.16.61-1.92l-.16-.23Z"/><path class="cls-2" d="M156.61,185.65c-.15.35-.29.7-.44,1l4.34,0Q158.62,186.16,156.61,185.65Z"/><path class="cls-2" d="M286,229.64h81.33c.11-.5.23-1,.34-1.5H286Z"/><path class="cls-2" d="M283,228.14H198.4l.08.26c.11.41.22.82.34,1.24H283Z"/><path class="cls-2" d="M414,188.69c-.12-.37-.22-.75-.33-1.13-1.61.33-3.18.69-4.68,1.09Z"/><path class="cls-2" d="M156,187c-.19.47-.39.94-.59,1.41,38.79,9.47,40.07,38.48,40.1,39.72v.33l.09-.22,1.1-2.87C195.48,217.6,189,195.19,156,187Z"/><path class="cls-2" d="M369.74,226.25l1.09,1.58c1.14-4.45,9.21-30.5,43.73-37.39-.16-.47-.31-.95-.46-1.43C381.44,195.61,371.85,219.37,369.74,226.25Z"/><path class="cls-2" d="M415.29,187.23l-.15,0c.14.47.27.94.41,1.41Z"/><path class="cls-2" d="M368.88,229.64h1.38l-1-1.49C369.1,228.65,369,229.14,368.88,229.64Z"/><path class="cls-2" d="M154.54,186.68h0c.2-.47.4-.93.59-1.4l-.26-.06-.34,1.49v0Z"/><path class="cls-2" d="M196.7,229.64h.56l-.23-.83C196.93,229.09,196.81,229.36,196.7,229.64Z"/><path class="cls-2" d="M198.48,228.4l-.08-.26H197a21.36,21.36,0,0,0-.3-2.73l-1.1,2.87-.09.22,0,1.14h1.13c.11-.28.23-.55.33-.83l.23.83h1.56C198.7,229.22,198.59,228.81,198.48,228.4Z"/><path class="cls-2" d="M155.43,188.45c.2-.47.4-.94.59-1.41l-1.48-.36v0l-.32,1.43Z"/><path class="cls-2" d="M367.68,228.14c-.11.5-.23,1-.34,1.5h1.54c.12-.5.22-1,.34-1.5Z"/><path class="cls-2" d="M370.69,228.44c0-.08.06-.29.14-.61l-1.09-1.58c-.37,1.19-.52,1.89-.52,1.89l1,1.49h.18Z"/><path class="cls-2" d="M414.56,190.44l1.27-.26-.27-1.48-1.46.31C414.25,189.49,414.4,190,414.56,190.44Z"/><path class="cls-2" d="M156.17,186.69c.15-.34.29-.69.44-1l-1.48-.37c-.19.47-.39.93-.59,1.4Z"/><path class="cls-2" d="M414,188.69h1.56v0c-.14-.47-.27-.94-.41-1.41-.5.09-1,.2-1.47.3C413.78,187.94,413.88,188.32,414,188.69Z"/><path class="cls-2" d="M283,226.64H198.4c-.75-6.18-5.76-30.16-37.89-39.91l-4.34,0L156,187c33,8.15,39.46,30.56,40.71,38.37l.51-1.33,1.16,4.06H283Z"/><path class="cls-2" d="M368,226.64H286v1.5h81.67l.08-.34Z"/><path class="cls-2" d="M368.68,224.72l1.06,1.53c2.11-6.88,11.7-30.64,44.36-37.24,0-.11-.07-.21-.1-.32l-5,0C381.06,196.24,371.4,216.86,368.68,224.72Z"/><polygon class="cls-2" points="154.54 186.68 154.54 186.68 154.54 186.68 154.54 186.68"/><path class="cls-2" d="M154.54,186.68h0L156,187l.15-.35Z"/><path class="cls-2" d="M368.07,226.64H368l-.26,1.16-.08.34h1.54s.15-.7.52-1.89l-1.06-1.53C368.41,225.48,368.21,226.14,368.07,226.64Z"/><path class="cls-2" d="M196.73,225.41a21.36,21.36,0,0,1,.3,2.73h1.37l-1.16-4.06Z"/><path class="cls-2" d="M415.56,188.7H414c0,.11.06.21.1.32Z"/><path class="cls-1" d="M447.83,258.16c-4.6-11.46-10.35-24.85-18-37.33-6-9.74-11.64-19.46-15.25-30.39C380,197.33,372,223.38,370.83,227.83l5.52,7.95c3.91,5.65,7.45,10.74,11,15.85,1.6,2.31,3.21,4.61,4.82,6.92,3.88,5.56,7.9,11.32,11.69,17.09,3.68,5.61,7.34,11.35,10.88,16.91.58.9,1.16,1.82,1.74,2.73l1.11.15c11.22,1.4,20.19-.46,26.7-5.57,7.37-5.78,9.5-14.24,10.05-17.31,0-.27.08-.5.11-.69A86,86,0,0,1,447.83,258.16Z"/><path class="cls-2" d="M454.7,272.31l-.28-.45c0,.19-.07.42-.11.69Z"/><path class="cls-2" d="M417.5,296.92l1.05,1.64a58.06,58.06,0,0,0,5.92.33c8.75,0,16-2.24,21.67-6.69a31.13,31.13,0,0,0,10.65-16.89c-.4-.53-.8-1.07-1.17-1.62C454.2,280.47,447.43,300.58,417.5,296.92Z"/><path class="cls-2" d="M416.45,295.28l.39.6.72-.45Z"/><path class="cls-2" d="M457.47,271.64l-1.5-.13c.4.63.81,1.25,1.25,1.86C457.4,272.38,457.46,271.75,457.47,271.64Z"/><path class="cls-2" d="M415.56,296.67h0l-.22,1.49,1.29.17-1.07-1.66Z"/><path class="cls-2" d="M417.5,296.92c-.64-.08-1.27-.15-1.94-.25l1.07,1.66c.64.09,1.28.16,1.92.23Z"/><path class="cls-2" d="M416.84,295.88l-.39-.6-.66-.09-.23,1.48h0Z"/><path class="cls-2" d="M454.42,271.86l.28.45,1.27-.8a20.34,20.34,0,0,1-.35,2.18c.37.55.77,1.09,1.17,1.62.19-.74.33-1.4.43-1.94-.44-.61-.85-1.23-1.25-1.86l-1.49-.13S454.46,271.57,454.42,271.86Z"/><path class="cls-2" d="M444.26,289.86c-6.51,5.11-15.48,7-26.7,5.57l-.72.45.66,1c29.93,3.66,36.7-16.45,38.12-23.23-.32-.46-.62-.92-.92-1.38l-.39.24C453.76,275.62,451.63,284.08,444.26,289.86Z"/><polygon class="cls-2" points="415.56 296.67 415.56 296.67 415.56 296.67 415.56 296.67"/><path class="cls-2" d="M415.56,296.67h0c.67.1,1.3.17,1.94.25l-.66-1Z"/><path class="cls-2" d="M456,271.51l-1.27.8c.3.46.6.92.92,1.38A20.34,20.34,0,0,0,456,271.51Z"/><path class="cls-1" d="M195.53,228.17c0-1.24-1.31-30.25-40.1-39.72-1.08,2.57-2.17,5.13-3.25,7.7-3.33,7.93-6.77,16.13-10.3,24.13-1.49,3.36-3.18,6.68-4.81,9.88-2.17,4.27-4.42,8.67-6.16,13.15a133,133,0,0,1-12.41,24.55c0,.2,0,.39,0,.58.54,7.89,3.35,13.79,8.37,17.53,9.05,6.75,22.92,4.9,27.5,4l1.05-.21,2.76-3.42c14.1-17.43,28.68-35.44,37.32-57.88Z"/><path class="cls-2" d="M155,290.37a1.83,1.83,0,0,0,.13-.16l.33-.41-1.05.21Z"/><path class="cls-2" d="M117.16,269.89c-.42.62-.85,1.24-1.28,1.84,1.09,7.28,4.18,12.88,9.25,16.65,5.92,4.41,13.43,5.56,19.64,5.56a55.41,55.41,0,0,0,8-.6c.4-.58.83-1.16,1.26-1.73C146.11,293,119.81,295.6,117.16,269.89Z"/><path class="cls-2" d="M118.54,268.44c0-.19,0-.38,0-.58-.08.14-.17.27-.26.4Z"/><path class="cls-2" d="M156.3,291.15h0c-.49.6-1,1.22-1.42,1.84,1-.2,1.65-.35,1.78-.38l-.36-1.46Z"/><path class="cls-2" d="M115.48,267.57c0,.66.07,1.31.13,1.95.46-.67.92-1.34,1.37-2Z"/><path class="cls-2" d="M117.16,269.89c-.08-.78-.15-1.57-.18-2.39h0c-.45.68-.91,1.35-1.37,2,.07.75.16,1.49.27,2.21C116.31,271.13,116.74,270.51,117.16,269.89Z"/><path class="cls-2" d="M155.46,289.8l-.33.41a1.83,1.83,0,0,1-.13.16l1.3.78h0l-.37-1.46Z"/><path class="cls-2" d="M118.5,267.86c0-.14,0-.28,0-.42l-1.5.06,1.26.76C118.33,268.13,118.42,268,118.5,267.86Z"/><path class="cls-2" d="M156.3,291.15s-.84.21-2.26.46c-.43.57-.86,1.15-1.26,1.73.81-.12,1.52-.24,2.1-.35.46-.62.93-1.24,1.42-1.84Z"/><path class="cls-2" d="M126.91,286c-5-3.74-7.83-9.64-8.37-17.53l-.3-.18-1.08,1.63c2.65,25.71,29,23.11,36.88,21.72.31-.42.63-.83,1-1.24l-.59-.36C149.83,290.87,136,292.72,126.91,286Z"/><path class="cls-2" d="M117,267.5c0,.82.1,1.61.18,2.39l1.08-1.63Z"/><path class="cls-2" d="M156.3,291.15h0l-1.3-.78c-.33.41-.65.82-1,1.24C155.46,291.36,156.3,291.15,156.3,291.15Z"/><path class="cls-1" d="M482,311.48c-5.85-14-12-23.43-20.13-30.67a38.7,38.7,0,0,1-5-5.5,31.13,31.13,0,0,1-10.65,16.89c-5.65,4.45-12.92,6.69-21.67,6.69a58.06,58.06,0,0,1-5.92-.33c3.48,5.45,7.05,11,10.66,16.34q1.59,2.36,3.16,4.73c5.78,8.69,11.76,17.67,18.69,25.51,8.26,9.35,17.21,18.4,25.87,27.14,4.62,4.66,9.39,9.48,14,14.3a42.53,42.53,0,0,1,7.84,11h.69c3.17,0,10.63-.49,16.22-5.23,3.94-3.34,6.27-8.22,7-14.49,0-.31.07-.61.09-.93C504.82,355.61,491.47,334.2,482,311.48Z"/><path class="cls-2" d="M498.78,397.54c.07.14.15.28.21.42l.48-.41Z"/><path class="cls-2" d="M523.16,377.4h0l-.41-.49c0,.32-.06.62-.09.93Z"/><path class="cls-2" d="M499.47,399.06c.21.5.4,1,.58,1.5,3.84,0,11.5-.82,17.55-5.93,4.24-3.58,6.86-8.6,7.84-14.94-.46-.4-.91-.82-1.34-1.26C521.75,397.66,504.89,399.1,499.47,399.06Z"/><path class="cls-2" d="M497.64,400.48l.79,0c-.2-.52-.42-1-.64-1.54Z"/><path class="cls-2" d="M525.66,377.85c0-.44.11-.87.14-1.33l-1.5-.09h0A18.16,18.16,0,0,0,525.66,377.85Z"/><path class="cls-2" d="M500.05,400.56c-.18-.5-.37-1-.58-1.5-1.06,0-1.68-.07-1.68-.07l1.2-1c-.06-.14-.14-.28-.21-.42-.52,0-.82,0-.84-.05l-.15,1.5c.22.51.44,1,.64,1.54.34,0,.79,0,1.32,0Z"/><path class="cls-2" d="M524.1,378.43c.43.44.88.86,1.34,1.26.09-.6.15-1.22.22-1.84a18.16,18.16,0,0,1-1.36-1.42C524.25,377.12,524.18,377.78,524.1,378.43Z"/><path class="cls-2" d="M522.74,376.9l.41.49h0l1.14-1h0l-1.5-.1C522.79,376.52,522.76,376.71,522.74,376.9Z"/><path class="cls-2" d="M515.69,392.32c-5.59,4.74-13.05,5.25-16.22,5.23L499,398c.17.37.32.73.48,1.1,5.42,0,22.28-1.4,24.63-20.63-.32-.33-.64-.67-.94-1l-.51.43C522,384.1,519.63,389,515.69,392.32Z"/><path class="cls-2" d="M524.1,378.43c.08-.65.15-1.31.2-2l-1.14,1C523.46,377.76,523.78,378.1,524.1,378.43Z"/><path class="cls-2" d="M497.79,399s.62.06,1.68.07c-.16-.37-.31-.73-.48-1.1Z"/><path class="cls-1" d="M144.77,293.94c-6.21,0-13.72-1.15-19.64-5.56-5.07-3.77-8.16-9.37-9.25-16.65a105,105,0,0,1-11.72,13.82A77.65,77.65,0,0,0,88.6,308.4c-2.43,5.42-4.8,11-7.1,16.35-7.44,17.38-15.14,35.35-25.83,51.65a45.14,45.14,0,0,1-5.37,6.82c0,.1,0,.19.06.31a14.93,14.93,0,0,0,5.4,8.56C60,395.32,66.09,396.4,74,395.33l1.28-.19A30.32,30.32,0,0,1,80,387.91c8.71-9.73,17.91-19.31,26.8-28.57,4.2-4.37,8.54-8.9,12.78-13.37a136.89,136.89,0,0,0,27.61-42.39,51.9,51.9,0,0,1,5.62-10.24A55.41,55.41,0,0,1,144.77,293.94Z"/><polygon class="cls-1" points="76.27 396.49 76.27 396.49 76.27 396.49 76.27 396.49"/><path class="cls-2" d="M50.3,383.22l-.18.18.24.13C50.34,383.41,50.32,383.32,50.3,383.22Z"/><path class="cls-2" d="M74.94,395.82c.1-.22.19-.45.29-.68l-1.28.19Z"/><path class="cls-2" d="M49,384.45c-.41.38-.83.75-1.25,1.1a17.65,17.65,0,0,0,6.09,8.88c3.72,2.87,8.59,4.3,14.55,4.3a43.34,43.34,0,0,0,5.53-.38c.18-.53.37-1.06.58-1.59C55,399.57,50.16,388.81,49,384.45Z"/><path class="cls-2" d="M48.68,382.69l-1.47.13a9.18,9.18,0,0,0,.16,1.08C47.82,383.51,48.26,383.11,48.68,382.69Z"/><path class="cls-2" d="M76.53,398l-.25-1.45c-.24.53-.45,1.05-.65,1.59Z"/><path class="cls-2" d="M76.27,396.49,76,395l-.78.13c-.1.23-.19.46-.29.68Z"/><path class="cls-2" d="M74.54,396.76c-.21.53-.4,1.06-.58,1.59l1.67-.24c.2-.54.41-1.06.65-1.59v0C75.68,396.6,75.11,396.68,74.54,396.76Z"/><path class="cls-2" d="M49,384.45a11.76,11.76,0,0,1-.34-1.75l1.42.7.18-.18a5.8,5.8,0,0,1-.1-.65l-1.52.12c-.42.42-.86.82-1.31,1.21.09.44.22,1,.42,1.65C48.21,385.2,48.63,384.83,49,384.45Z"/><path class="cls-2" d="M74,395.33c-7.86,1.07-14,0-18.19-3.24a14.93,14.93,0,0,1-5.4-8.56l-.24-.13q-.54.54-1.08,1.05c1.12,4.36,5.93,15.12,25.5,12.31.13-.31.26-.63.4-.94Z"/><path class="cls-2" d="M74.54,396.76c.57-.08,1.14-.16,1.73-.27h0l-1.33-.67C74.8,396.13,74.67,396.45,74.54,396.76Z"/><path class="cls-2" d="M50.12,383.4l-1.42-.7a11.76,11.76,0,0,0,.34,1.75Q49.58,383.94,50.12,383.4Z"/><path class="cls-1" d="M274.65,252c-5.47,2.88-8,12.13-10.87,22.84-5.5,20.33-12.89,47.55-46.15,55.45a79.15,79.15,0,0,1-8.39,1.5c-.86,11.94-2.82,24.33-7.17,36.32a92.73,92.73,0,0,0-5.27,21.77c18.44,9,32.4,24.9,43.51,41.56v-1.11H283V248.51A38.28,38.28,0,0,0,274.65,252Z"/><path class="cls-1" d="M356.72,356.73c-1.52-8.92-3.08-18.13-4.5-27.23a43.69,43.69,0,0,1-13.77-1.37C326.52,325,311.07,315.52,305.51,288c-5.12-25.3-9.47-36.28-15.51-39.15a8.46,8.46,0,0,0-4-.77v182.2h36.8v2.37c9.42-15.8,21.12-30.23,39.85-39.2C360.86,381.09,358.77,368.81,356.72,356.73Z"/><polygon class="cls-1" points="207.84 330.41 207.84 330.41 207.84 330.41 207.84 330.41 207.84 330.41"/><path class="cls-2" d="M209.34,330.38c0,.45-.06.91-.1,1.36a79.15,79.15,0,0,0,8.39-1.5Z"/><path class="cls-2" d="M346.19,328l-7.74.14a43.69,43.69,0,0,0,13.77,1.37c-.08-.47-.15-.94-.23-1.4V328A37.15,37.15,0,0,1,346.19,328Z"/><path class="cls-2" d="M274,250.62A38.75,38.75,0,0,1,283,247v-1.52a38.37,38.37,0,0,0-9.76,3.85c-6.63,3.49-9.29,13.33-12.37,24.71-6,22.18-13.46,49.69-51.44,54.69q0,.76-.09,1.53C268.79,322.59,256.17,260,274,250.62Z"/><path class="cls-2" d="M308.45,287.41c-5.4-26.71-10.05-37.89-17.16-41.27a11.51,11.51,0,0,0-5.28-1v1.49c9.51-.24,14.77,10.49,21,41.13,6.71,33.23,27.9,39.42,39.21,40.28l5.77-.1c-.06-.44-.13-.89-.2-1.34C344.85,327.1,316.43,326.89,308.45,287.41Z"/><path class="cls-2" d="M207.68,328.92l.17,1.49c0-.51.05-1,.08-1.52Z"/><path class="cls-2" d="M353.71,329.35h0l-.24-1.55v.07C353.55,328.36,353.63,328.85,353.71,329.35Z"/><path class="cls-2" d="M351.76,326.55c.07.45.14.9.2,1.34l1.52,0v-.07l-.23-1.41C353.09,326.41,352.57,326.48,351.76,326.55Z"/><path class="cls-2" d="M209.35,330.22q.06-.77.09-1.53l-1.51.2c0,.5-.05,1-.08,1.52h0Z"/><path class="cls-2" d="M352,328v.08c.08.46.15.93.23,1.4.91-.07,1.44-.14,1.49-.15-.08-.5-.16-1-.23-1.48C353.48,327.87,352.94,328,352,328Z"/><path class="cls-2" d="M207.85,330.41l.16,1.49,1.23-.16c0-.45.07-.91.1-1.36Z"/><path class="cls-2" d="M217.63,330.24c33.26-7.9,40.65-35.12,46.15-55.45,2.9-10.71,5.4-20,10.87-22.84a38.28,38.28,0,0,1,8.36-3.44V247a38.75,38.75,0,0,0-9.06,3.66c-17.78,9.36-5.16,72-64.6,79.6,0,0,0,.11,0,.16Z"/><path class="cls-2" d="M352,328a.69.69,0,0,0,0-.13l-5.77.1A37.15,37.15,0,0,0,352,328Z"/><path class="cls-2" d="M290,248.85c6,2.87,10.39,13.85,15.51,39.15,5.56,27.52,21,37,32.94,40.13l7.74-.14c-11.31-.86-32.5-7.05-39.21-40.28-6.2-30.64-11.46-41.37-21-41.13v1.5A8.46,8.46,0,0,1,290,248.85Z"/><path class="cls-2" d="M353.48,327.87l-1.52,0a.69.69,0,0,1,0,.13C352.94,328,353.48,327.87,353.48,327.87Z"/><path class="cls-2" d="M209.35,330.22l-1.5.19h0l1.49,0C209.34,330.33,209.35,330.27,209.35,330.22Z"/><polygon class="cls-1" points="363.67 394.62 363.67 394.62 363.67 394.62 363.67 394.62"/><path class="cls-2" d="M288.68,494.33c-1.71,2.36-3.08,4.17-3.94,5.29l.32.71.15.28a4.73,4.73,0,0,1,.27.51,279,279,0,0,0,17.83-26.24Z"/><path class="cls-2" d="M361.65,397.3c.48-.25,1-.49,1.45-.72-.05-.34-.09-.68-.14-1Z"/><path class="cls-2" d="M307.28,464.84c14.1-26.35,25.54-55.2,55.6-69.83-.07-.52-.14-1-.22-1.56-18.73,9-30.43,23.4-39.85,39.2v.63h-.38c-3.93,6.64-7.47,13.51-11,20.32-1.78,3.47-3.63,7.06-5.5,10.54a267.32,267.32,0,0,1-23,35.39l1.7-.18.12.24,3.95-5.26A263.56,263.56,0,0,0,307.28,464.84Z"/><polygon class="cls-2" points="283.7 500.95 283.7 500.95 283.7 500.95 283.7 500.95"/><path class="cls-2" d="M285.48,501.12a4.73,4.73,0,0,0-.27-.51l-.15-.28-.32-.71c-.66.86-1,1.33-1,1.33h0l1.17.94Z"/><path class="cls-2" d="M284.73,499.59l-.12-.24-1.7.18-.28.36.1.13-.1.08,1.07.85h0Z"/><path class="cls-2" d="M363.1,396.58c.4-.2.8-.41,1.21-.6l-.64-1.36-.71.95C363,395.9,363.05,396.24,363.1,396.58Z"/><path class="cls-2" d="M363.67,394.62l-.64-1.35c-.13.05-.24.12-.37.18.08.52.15,1,.22,1.56Z"/><path class="cls-2" d="M284.73,499.59v0c.86-1.12,2.23-2.93,3.94-5.29Z"/><path class="cls-2" d="M362.88,395c-30.06,14.63-41.5,43.48-55.6,69.83a263.56,263.56,0,0,1-18.6,29.49l14.63-19.45c1.78-3,3.56-6.1,5.29-9.33,1.87-3.5,3.73-7.1,5.52-10.58,11.4-22.12,23.17-45,47.53-57.67l1.31-1.73C362.93,395.38,362.91,395.2,362.88,395Z"/><path class="cls-2" d="M363,395.57l.71-.95h0l-.79.39C362.91,395.2,362.93,395.38,363,395.57Z"/><path class="cls-2" d="M283.7,501s.38-.47,1-1.33v0Z"/><path class="cls-2" d="M258,464.84A268.64,268.64,0,0,0,280.82,500l.2.25,0-.55,1.34-.14a267,267,0,0,1-23.09-35.44c-5.07-9.49-10.85-20.29-17.75-30.86h-1.24v-1.5h0v-.39c-11.11-16.66-25.07-32.52-43.51-41.56-.05.54-.11,1.07-.16,1.6C226.42,406.28,244,438.68,258,464.84Z"/><path class="cls-2" d="M196.58,392.47l0,.59.8.4Z"/><path class="cls-2" d="M281,500.27l-.2-.25-15.95-20.37a265.34,265.34,0,0,0,15.52,22.24l.56-.45c0-.15,0-.3,0-.45Z"/><path class="cls-2" d="M195.2,390.71h0v0l-.65,1.37.53.27c0-.54.07-1.08.11-1.61Z"/><path class="cls-2" d="M196.64,391.43c.05-.53.11-1.06.16-1.6-.32-.15-.63-.32-1-.48l-.63,1.34v0C195.69,390.94,196.16,391.19,196.64,391.43Z"/><path class="cls-2" d="M281.05,499.72l0,.55.54.68-.54-.68,0,.72c0,.15,0,.3,0,.45l1.68-1.34-.1-.08.1-.13c-.06-.07-.14-.17-.24-.31Z"/><path class="cls-2" d="M196.58,392.47l-1.38-1.75c0,.53-.08,1.07-.11,1.61l1.46.73Z"/><path class="cls-2" d="M282.63,500.1l.1-.08-.1-.13-.1.13Z"/><path class="cls-2" d="M256.66,465.55c2.67,5,5.49,9.76,8.21,14.1L280.82,500A268.64,268.64,0,0,1,258,464.84c-14-26.16-31.56-58.56-61.34-73.41,0,.35,0,.69-.06,1l.77,1C226.14,408.51,243,440.05,256.66,465.55Z"/><path class="cls-2" d="M281,500.27h0l-.2-.25Z"/><polygon class="cls-2" points="195.2 390.71 195.21 390.71 195.21 390.71 195.2 390.71"/><path class="cls-2" d="M281.56,501l-.54-.68h0Z"/><path class="cls-2" d="M195.21,390.71h0l1.38,1.75c0-.35,0-.69.06-1C196.16,391.19,195.69,390.94,195.21,390.71Z"/><path class="cls-2" d="M284.51,431.78H283v-1.5H238.7l1.61,1.11c.08.13.16.26.25.39Z"/><path class="cls-2" d="M287.67,430.28v1.5H240.56c.34.5.69,1,1,1.5h83.84l.39-.63v-2.37Z"/><path class="cls-2" d="M322.81,433.28v-.63l-.38.63Z"/><path class="cls-2" d="M240.31,431.39v.39h.25C240.47,431.65,240.39,431.52,240.31,431.39Z"/><path class="cls-2" d="M240.31,431.78v1.5h1.24c-.32-.51-.66-1-1-1.5Z"/><path class="cls-1" d="M345.11,695.92A160.64,160.64,0,0,0,347.3,652l-1.21-.82c-25.18-16.47-48.38-4.09-54.78,0l-1.22.82a15.68,15.68,0,0,1-.57,2.41c-.13.42-.25.84-.35,1.27-4.88,21.05-3.91,41.55,2.87,60.93,8.93,25.53,7.19,52.31,5.65,75.94a51.13,51.13,0,0,1-2.76,12c-.43,1.35-.86,2.72-1.24,4.1,14.48-10.4,32.35-2.94,38.7.33-.33-3.89-.51-7.84-.68-11.66l-.18-3.84c-.1-2.08-.32-4.24-.54-6.33-.49-4.75-1-9.67-.2-14.39C335.14,746.82,340.25,720.58,345.11,695.92Z"/><path class="cls-2" d="M347.16,650.08c-.06-.63-.13-1.27-.19-1.9-25.6-16.23-49.2-4.51-56.74.14,0,.6,0,1.19-.05,1.79C296.38,646,320.62,632.51,347.16,650.08Z"/><path class="cls-2" d="M347.3,652l-.06-.82h-1.15Z"/><path class="cls-2" d="M290.16,651.17v0a6.65,6.65,0,0,1-.06.78l1.22-.82Z"/><path class="cls-2" d="M348.76,651.17h0l.87-1.23-1-.71c.06.65.11,1.29.17,1.93Z"/><path class="cls-2" d="M288.71,649.3c-.61.41-.94.67-1,.69l.91,1.19h0Z"/><path class="cls-2" d="M290.09,652a6.65,6.65,0,0,0,.06-.78v0h-1.51l.92,1.18Z"/><path class="cls-2" d="M290.18,650.11c0-.6,0-1.19.05-1.79-.62.38-1.13.72-1.52,1l-.06,1.87S289.19,650.76,290.18,650.11Z"/><path class="cls-2" d="M347.16,650.08c.53.35,1.06.71,1.6,1.09-.06-.64-.11-1.28-.17-1.93-.54-.37-1.08-.72-1.62-1.06C347,648.81,347.1,649.45,347.16,650.08Z"/><path class="cls-2" d="M347.24,651.17l.06.82.59.41.87-1.22h-1.52Z"/><path class="cls-2" d="M346.09,651.17h1.15c0-.36-.05-.72-.08-1.09-26.54-17.57-50.78-4.05-57,0,0,.35,0,.71,0,1.06h1.15C297.71,647.08,320.91,634.7,346.09,651.17Z"/><polygon class="cls-2" points="348.76 651.17 348.76 651.17 348.76 651.17 348.76 651.17"/><path class="cls-2" d="M288.65,651.17h1.51c0-.35,0-.71,0-1.06C289.19,650.76,288.65,651.17,288.65,651.17Z"/><path class="cls-2" d="M348.76,651.17h0c-.54-.38-1.07-.74-1.6-1.09,0,.37,0,.73.08,1.09Z"/><path class="cls-1" d="M273.61,706.36c2.72-14.75,2.83-27.11.36-38.89a133,133,0,0,1-2.35-15.73c-.16-.21-.4-.49-.7-.83-4.05-4.57-20.87-20.11-52.44-6.5l-1.49.66c-.25,2.24-.67,4.47-1.08,6.64-.78,4.14-1.53,8-1.16,11.86,1.53,15.92,3.68,32.07,5.76,47.68q.92,6.82,1.8,13.64c.91,7,1.9,14,2.85,20.83,1.83,13,3.71,26.47,5.1,39.77a63.69,63.69,0,0,1-1.19,21.15c18.86-8.4,31.73-3.84,37.43-.65-2-9.14-3.42-18.5-2.78-27.63C265.6,752,270,726,273.61,706.36Z"/><path class="cls-2" d="M217.09,644.24c0,.28-.07.55-.1.83l1.49-.66Z"/><path class="cls-2" d="M271.62,651.74c0-.25-.05-.51-.07-.75l-.63-.08C271.22,651.25,271.46,651.53,271.62,651.74Z"/><path class="cls-2" d="M217.3,641.65c-.05.57-.09,1.13-.14,1.7,31.35-13.84,49,.5,54.27,5.93-.05-.73-.1-1.46-.14-2.19C264.62,640.9,246.78,629,217.3,641.65Z"/><path class="cls-2" d="M215.74,642.34l-.77.35.63,1.36h0C215.65,643.49,215.69,642.91,215.74,642.34Z"/><path class="cls-2" d="M273.08,651.17h0l1.21-.89a21.1,21.1,0,0,0-1.39-1.61q.08,1.25.18,2.49Z"/><path class="cls-2" d="M217.16,643.35c.05-.57.09-1.13.14-1.7l-1.56.69c-.05.57-.09,1.15-.14,1.71Z"/><path class="cls-2" d="M217,645.07c0-.28.07-.55.1-.83l-1.49-.19h0l.63,1.36Z"/><path class="cls-2" d="M271.29,647.09c0,.73.09,1.46.14,2.19a20.66,20.66,0,0,1,1.65,1.89q-.1-1.24-.18-2.49C272.46,648.22,271.93,647.68,271.29,647.09Z"/><path class="cls-2" d="M271.55,651c0,.24.05.5.07.75l.25.32,1.21-.88h0Z"/><path class="cls-2" d="M217.16,643.35c0,.28,0,.56-.07.84v0l1.39.17c31.57-13.61,48.39,1.93,52.44,6.5l.63.08c-.05-.58-.08-1.14-.12-1.71C266.2,643.85,248.51,629.51,217.16,643.35Z"/><path class="cls-2" d="M273.08,651.17h0a20.66,20.66,0,0,0-1.65-1.89c0,.57.07,1.13.12,1.71Z"/><path class="cls-2" d="M217.16,643.35l-1.56.7,1.49.19v0C217.12,643.91,217.14,643.63,217.16,643.35Z"/><path class="cls-1" d="M366.9,430.63c-.83-11.33-2.19-22.72-3.8-34.05-.48.23-1,.47-1.45.72C337.29,410,325.52,432.85,314.12,455c-1.79,3.48-3.65,7.08-5.52,10.58-1.73,3.23-3.51,6.35-5.29,9.33a279,279,0,0,1-17.83,26.24,2.83,2.83,0,0,1,.26.92c.66,6.38,1.45,12.88,2.22,19.16,1.76,14.38,3.57,29.25,3.9,43.94.17,7.29.18,14.63.1,22l.78.46c4.55,2.67,19.19,10.24,33.61,7.08,8.46-1.86,15.52-7.13,21-15.66.19-.28.37-.56.55-.85,2.5-15.4,5.44-30.91,9.74-45.85C366.63,501.12,369.65,467.87,366.9,430.63Z"/><path class="cls-2" d="M327,597.57c7.75-1.7,14.41-6,19.86-12.72.16-1,.33-2.09.49-3.13-18.81,26.41-48.46,11.2-55.39,7.12l0,1.73c4.53,2.59,15.17,7.84,27.09,7.84A37.14,37.14,0,0,0,327,597.57Z"/><path class="cls-2" d="M292,587.1c0,.19,0,.39,0,.58l.79-.12Z"/><path class="cls-2" d="M347.78,578.92c0-.26.09-.53.13-.79-.18.29-.36.57-.55.85Z"/><path class="cls-2" d="M349.34,578.67h0c-.2,1.2-.39,2.4-.58,3.6.64-.91,1.26-1.84,1.86-2.83l-1.28-.78Z"/><path class="cls-2" d="M289.61,589.16l.81.52,0-1.75Z"/><path class="cls-2" d="M347.91,578.13c0,.26-.09.53-.13.79l1.56-.25h0l-1.28-.78Z"/><path class="cls-2" d="M347.33,581.72c-.16,1-.33,2.09-.49,3.13.66-.82,1.3-1.68,1.92-2.57.19-1.2.38-2.4.58-3.6C348.68,579.75,348,580.76,347.33,581.72Z"/><path class="cls-2" d="M291.94,588.84c-1-.57-1.49-.92-1.49-.92l1.5-.24c0-.19,0-.39,0-.58l-.67-.43-.84,1.26,0,1.75c.38.23.88.54,1.49.89Z"/><path class="cls-2" d="M347.33,581.72l.45-2.8-.42.06c-5.49,8.53-12.55,13.8-21,15.66-14.42,3.16-29.06-4.41-33.61-7.08l-.79.12c0,.39,0,.77,0,1.16C298.87,592.92,328.52,608.13,347.33,581.72Z"/><polygon class="cls-2" points="349.34 578.67 349.34 578.67 349.34 578.68 349.34 578.67"/><path class="cls-2" d="M290.45,587.92s.53.35,1.49.92c0-.39,0-.77,0-1.16Z"/><path class="cls-2" d="M349.34,578.68h0l-1.56.25-.45,2.8C348,580.76,348.68,579.75,349.34,578.68Z"/><path class="cls-1" d="M280.39,501.89a265.34,265.34,0,0,1-15.52-22.24c-2.72-4.34-5.54-9.1-8.21-14.1-13.65-25.5-30.52-57-59.31-72.09l-.8-.4c0,.53-.07,1.07-.09,1.6-.79,27.73-1,56.08-.5,86.66.33,22.49,5,45.68,13.94,68.91a130.58,130.58,0,0,1,6.68,23.35c.15.3.31.6.47.89,14,25.66,47.92,15.9,56.69,12.84.45-.15.83-.29,1.14-.41a160.12,160.12,0,0,1,1.58-21.62c.3-2.54.6-5.08.86-7.63,1.34-13.17,2-26.64,2.72-39.67.28-5.42.57-11,.91-16.54Z"/><path class="cls-2" d="M216.58,573.58c0,.27.09.54.14.82l.33.07C216.89,574.18,216.73,573.88,216.58,573.58Z"/><path class="cls-2" d="M217.24,577.72c.16,1.06.29,2.12.41,3.17,8.26,10.73,20.38,13.79,31.52,13.79A82.32,82.32,0,0,0,275,590.05c0-.52-.06-1-.08-1.56C267.4,591.24,233.09,602.08,217.24,577.72Z"/><path class="cls-2" d="M274.9,587.58c0-.23,0-.45,0-.68-.31.12-.69.26-1.14.41Z"/><path class="cls-2" d="M215.12,574h0l-1.34.67a39.89,39.89,0,0,0,2,3.54c-.2-1.41-.42-2.81-.68-4.21Z"/><path class="cls-2" d="M277,589.3l-.58-1.38.06,1.59Z"/><path class="cls-2" d="M217.24,577.72a40.32,40.32,0,0,1-2.12-3.68c.26,1.4.48,2.8.68,4.21.59.92,1.21,1.81,1.85,2.64C217.53,579.84,217.4,578.78,217.24,577.72Z"/><path class="cls-2" d="M216.72,574.4c-.05-.28-.09-.55-.14-.82l-.12-.22-1.34.68h0Z"/><path class="cls-2" d="M274.88,586.9c0,.23,0,.45,0,.68l1.51.34s-.52.22-1.48.57c0,.52.05,1,.08,1.56l1.46-.54-.06-1.59-.58-1.38Z"/><path class="cls-2" d="M217.05,574.47l-.33-.07c.19,1.11.37,2.21.52,3.32,15.85,24.36,50.16,13.52,57.69,10.77l0-.91-1.16-.27C265,590.37,231.07,600.13,217.05,574.47Z"/><polygon class="cls-2" points="215.12 574.04 215.12 574.04 215.12 574.04 215.12 574.04"/><path class="cls-2" d="M215.12,574h0a40.32,40.32,0,0,0,2.12,3.68c-.15-1.11-.33-2.21-.52-3.32Z"/><path class="cls-2" d="M276.41,587.92l-1.51-.34,0,.91C275.89,588.14,276.41,587.92,276.41,587.92Z"/><path class="cls-1" d="M260.34,9.7c-15.21,10.2-20.53,25.33-15.82,45l.32,1.33-1.3.44c-3.14,1.06-5.24,2.65-6.24,4.74-1.1,2.31-1,5.4.44,9.17a49.49,49.49,0,0,1,1.49,5.09c1.56,6.11,2.92,11.39,10.72,12.72l.83.14.31.79c.26.67.57,1.38.9,2.13s.7,1.64,1,2.51h0l.25.54c1.73,3.65,12.48,25,28,26.31V3A37.13,37.13,0,0,0,260.34,9.7Z"/><path class="cls-1" d="M323.45,56.4,322.18,56l.27-1.31c4.16-20.12-1.29-34.51-16.65-44C300,7.1,292.54,3.81,284.31,3.16V120.59c15.51-1.44,24.38-24.68,25.72-28.43.07-.19.12-.34.15-.43.24-1.29.53-2.54.83-3.73l.57-2.28,1.83,1.48c2,1.6,3.64,2.25,5,1.94,1.51-.36,2.88-2,4.3-5.11,2.15-4.74,4.59-10.1,5.94-15.59C330.22,61.92,328.57,58.09,323.45,56.4Z"/><path class="cls-2" d="M253,93.74h0l.21.54h0Z"/><path class="cls-2" d="M282.81,123.66c13.26,0,22.09-13.21,26.63-22.43a32.53,32.53,0,0,1,0-3.56C305.7,106,297.28,121,284.31,122.09v.07h-3v-.07c-12.27-1-21.53-13.37-26.22-21.27.3,1.36.58,2.74.79,4.13C261.38,113.24,270.69,123.66,282.81,123.66Z"/><path class="cls-2" d="M310.09,92.15l.09-.42c0,.09-.08.24-.15.43Z"/><path class="cls-2" d="M313.06,92.56l-1.42-.46a42.4,42.4,0,0,0-.74,6C312.24,95.05,313,92.88,313.06,92.56Z"/><path class="cls-2" d="M251.67,94.34l-1.38.6a68,68,0,0,0,3.39,6.49c-.27-1.25-.57-2.5-.89-3.74A30.6,30.6,0,0,0,251.67,94.34Z"/><path class="cls-2" d="M255.09,100.82a64.69,64.69,0,0,1-3.42-6.48l1.58-.06-.21-.54-1.37.6a30.6,30.6,0,0,1,1.12,3.35c.32,1.24.62,2.49.89,3.74.65,1.1,1.38,2.28,2.2,3.52C255.67,103.56,255.39,102.18,255.09,100.82Z"/><path class="cls-2" d="M310.18,91.73l-.09.42,1.55-.05s-.75,2.28-2.21,5.57a32.53,32.53,0,0,0,0,3.56c.55-1.11,1-2.17,1.46-3.14a42.4,42.4,0,0,1,.74-6l-1.43-.47Z"/><path class="cls-2" d="M284.31,120.59v1.5c13-1.09,21.39-16,25.12-24.42a44.54,44.54,0,0,1,.66-5.52H310C308.69,95.91,299.82,119.15,284.31,120.59Z"/><polygon class="cls-2" points="282.81 122.16 282.82 122.16 282.81 122.16 282.81 122.16"/><polygon class="cls-2" points="282.8 122.16 282.81 122.16 282.81 122.16 282.8 122.16"/><path class="cls-2" d="M281.31,122.09v-1.5c-15.54-1.31-26.29-22.66-28-26.31h0a29.81,29.81,0,0,1,1,3c.3,1.15.58,2.33.85,3.51C259.78,108.72,269,121.14,281.31,122.09Z"/><path class="cls-2" d="M311.64,92.1l-1.55.05a44.54,44.54,0,0,0-.66,5.52C310.89,94.38,311.64,92.1,311.64,92.1Z"/><path class="cls-2" d="M253.25,94.28l-1.58.06a64.69,64.69,0,0,0,3.42,6.48c-.27-1.18-.55-2.36-.85-3.51A29.81,29.81,0,0,0,253.25,94.28Z"/><polygon class="cls-1" points="291.96 811.97 291.96 811.97 291.96 811.97 291.96 811.97"/><path class="cls-2" d="M333.09,812.81c-.13-.41-.24-.82-.33-1.21l-1.83,0C332.1,812.22,332.86,812.66,333.09,812.81Z"/><path class="cls-2" d="M332.6,810.8c-.08-.51-.14-1-.17-1.34,0-.15,0-.31,0-.46-6.35-3.27-24.22-10.73-38.7-.33-.2.67-.38,1.35-.54,2,0,.12-.07.24-.1.36C308,798.72,327.36,807.91,332.6,810.8Z"/><path class="cls-2" d="M294.31,812h-1.49c-.07.25-.13.49-.19.73l.34.39C293.41,812.68,293.86,812.31,294.31,812Z"/><path class="cls-2" d="M334.78,810.32s-.31-.19-.8-.46c.06.45.13.9.23,1.35Z"/><path class="cls-2" d="M291.72,810.21c-.25.22-.51.42-.77.65l.47.52.27-1Z"/><path class="cls-2" d="M293.05,811.05c0-.12.07-.24.1-.36.16-.67.34-1.35.54-2-.67.47-1.32,1-2,1.54l0,.12-.27,1,.54.59C292.32,811.64,292.69,811.35,293.05,811.05Z"/><path class="cls-2" d="M332.43,809.46c0,.37.09.83.17,1.34.88.48,1.37.79,1.37.79h-1.21c.09.39.2.8.33,1.21l.08.05,1-1.65c-.1-.45-.17-.9-.23-1.35-.39-.23-.93-.52-1.59-.86C332.41,809.15,332.42,809.31,332.43,809.46Z"/><path class="cls-2" d="M292,812l.67.72c.06-.24.12-.48.19-.73Z"/><path class="cls-2" d="M294.31,812c13.3-10.66,30.55-3.45,36.62-.33l1.83,0c-.06-.28-.11-.55-.16-.8-5.24-2.89-24.64-12.08-39.55.25-.07.3-.16.61-.23.91Z"/><path class="cls-2" d="M334,811.59s-.49-.31-1.37-.79c0,.25.1.52.16.8Z"/><path class="cls-2" d="M293.05,811.05c-.36.3-.73.59-1.09.92h.86C292.89,811.66,293,811.35,293.05,811.05Z"/><path class="cls-1" d="M230.37,809.35h35.91C262.12,806.65,249.74,800.76,230.37,809.35Z"/><polygon class="cls-1" points="226.84 809.35 226.84 809.35 226.84 809.35 226.84 809.35"/><path class="cls-2" d="M228.36,809.35c-.11.36-.2.72-.32,1.08.79-.38,1.57-.74,2.33-1.08Z"/><path class="cls-2" d="M229.07,806.64c-.15.63-.3,1.25-.47,1.87C249,799,262.3,805.1,267,808c-.15-.68-.31-1.36-.46-2C260.8,802.8,247.93,798.24,229.07,806.64Z"/><path class="cls-2" d="M267.48,810.19l-.21-.84h-1C266.81,809.7,267.21,810,267.48,810.19Z"/><path class="cls-2" d="M269.81,808.22a19,19,0,0,0-1.53-1.14c.18.76.35,1.52.54,2.27Z"/><path class="cls-2" d="M226.17,808l.66,1.31c.18-.63.37-1.25.53-1.88C227,807.63,226.57,807.8,226.17,808Z"/><path class="cls-2" d="M228.6,808.51c.17-.62.32-1.24.47-1.87-.56.25-1.13.52-1.71.8-.16.63-.35,1.25-.53,1.88v0C227.43,809.05,228,808.78,228.6,808.51Z"/><path class="cls-2" d="M226.84,809.35l.67,1.34.53-.26c.12-.36.21-.72.32-1.08Z"/><path class="cls-2" d="M267,808a14.88,14.88,0,0,1,1.85,1.32h-1.54l.21.84.35.29,1-1.13c-.19-.75-.36-1.51-.54-2.27-.48-.32-1.07-.69-1.78-1.09C266.65,806.67,266.81,807.35,267,808Z"/><path class="cls-2" d="M228.6,808.51l-.24.84h2c19.37-8.59,31.75-2.7,35.91,0h1c-.1-.44-.2-.88-.31-1.32C262.3,805.1,249,799,228.6,808.51Z"/><path class="cls-2" d="M268.81,809.35A14.88,14.88,0,0,0,267,808c.11.44.21.88.31,1.32Z"/><path class="cls-2" d="M228.6,808.51c-.58.27-1.17.54-1.76.84h1.52Z"/><path class="cls-1" d="M359.48,865.27l0,0h0Z"/><polygon class="cls-1" points="350.62 855.22 350.62 855.22 350.62 855.22 350.62 855.22"/><path class="cls-2" d="M350.42,856.7c1.31.18,2,1.14,3.32,3a16.11,16.11,0,0,0,5.74,5.59l-8.86-10Z"/><path class="cls-2" d="M367.25,874.68l.3.2.3-.1-.39-.45A2.69,2.69,0,0,1,367.25,874.68Z"/><path class="cls-2" d="M371.19,868c-.93-2.17-3.09-3.55-6.42-4.11-5-.83-6.82-3.42-8.56-5.91-1.33-1.91-2.71-3.88-5.39-4.24l-.2,1.49c4.12.54,4.28,6.3,10.15,9a3.83,3.83,0,0,1,1.72-.37l-.05,1a14.59,14.59,0,0,0,2.09.49,10.65,10.65,0,0,1,2.79.83l.52-.34.86,1.23c2.42,2.14,1.32,5.47.47,7.24.66-.24,1.31-.49,1.92-.73A7.8,7.8,0,0,0,371.19,868Z"/><path class="cls-2" d="M369.75,876.35c0-.05.22-.35.48-.82-.37.14-.75.26-1.12.39Z"/><path class="cls-2" d="M369.17,874.32a11.21,11.21,0,0,1-.67,1.19l-.65-.73-.3.1,1.56,1c.37-.13.75-.25,1.12-.39a15,15,0,0,0,.86-1.94C370.48,873.83,369.83,874.08,369.17,874.32Z"/><path class="cls-2" d="M359.65,865.08a3.39,3.39,0,0,1,1.12-.84c-5.87-2.72-6-8.48-10.15-9h0l8.86,10,0,0C359.57,865.22,359.6,865.15,359.65,865.08Z"/><path class="cls-2" d="M362.42,865.36l4.34,1.19.56-.36a10.65,10.65,0,0,0-2.79-.83,14.59,14.59,0,0,1-2.09-.49l0,.49Z"/><path class="cls-2" d="M368.7,867.08l.86,1.23c-.28.19-.68.46-1.18.77a.41.41,0,0,1,.05.09c.73,1.66-.31,4-1,5.16l.39.45,1.32-.46C370,872.55,371.12,869.22,368.7,867.08Z"/><path class="cls-2" d="M368.5,875.51a11.21,11.21,0,0,0,.67-1.19l-1.32.46Z"/><path class="cls-1" d="M382.1,861.17c-2.3-.76-8.37-2.78-12.91-6.77l1-1.12h0l1-1.13a31.13,31.13,0,0,0,8.76,5.05c-3.06-5.42-6.74-11.27-11.23-13a55.46,55.46,0,0,1-29-23.92,8.29,8.29,0,0,0-2.3-2.08,12.49,12.49,0,0,1-2.86-2.54,9.81,9.81,0,0,1-1.41-2.89c-.23-.15-1-.59-2.16-1.19-6.07-3.12-23.32-10.33-36.62.33-.45.36-.9.73-1.34,1.13l-.34-.39-.66,2.55a72,72,0,0,0-2.65,13.07c-.74,9.86,3.43,13.94,11.92,18.42a85.91,85.91,0,0,1,21.43,15.43c8.67,8.9,32.26,16.88,44.49,12.85l.39-.13-.3-.2a2.69,2.69,0,0,0,.21-.35c.66-1.12,1.7-3.5,1-5.16a.41.41,0,0,0-.05-.09,20.31,20.31,0,0,1-3.85,1.92,7.83,7.83,0,0,1-2.54.52,3.45,3.45,0,0,1-1.3-.23,2.89,2.89,0,0,1-1.76-2.19,4.67,4.67,0,0,1,.58-3.8l0,0a16.11,16.11,0,0,1-5.74-5.59c-1.28-1.84-2-2.8-3.32-3l.2-1.48h0l.2-1.49c2.68.36,4.06,2.33,5.39,4.24,1.74,2.49,3.53,5.08,8.56,5.91,3.33.56,5.49,1.94,6.42,4.11a7.8,7.8,0,0,1-.1,5.6,38.92,38.92,0,0,0,5.36-2.59l0,0a3.46,3.46,0,0,0,.85-2.68c-.19-1.35-1.4-3.47-6.08-5.91-.6-.32-1.15-.64-1.68-1a19.37,19.37,0,0,1-7.23-7.49l1.36-.62h0l1.37-.62a17.45,17.45,0,0,0,7.57,7.05c4.69,2.44,7.27,5.21,7.67,8.21a.86.86,0,0,1,0,.16C382.24,866.16,383.34,863.81,382.1,861.17Z"/><polygon class="cls-1" points="363.71 853.28 363.71 853.28 363.71 853.28 363.71 853.28"/><path class="cls-2" d="M376.45,871l.05,0h0Z"/><path class="cls-2" d="M363.71,853.28l-1.36.62a19.37,19.37,0,0,0,7.23,7.49l-3.39-4.69A14.52,14.52,0,0,1,363.71,853.28Z"/><path class="cls-2" d="M372.65,859.71a17.45,17.45,0,0,1-7.57-7.05l-1.37.62,2.48,3.42A21.26,21.26,0,0,0,372,861c6.18,3.22,7.19,6.28,6.86,8.37a14.92,14.92,0,0,0,1.52-1.33.86.86,0,0,0,0-.16C379.92,864.92,377.34,862.15,372.65,859.71Z"/><path class="cls-2" d="M377.37,872.2l1,1.1a6.83,6.83,0,0,0,1.78-3.06,23.33,23.33,0,0,1-2.79,2Z"/><path class="cls-2" d="M376.5,871l-.05,0-.1.1,1,1.1h0Z"/><path class="cls-2" d="M380.33,868.08a14.92,14.92,0,0,1-1.52,1.33,5.27,5.27,0,0,1-1.43,2.79,23.33,23.33,0,0,0,2.79-2A5.81,5.81,0,0,0,380.33,868.08Z"/><path class="cls-2" d="M363.71,853.28h0a14.52,14.52,0,0,0,2.48,3.42Z"/><path class="cls-2" d="M372,861a21.26,21.26,0,0,1-5.76-4.34l3.39,4.69c.53.34,1.08.66,1.68,1,4.68,2.44,5.89,4.56,6.08,5.91a3.46,3.46,0,0,1-.85,2.68h0l.11-.06a23.76,23.76,0,0,0,2.2-1.5C379.14,867.32,378.13,864.26,372,861Z"/><path class="cls-2" d="M376.5,871l.88,1.23a5.27,5.27,0,0,0,1.43-2.79,23.76,23.76,0,0,1-2.2,1.5Z"/><polygon class="cls-1" points="370.18 853.28 370.18 853.28 370.18 853.28 370.18 853.28"/><path class="cls-1" d="M383.23,860l-.06,0,.05.09Z"/><polygon class="cls-1" points="383.22 860.04 383.22 860.04 383.23 859.97 383.23 859.97 383.22 860.04"/><path class="cls-1" d="M383.22,860l-.05-.09-.38-.13.43.22Z"/><path class="cls-1" d="M382,859.54l.82.28-.77-.4A.61.61,0,0,0,382,859.54Z"/><path class="cls-2" d="M384.86,860a1.3,1.3,0,0,0-.56-1.09l.24.43C384.66,859.54,384.76,859.76,384.86,860Z"/><path class="cls-2" d="M370.18,853.28l10.64,5.52-.89-1.6a31.13,31.13,0,0,1-8.76-5.05Z"/><path class="cls-2" d="M381.26,859.59c-.07-.12-.14-.24-.2-.36a34.63,34.63,0,0,1-10.88-6l-1,1.12c4.54,4,10.61,6,12.91,6.77-.06-.13-.11-.26-.19-.4Z"/><path class="cls-2" d="M382.09,858l.45.8a1.4,1.4,0,0,1,.81-.25h0l-.12,1.42c.17.07.18.09,0,.07a7.5,7.5,0,0,1,.61,1.42,1.51,1.51,0,0,0,1-1.12,1.54,1.54,0,0,0,0-.36c-.1-.22-.2-.44-.32-.66l-.24-.43a4.19,4.19,0,0,0-1.24-.56Z"/><path class="cls-2" d="M381.26,859.59l.65,1.18c.08.14.13.27.19.4h0c.28.09.48.15.59.2a1.5,1.5,0,0,1-.81-1.68,1.11,1.11,0,0,1,.07-.16l-.91-.31C381.12,859.35,381.19,859.47,381.26,859.59Z"/><path class="cls-2" d="M380.82,858.8l1.2.62a1.59,1.59,0,0,1,.52-.62l-.45-.8c-.6-.21-1.34-.48-2.16-.8Z"/><path class="cls-2" d="M383.22,860l-.12,1.5h.18a1.81,1.81,0,0,0,.55-.09,7.5,7.5,0,0,0-.61-1.42Z"/><path class="cls-2" d="M370.18,853.28a34.63,34.63,0,0,0,10.88,6l-.24-.43-10.64-5.52Z"/><path class="cls-2" d="M383.22,860c.19,0,.18,0,0-.07V860Z"/><polygon class="cls-2" points="383.22 860.04 383.22 860.04 383.22 860.04 383.22 860.04 383.22 860.04"/><path class="cls-2" d="M380.82,858.8l.24.43.91.31a.61.61,0,0,1,0-.12Z"/><path class="cls-1" d="M361.87,868.5v0a1.22,1.22,0,0,0,.47,0l-.55-.63A3.94,3.94,0,0,0,361.87,868.5Z"/><path class="cls-1" d="M362.4,866.42v.44a.69.69,0,0,0-.46.18,1.3,1.3,0,0,0-.14.85l.55.63a11.71,11.71,0,0,0,3.35-1.35,11.75,11.75,0,0,0-1.41-.33A16.28,16.28,0,0,1,362.4,866.42Z"/><path class="cls-1" d="M362.4,866.42a16.28,16.28,0,0,0,1.88.42,11.75,11.75,0,0,1,1.41.33c.35-.2.71-.4,1.07-.62l-4.34-1.19h0Z"/><path class="cls-2" d="M360.4,868.8a3.64,3.64,0,0,1,.13-2.34l-1-1.16a4.67,4.67,0,0,0-.58,3.8,2.89,2.89,0,0,0,1.76,2.19,3.45,3.45,0,0,0,1.3.23,7.83,7.83,0,0,0,2.54-.52l-1.08-1.22C362,870.22,360.68,870.16,360.4,868.8Z"/><path class="cls-2" d="M360.92,865.93a14,14,0,0,1-1.4-.64h0l1,1.16A2,2,0,0,1,360.92,865.93Z"/><path class="cls-2" d="M367.36,867.93a18.11,18.11,0,0,1-3.91,1.85l1.08,1.22a20.31,20.31,0,0,0,3.85-1.92A3,3,0,0,0,367.36,867.93Z"/><path class="cls-2" d="M362.49,863.87a3.83,3.83,0,0,0-1.72.37,12.09,12.09,0,0,0,1.67.63Z"/><path class="cls-2" d="M368.7,867.08h0l-.86-1.23-.52.34a5.76,5.76,0,0,1,1.38.89Z"/><path class="cls-2" d="M359.52,865.29a14,14,0,0,0,1.4.64,2.21,2.21,0,0,1,1.5-.57l0-.49a12.09,12.09,0,0,1-1.67-.63,3.39,3.39,0,0,0-1.12.84C359.6,865.15,359.57,865.22,359.52,865.29Z"/><path class="cls-2" d="M367.36,867.93a3,3,0,0,1,1,1.15c.5-.31.9-.58,1.18-.77l-.86-1.23h0S368.16,867.46,367.36,867.93Z"/><path class="cls-2" d="M368.7,867.08a5.76,5.76,0,0,0-1.38-.89l-.56.36Z"/><path class="cls-2" d="M361.87,868.52v0a3.94,3.94,0,0,1-.08-.61l-1.26-1.43a3.64,3.64,0,0,0-.13,2.34c.28,1.36,1.57,1.42,3.05,1l-1.11-1.26A1.22,1.22,0,0,1,361.87,868.52Z"/><path class="cls-2" d="M361.93,867a.69.69,0,0,1,.46-.18v-.44h0l0,.45,0-.45a13.69,13.69,0,0,1-1.45-.48,2,2,0,0,0-.39.53l1.26,1.43A1.3,1.3,0,0,1,361.93,867Z"/><path class="cls-2" d="M362.34,868.52l1.11,1.26a18.11,18.11,0,0,0,3.91-1.85,6.17,6.17,0,0,0-1.67-.76A11.71,11.71,0,0,1,362.34,868.52Z"/><polygon class="cls-2" points="368.7 867.08 368.7 867.08 368.7 867.08 368.7 867.08"/><path class="cls-2" d="M362.37,866.41h0l0-1.06Z"/><path class="cls-2" d="M362.42,865.36h0a2.21,2.21,0,0,0-1.5.57,13.69,13.69,0,0,0,1.45.48Z"/><path class="cls-2" d="M368.7,867.08l-1.94-.53c-.36.22-.72.42-1.07.62a6.17,6.17,0,0,1,1.67.76c.8-.47,1.34-.85,1.34-.85Z"/><polygon class="cls-1" points="226.08 855.97 226.08 855.97 226.08 855.97 226.08 855.97"/><path class="cls-2" d="M213.8,867h0l.39-1.45c.07,0,.68.18,1.53.43l7.36-3.9,3-6.12-1.35.66a1.67,1.67,0,0,1,.07,1.4c-1.1,3-8.1,6.06-11.47,7.54l-.13.06a6.54,6.54,0,0,0-.65.34l-1.92,3.1c-.2,2.21,1.22,4.7,2.5,6.46.62,0,1.23-.07,1.84-.08C213.24,873.27,210.15,868.62,213.8,867Z"/><path class="cls-2" d="M224.37,861.05a13.38,13.38,0,0,1,1.22.89,7.79,7.79,0,0,0,2-2.87,4.71,4.71,0,0,0-.18-3.75l-1.35.65C227,857.76,226.06,859.48,224.37,861.05Z"/><path class="cls-2" d="M216.52,875.45h.42l-.27-.31Z"/><path class="cls-2" d="M214.28,877l.58.66.73-.69Z"/><path class="cls-2" d="M216.94,875.46h-.42L216,876.6s-.42-.44-1-1.15c-.61,0-1.22,0-1.84.08.42.57.82,1.06,1.15,1.44l1.31,0,1.46-1.36Z"/><path class="cls-2" d="M223.16,862.05l.78-1.29.43.29c1.69-1.57,2.58-3.29,1.71-5.08h0l-3,6.12Z"/><path class="cls-2" d="M213.62,869.18a1,1,0,0,1,.38-.56l-.59-.17.39-1.44h0c-3.65,1.61-.56,6.26,1.17,8.44h1.55l.15-.3C215.12,873.38,213.33,870.61,213.62,869.18Z"/><path class="cls-2" d="M215,875.45c.57.71,1,1.15,1,1.15l.56-1.15Z"/><path class="cls-1" d="M223.16,862.05l-.09.06-.22.45Z"/><polygon class="cls-1" points="213.8 867 213.8 867 213.8 867 213.8 867"/><path class="cls-1" d="M223.16,862.05h0l-.08,0v0Z"/><polygon class="cls-1" points="213.8 867 213.8 867 213.8 867 213.8 867"/><path class="cls-1" d="M223.18,863.86c-.25-.18-.5-.35-.73-.49l-.06,0,.46-.77.22-.45v0l-7.36,3.9.22.06c.64.19,1.38.41,2.15.66s1.61.53,2.33.8c.4.16.78.31,1.11.46a3.5,3.5,0,0,0,3.09-1.58C225.06,865.5,224.13,864.55,223.18,863.86Z"/><path class="cls-2" d="M224.44,862.94c4.85,3.93-1.42,7.36-3.53,6.4-.33-.16-.73-.31-1.16-.47l-.66,1.35c.45.16.86.33,1.2.48a3.59,3.59,0,0,0,1.52.3,6.6,6.6,0,0,0,5.45-3.18c.52-1,1.25-3.37-1.67-5.88A12.49,12.49,0,0,1,224.44,862.94Z"/><path class="cls-2" d="M216.05,867.65l-1.51.67-.13.06a2.11,2.11,0,0,0-.41.24c1.06.29,3.35,1,5.09,1.6l.66-1.35C218.6,868.43,217.2,868,216.05,867.65Z"/><path class="cls-2" d="M223.16,862.05a9.18,9.18,0,0,1,1.28.89,12.49,12.49,0,0,0,1.15-1,13.38,13.38,0,0,0-1.22-.89C224,861.39,223.6,861.72,223.16,862.05Z"/><path class="cls-2" d="M214.19,865.56,213.8,867l1.92-1C214.87,865.74,214.26,865.58,214.19,865.56Z"/><path class="cls-2" d="M214.54,868.32l1.51-.67c-1.27-.38-2.25-.64-2.25-.64l-.39,1.44.59.17a2.11,2.11,0,0,1,.41-.24Z"/><path class="cls-2" d="M223.16,862.05c.44-.33.84-.66,1.21-1l-.43-.29-.78,1.29Z"/><path class="cls-2" d="M224.62,866.39a3.5,3.5,0,0,1-3.09,1.58c-.33-.15-.71-.3-1.11-.46l-.67,1.36c.43.16.83.31,1.16.47,2.11,1,8.38-2.47,3.53-6.4-.4.31-.82.62-1.26.92C224.13,864.55,225.06,865.5,224.62,866.39Z"/><path class="cls-2" d="M218.09,866.71l-2,.94c1.15.34,2.55.78,3.7,1.22l.67-1.36C219.7,867.24,218.88,867,218.09,866.71Z"/><path class="cls-2" d="M215.94,866.05l-.22-.06-1.92,1h0Z"/><path class="cls-2" d="M222.85,862.56l-.4.81c.23.14.48.31.73.49.44-.3.86-.61,1.26-.92a9.18,9.18,0,0,0-1.28-.89h0Z"/><polygon class="cls-2" points="223.16 862.05 223.16 862.05 223.16 862.05 223.16 862.05 223.16 862.05"/><path class="cls-2" d="M222.45,863.37l.4-.81-.46.77Z"/><path class="cls-2" d="M218.09,866.71c-.77-.25-1.51-.47-2.15-.66l-2.14,1h0s1,.26,2.25.64Z"/><path class="cls-1" d="M210.68,868.58a3.87,3.87,0,0,0-.05.49l1.92-3.1A4,4,0,0,0,210.68,868.58Z"/><path class="cls-2" d="M208.78,865.77a15.67,15.67,0,0,0,7.31-5.47l3.17-5.08a26.53,26.53,0,0,1-3.17,5.08l-3.17,5.09c4.93-3.38,7.58-9.27,7.71-9.57l-2.74-1.21c0,.08-3.54,7.88-9.55,9.73-3,.91-4.86,2.5-5.59,4.72a8.62,8.62,0,0,0,.62,6,13.32,13.32,0,0,0,2,.57C204.06,873.44,201.77,867.93,208.78,865.77Z"/><path class="cls-2" d="M206.8,875.21l-.4.63c.16,0,.33,0,.49.06l.24-.19C207,875.58,206.92,875.41,206.8,875.21Z"/><path class="cls-2" d="M204.72,877.5l.44-.33-.78-.18Z"/><path class="cls-2" d="M206.4,875.84l-.47.76a8.39,8.39,0,0,1-.6-.94,13.32,13.32,0,0,1-2-.57,13.51,13.51,0,0,0,1,1.9l.78.18,1.73-1.27C206.73,875.88,206.56,875.87,206.4,875.84Z"/><path class="cls-2" d="M216.09,860.3a26.53,26.53,0,0,0,3.17-5.08Z"/><path class="cls-2" d="M205.61,870c.4-1.24,1.62-2.17,3.61-2.78a14,14,0,0,0,3.7-1.82l3.17-5.09a15.67,15.67,0,0,1-7.31,5.47c-7,2.16-4.72,7.67-3.45,9.89.35.07.71.14,1.07.18l.4-.63C206.07,874,205,871.75,205.61,870Z"/><path class="cls-2" d="M205.93,876.6l.47-.76c-.36,0-.72-.11-1.07-.18A8.39,8.39,0,0,0,205.93,876.6Z"/><path class="cls-1" d="M269.1,816.66c-.55-2.14-1.1-4.3-1.62-6.47-.27-.2-.67-.49-1.2-.84H230.37c-.76.34-1.54.7-2.33,1.08-3.21,10.4-9.41,19.69-18.59,27.75a60.47,60.47,0,0,0-14,17.54,13.89,13.89,0,0,0-1.36,4.47,20.21,20.21,0,0,0,4.35-1.82l.82-.55a2.62,2.62,0,0,0,1.28-1.85h3c0,4.47-6.76,6.65-9.48,7.34a13.58,13.58,0,0,0,1.55,5,6.75,6.75,0,0,1,3.89-6l1.49-.64c3.35-1.42,8.95-3.79,8.07-5.9l2.77-1.15c1.78,4.28-3.26,7-7.86,9-.61.28-1.22.54-1.81.78l-1.46.63c-2.3,1-2.26,3.89-2,5.53a7.35,7.35,0,0,0,.23,1.17l-.55.16a14.26,14.26,0,0,0,5,3.15,8.62,8.62,0,0,1-.62-6c.73-2.22,2.61-3.81,5.59-4.72,6-1.85,9.51-9.65,9.55-9.73l2.74,1.21c-.13.3-2.78,6.19-7.71,9.57a14,14,0,0,1-3.7,1.82c-2,.61-3.21,1.54-3.61,2.78-.59,1.76.46,4,1.19,5.22.12.2.24.37.33.5l-.24.19a14.58,14.58,0,0,0,3.55-.09c.9-.14,1.8-.23,2.69-.28-1.28-1.76-2.7-4.25-2.5-6.46a3.87,3.87,0,0,1,.05-.49,4,4,0,0,1,1.87-2.61,6.54,6.54,0,0,1,.65-.34l.13-.06c3.37-1.48,10.37-4.56,11.47-7.54a1.67,1.67,0,0,0-.07-1.4l1.35-.66h0l1.35-.65a4.71,4.71,0,0,1,.18,3.75,7.79,7.79,0,0,1-2,2.87c2.92,2.51,2.19,4.88,1.67,5.88a6.6,6.6,0,0,1-5.45,3.18,3.59,3.59,0,0,1-1.52-.3c-.34-.15-.75-.32-1.2-.48-1.74-.65-4-1.31-5.09-1.6a1,1,0,0,0-.38.56c-.29,1.43,1.5,4.2,3,6l.27.31c1.78,0,3.54.17,5.27.29,4.66.33,9.06.64,13.38-.59,3.5-1,8.42-7.31,10.27-11.22A54.81,54.81,0,0,1,260.22,845C269.29,837.29,272.11,828.27,269.1,816.66Z"/><path class="cls-2" d="M198.68,870.61l-.72.94c.13.14.26.26.4.39l.55-.16A7.35,7.35,0,0,1,198.68,870.61Z"/><path class="cls-2" d="M200.11,863.71c1.75-.77,3.93-1.63,5.86-2.63l4.48-5.86c1,2.38-1.42,4.28-4.48,5.86l-2,2.59c4.6-2,9.64-4.75,7.86-9l-2.77,1.15c.88,2.11-4.72,4.48-8.07,5.9l-1.49.64a6.75,6.75,0,0,0-3.89,6,16.57,16.57,0,0,0,1.08,1.73c.15.2.31.4.47.59C196.91,868.59,197,865.07,200.11,863.71Z"/><path class="cls-2" d="M196,872.61l.7-.2a13.9,13.9,0,0,1-1-1.17A12,12,0,0,0,196,872.61Z"/><path class="cls-2" d="M198,871.55l-.5.65a10.94,10.94,0,0,1-.29-1.56c-.16-.19-.32-.39-.47-.59a16.57,16.57,0,0,1-1.08-1.73,12.11,12.11,0,0,0,.11,2.92,13.9,13.9,0,0,0,1,1.17l1.64-.47C198.22,871.81,198.09,871.69,198,871.55Z"/><path class="cls-2" d="M210.45,855.22,206,861.08C209,859.5,211.45,857.6,210.45,855.22Z"/><path class="cls-2" d="M200.71,865.08l1.46-.63c.59-.24,1.2-.5,1.81-.78l2-2.59c-1.93,1-4.11,1.86-5.86,2.63-3.12,1.36-3.2,4.88-2.94,6.93a11.45,11.45,0,0,0,.79.91l.72-.94C198.45,869,198.41,866.08,200.71,865.08Z"/><path class="cls-2" d="M197.46,872.2l.5-.65a11.45,11.45,0,0,1-.79-.91A10.94,10.94,0,0,0,197.46,872.2Z"/><path class="cls-1" d="M198.45,858.37c.29-.18.57-.36.82-.55Z"/><polygon class="cls-1" points="202.05 855.97 202.05 855.97 202.05 855.97 202.05 855.97"/><path class="cls-2" d="M203.55,856h-1.5c0,3.22-5.65,5.13-8.06,5.8a13.13,13.13,0,0,0,.08,1.54C196.79,862.62,203.55,860.44,203.55,856Z"/><path class="cls-2" d="M198.45,858.37a20.21,20.21,0,0,1-4.35,1.82c0,.38-.08.76-.1,1.14Z"/><path class="cls-2" d="M200.55,856a2.62,2.62,0,0,1-1.28,1.85l2.78-1.85Z"/><path class="cls-2" d="M194,861.77c-.64.18-1.07.28-1.07.28l1.08-.72c0-.38.05-.76.1-1.14-.52.15-1,.29-1.5.39l.65,2.93.82-.2A13.13,13.13,0,0,1,194,861.77Z"/><path class="cls-2" d="M194,861.77c2.41-.67,8.06-2.58,8.06-5.8h0l-2.78,1.85c-.25.19-.53.37-.82.55l-4.45,3C194,861.48,194,861.62,194,861.77Z"/><path class="cls-2" d="M192.92,862.05s.43-.1,1.07-.28c0-.15,0-.29,0-.44Z"/><path class="cls-2" d="M549.53,417.67l-1.27,2.72c5.3,2.46,7,4.12,7.3,4.39l0-.08-1.92-2.79-4.7-2.88a47.17,47.17,0,0,1,4.21,2.18l-.9-1.31,5.22,2.61.25.14C557,422,554.91,420.17,549.53,417.67Z"/><path class="cls-2" d="M556.75,423.86h0Z"/><path class="cls-2" d="M557.67,422.65l-.25-.14-5.22-2.61.9,1.31a14.65,14.65,0,0,1,3.65,2.64h0l1.15-1Z"/><path class="cls-2" d="M553.59,421.91l1.92,2.79,0,.08,0,0,1.15-1h0Z"/><path class="cls-2" d="M553.59,421.91l-.49-.7a47.17,47.17,0,0,0-4.21-2.18Z"/><path class="cls-2" d="M556.75,423.85a14.65,14.65,0,0,0-3.65-2.64l.49.7Z"/><path class="cls-2" d="M546.91,432.65c4.58,6.39,13.38,22.67,15.81,27.23a1.59,1.59,0,0,1,.35-.55,1.61,1.61,0,0,1,.76-.44l-15.7-27.11c4.56,6.37,13.12,22.16,15.76,27.09a2.76,2.76,0,0,1,1.11,0,3.72,3.72,0,0,0,.65.08c-2-3.74-11.36-21.18-16.3-28.09Z"/><path class="cls-2" d="M564.15,460.67l.55-.29h0C564.06,460.25,564.08,460.37,564.15,460.67Z"/><path class="cls-2" d="M564.69,460.38l-.86-1.49a1.61,1.61,0,0,0-.76.44,1.59,1.59,0,0,0-.35.55l.65,1.2.78-.41C564.08,460.37,564.06,460.25,564.69,460.38Z"/><path class="cls-2" d="M565.65,459a3.72,3.72,0,0,1-.65-.08,2.76,2.76,0,0,0-1.11,0l.8,1.51h0l1.32-.7Z"/><path class="cls-2" d="M563.83,458.89l.06,0c-2.64-4.93-11.2-20.72-15.76-27.09Z"/><path class="cls-2" d="M564.69,460.38l-.8-1.51-.06,0Z"/><path class="cls-2" d="M542.27,435.81l-2.46,1.72A134.8,134.8,0,0,1,553,460.28c.33.73.57,1.25.76,1.62,0-.07,0-.13,0-.21a1.66,1.66,0,0,1,.59-1.81L541,436.67a136.19,136.19,0,0,1,13.39,23.14l.09-.05a1.49,1.49,0,0,1,1.59.1c-.12-.25-.25-.53-.38-.83A138.64,138.64,0,0,0,542.27,435.81Z"/><path class="cls-2" d="M555.21,461.42h0l.26-.16C555.22,461,555.13,461,555.21,461.42Z"/><path class="cls-2" d="M556.11,459.86a1.49,1.49,0,0,0-1.59-.1l-.09.05c.37.81.62,1.35.78,1.61-.08-.43,0-.4.26-.16l1-.64A7.9,7.9,0,0,1,556.11,459.86Z"/><path class="cls-2" d="M554.33,459.88a1.66,1.66,0,0,0-.59,1.81c0,.08,0,.14,0,.21s.13.23.19.32l1.26-.8h0Z"/><path class="cls-2" d="M554.33,459.88l.1-.07A136.19,136.19,0,0,0,541,436.67Z"/><path class="cls-2" d="M555.21,461.42c-.16-.26-.41-.8-.78-1.61l-.1.07Z"/><polygon class="cls-1" points="530.55 441.9 530.55 441.9 530.55 441.9 530.55 441.9"/><path class="cls-2" d="M529.57,443c2.83,2.48,8.75,10.85,10.86,13.9.34-.25.67-.52,1-.83l.08-.07-11-14.13Z"/><path class="cls-2" d="M531.54,440.77l-1,1.13c3,2.57,8.84,10.9,11,14.07l1.13-1C540.4,451.63,534.58,443.42,531.54,440.77Z"/><polygon class="cls-2" points="542.45 457.22 542.45 457.21 542.45 457.21 542.45 457.22"/><path class="cls-2" d="M541.53,456l-.08.07c-.35.31-.68.58-1,.83l.78,1.13,1.24-.84h0Z"/><path class="cls-2" d="M542.72,455l-1.13,1c.54.77.86,1.25.86,1.25h0l1.24-.85Z"/><path class="cls-2" d="M530.55,441.9h0l11,14.13.06-.06C539.39,452.8,533.5,444.47,530.55,441.9Z"/><path class="cls-2" d="M542.45,457.22s-.32-.48-.86-1.25l-.06.06Z"/><path class="cls-2" d="M29.18,410.41a30.68,30.68,0,0,0-5.72,3.69c.15-.1.31-.21.47-.3L29,410.66l-1.31,2.27a13,13,0,0,1,2-1.13l-2.39,1.72L26,415.82l-.12.21a25,25,0,0,1,4.41-2.84Z"/><path class="cls-2" d="M19.33,417.45l0,0,0,0Z"/><path class="cls-2" d="M20.32,418.57v0l1,1.13,1.31-1.1c.61-1,1.2-2,1.77-3Z"/><path class="cls-2" d="M20.36,418.54c.27-.23,2-1.71,4-3.25A27.71,27.71,0,0,0,20.36,418.54Z"/><path class="cls-2" d="M26,415.82l1.34-2.3-3,2.14c-.57,1-1.16,2-1.77,3,.94-.77,2.12-1.7,3.3-2.59Z"/><path class="cls-2" d="M20.3,418.58l.06,0a27.71,27.71,0,0,1,4-3.25c1.09-.84,2.25-1.69,3.3-2.36L29,410.66l-5.07,3.14c-.16.09-.32.2-.47.3-2,1.52-3.68,3-4.09,3.31l0,0,1,1.14v0Z"/><path class="cls-2" d="M27.69,412.93l-.34.59,2.39-1.72A13,13,0,0,0,27.69,412.93Z"/><path class="cls-2" d="M24.39,415.29c-2,1.54-3.76,3-4,3.25l0,0,4-2.91c.12-.19.24-.39.35-.59Z"/><path class="cls-2" d="M24.39,415.29l.32-.22c-.11.2-.23.4-.35.59l3-2.14.34-.59C26.64,413.6,25.48,414.45,24.39,415.29Z"/><path class="cls-2" d="M20.3,418.58h0l0,0Z"/><path class="cls-2" d="M15.8,447.89c2.91-3.21,6.89-7.62,11.62-12.74l-2.21-2c-4.74,5.14-8.72,9.55-11.64,12.77-2.47,2.73-4.55,5-5.69,6.23a1.78,1.78,0,0,1,1.48.37l17-18.35c-8.39,9.1-14.17,15.62-16.84,18.47l.12.12a1.59,1.59,0,0,1,.21,1.67C10.93,453.28,12.71,451.31,15.8,447.89Z"/><path class="cls-2" d="M8.43,453.69c-.41.4-.63.58-.64.5l.54-.6a.62.62,0,0,0-.3,0l-.24.59-1.48.24,1,1.15C8,454.64,8.51,453.94,8.43,453.69Z"/><path class="cls-2" d="M8.33,453.59l1-1.11a1.78,1.78,0,0,0-1.48-.37c-.41.43-.71.72-.84.83a1.41,1.41,0,0,1,1.31-.13L8,453.6A.62.62,0,0,1,8.33,453.59Z"/><path class="cls-2" d="M7.88,455.74c.4,0,.86-.27,1.93-1.35a1.59,1.59,0,0,0-.21-1.67l-.12-.12c-.43.46-.78.82-1.05,1.09.08.25-.41.95-1.11,1.89l.06.06A1.59,1.59,0,0,0,7.88,455.74Z"/><path class="cls-2" d="M9.36,452.48l.12.12c2.67-2.85,8.45-9.37,16.84-18.47Z"/><path class="cls-2" d="M8.33,453.59l-.54.6c0,.08.23-.1.64-.5A.14.14,0,0,0,8.33,453.59Z"/><path class="cls-2" d="M8.33,453.59a.14.14,0,0,1,.1.1c.27-.27.62-.63,1.05-1.09l-.12-.12Z"/><polygon class="cls-1" points="35.57 436.67 35.57 436.67 35.57 436.67 35.57 436.67"/><path class="cls-2" d="M34.35,435.79C21.07,454.27,13.91,462,12.41,463.54a1.47,1.47,0,0,1,1.62.11l.09.06,21.45-27Z"/><path class="cls-2" d="M35.57,436.67c-11.86,16.5-18.82,24.41-21.33,27.12l.66.49-.31,1.09c0,.12-.05.21-.08.31,1.53-1.57,8.66-9.18,22.28-28.13Z"/><path class="cls-2" d="M13.1,464.87l.05.06h0C13.17,464.86,13.15,464.85,13.1,464.87Z"/><path class="cls-2" d="M13.15,464.92l1-1.21-.09-.06a1.47,1.47,0,0,0-1.62-.11l-.31.31,1,1C13.15,464.85,13.17,464.86,13.15,464.92Z"/><path class="cls-2" d="M14.51,465.68c0-.1,0-.19.08-.31l.31-1.09-.66-.49c-.73.78-1.09,1.13-1.09,1.13h0l1,1.07Z"/><path class="cls-2" d="M35.57,436.67l-21.45,27,.12.08c2.51-2.71,9.47-10.62,21.33-27.12Z"/><path class="cls-2" d="M13.15,464.92s.36-.35,1.09-1.13l-.12-.08Z"/><path class="cls-2" d="M42.67,438.74c-5.52,8.8-11.32,16.74-14.9,21.47a1.32,1.32,0,0,1,1.36,0l.14.08,14.67-20.74c-5.32,8.47-10.84,16.1-14.45,20.89A1.6,1.6,0,0,1,30,462.1l-.06.28c3.59-4.74,9.59-12.93,15.31-22Z"/><path class="cls-2" d="M25.44,465.68,28,462C27.23,463,25.75,465.24,25.44,465.68Z"/><path class="cls-2" d="M25.44,465.68h0l1.17.93s.49-.61,1.3-1.65a21.67,21.67,0,0,1,.6-3.24C26.61,464.22,25.44,465.68,25.44,465.68Z"/><path class="cls-2" d="M30,462.1a1.6,1.6,0,0,0-.47-1.67l-1,1.29a21.67,21.67,0,0,0-.6,3.24c.53-.67,1.2-1.55,2-2.58Z"/><path class="cls-2" d="M28,462l1.24-1.75-.14-.08a1.32,1.32,0,0,0-1.36,0c-2.12,2.81-3.46,4.48-3.5,4.53l1.17.94h0C25.75,465.24,27.23,463,28,462Z"/><path class="cls-2" d="M29.27,460.28a1.43,1.43,0,0,1,.22.15c3.61-4.79,9.13-12.42,14.45-20.89Z"/><path class="cls-2" d="M28,462l-2.59,3.65s1.17-1.46,3.07-4h0C28.59,461.4,28.38,461.59,28,462Z"/><path class="cls-2" d="M28,462c.35-.44.56-.63.48-.31h0l1-1.29a1.43,1.43,0,0,0-.22-.15Z"/><path class="cls-2" d="M284.31,93.12v-90q-.75-.06-1.5-.09V93.18Z"/><path class="cls-2" d="M282.81,93.18V3.07q-.75,0-1.5,0V93.23Z"/><path class="cls-2" d="M282.81,1.54v0l1.5.08V1.51h-3Q282.06,1.51,282.81,1.54Z"/><path class="cls-2" d="M282.81,3.07q.75,0,1.5.09V1.62l-1.5-.08Z"/><path class="cls-2" d="M282.81,3.07V1.54q-.75,0-1.5,0V3Q282.06,3,282.81,3.07Z"/><path class="cls-2" d="M282.81,93.18l-1.5,0v27.36a14.78,14.78,0,0,0,1.5.07Z"/><path class="cls-2" d="M282.81,120.66c.51,0,1,0,1.5-.07V93.12l-1.5.06v27.48Z"/><path class="cls-2" d="M284.31,122.16v-.07c-.49,0-1,.07-1.49.07Z"/><path class="cls-2" d="M281.31,122.16h1.49c-.5,0-1,0-1.49-.07Z"/><path class="cls-2" d="M282.81,120.66a14.78,14.78,0,0,1-1.5-.07v1.5c.49,0,1,.07,1.49.07h0Z"/><path class="cls-2" d="M282.81,120.66h0v1.5h0c.5,0,1,0,1.49-.07v-1.5C283.81,120.63,283.32,120.66,282.81,120.66Z"/><polygon class="cls-2" points="284.51 329.07 283.01 329.1 283.01 430.27 284.51 430.27 284.51 329.07"/><path class="cls-2" d="M284.51,245.19c.5-.06,1-.09,1.5-.1V229.64h-1.5Z"/><polygon class="cls-2" points="284.51 430.27 286.01 430.27 286.01 329.05 284.51 329.07 284.51 430.27"/><path class="cls-2" d="M284.51,229.64H283v15.8c.5-.1,1-.19,1.5-.25Z"/><path class="cls-2" d="M284.51,187.69H286V153.09q-.75,0-1.5-.06Z"/><path class="cls-2" d="M284.51,153c-.5,0-1-.08-1.5-.14v34.79h1.5Z"/><path class="cls-2" d="M286,153.09v-.3h-1.5V153Q285.26,153.07,286,153.09Z"/><path class="cls-2" d="M284.51,152.79H283v.1c.5.06,1,.1,1.5.14Z"/><polygon class="cls-2" points="284.51 226.63 286.01 226.63 286.01 187.7 284.51 187.69 284.51 226.63"/><polygon class="cls-2" points="284.51 187.69 283.01 187.68 283.01 226.63 284.51 226.63 284.51 187.69"/><rect class="cls-2" x="283.01" y="228.14" width="1.5" height="1.5"/><rect class="cls-2" x="284.51" y="228.14" width="1.5" height="1.5"/><rect class="cls-2" x="284.51" y="226.64" width="1.5" height="1.5"/><rect class="cls-2" x="283.01" y="226.64" width="1.5" height="1.5"/><path class="cls-2" d="M284.51,248.21c-.48.07-1,.18-1.5.3V329.1l1.5,0Z"/><path class="cls-2" d="M284.51,248.21v80.86l1.5,0v-81A11.41,11.41,0,0,0,284.51,248.21Z"/><path class="cls-2" d="M284.51,245.19c-.5.06-1,.15-1.5.25V247q.76-.17,1.5-.27Z"/><path class="cls-2" d="M284.51,245.19v1.5c.51-.06,1-.1,1.5-.11v-1.49C285.51,245.1,285,245.13,284.51,245.19Z"/><path class="cls-2" d="M284.51,246.69q-.74.1-1.5.27v1.55c.52-.12,1-.23,1.5-.3Z"/><path class="cls-2" d="M284.51,248.21a11.41,11.41,0,0,1,1.5-.13v-1.5c-.49,0-1,0-1.5.11Z"/><rect class="cls-2" x="283.01" y="430.28" width="1.5" height="1.5"/><rect class="cls-2" x="284.51" y="430.28" width="1.5" height="1.5"/></g></g></svg>