<svg id="Layer_1" data-name="Layer 1" xmlns="http://www.w3.org/2000/svg" viewBox="0 0 576.75 879.07"><defs><style>.cls-1{fill:#777;}</style></defs><path id="hand-l" class="cls-1" d="M53.88,394.43a17.64,17.64,0,0,1-6.09-8.88,30.51,30.51,0,0,1-7.17,4.4c-6.84,3-13.41,6.12-18.6,10.59-6.75,5.82-12.48,12.94-18.24,20.34A5.61,5.61,0,0,0,3,424a3.19,3.19,0,0,0,.93,2.41,3.12,3.12,0,0,0,2.35.91,6.37,6.37,0,0,0,3.14-.73,38.63,38.63,0,0,0,6.9-6.12l3-3h0a29.6,29.6,0,0,1,4.09-3.31,30.2,30.2,0,0,1,5.72-3.69l1.12,2.78A25,25,0,0,0,25.89,416a147.61,147.61,0,0,1-16,22.75c-4.32,4.91-7.53,12.62-6.45,14.14.17.24,1.11.44,3.41-.5a4.44,4.44,0,0,1,1.06-.31c1.14-1.19,3.22-3.5,5.69-6.23,2.92-3.22,6.9-7.63,11.64-12.77l2.21,2c-4.73,5.12-8.71,9.53-11.62,12.74-3.09,3.42-4.87,5.39-6,6.5a11.22,11.22,0,0,1-1.54,2.43c-1.45,1.95-4.16,5.59-3.26,7.33a3,3,0,0,0,1.83,1.73c1.62.39,3.83-1.17,4.77-1.84a6,6,0,0,1,.8-.5c1.5-1.56,8.66-9.27,21.94-27.75l1.22.88h0l1.22.88c-13.64,19-20.81,26.63-22.3,28.2-.47,1.92.59,2.46,1,2.64,2,1,6.24.1,8.75-3.5l.31-.45c1.67-2.47,2.52-3.72,3.25-4.16,3.58-4.73,9.38-12.67,14.9-21.47l2.54,1.6c-5.72,9.11-11.72,17.3-15.31,22-1,4-.41,5.45.06,5.65,1.75.73,7.59-3.36,11.45-9.8a175.41,175.41,0,0,1,12-16.92c9-11.63,17.48-22.61,19.36-38.11A25.6,25.6,0,0,1,74,398.35a44.41,44.41,0,0,1-5.53.38Q59.47,398.73,53.88,394.43Z"/><path id="chest-r" class="cls-1" d="M286,245.09a11.44,11.44,0,0,1,5.28,1c7.11,3.38,11.76,14.56,17.16,41.27,8,39.48,36.4,39.69,43.31,39.14-2.07-13.9-3.47-31.81,2.41-49.86,3.71-11.4,6.58-20.67,9-29.18,1.09-3.79,1.94-7.72,2.92-12.26.38-1.76.79-3.62,1.23-5.61H286Z"/><path id="hand-r" class="cls-1" d="M517.6,394.63c-6.05,5.11-13.71,5.89-17.55,5.93a31.71,31.71,0,0,1,1.86,9.69,19.6,19.6,0,0,0,3.19,9.86c6.77,9.72,14,19.39,21,28.74l4.22,5.66c1.93,2.59,3.74,3.93,5.54,4.11a6.68,6.68,0,0,0,4.59-1.69c-2.11-3.05-8-11.42-10.86-13.9l1-1.13h0l1-1.13c3,2.65,8.86,10.86,11.18,14.19l.07-.06.94,1.53c3.69,6,8.08,7.55,9.51,7,.47-.19.64-.71.52-1.54-.19-.37-.43-.89-.76-1.62a134.31,134.31,0,0,0-13.19-22.75l2.46-1.72A138.36,138.36,0,0,1,555.73,459c.13.3.26.58.38.83a4.22,4.22,0,0,1,.64.55c1.16,1.19,2.59,2.37,4.88,1.31a3.22,3.22,0,0,0,1.07-.67h0a1.85,1.85,0,0,1,0-1.14c-2.43-4.56-11.23-20.84-15.81-27.23l2.44-1.75c4.94,6.91,14.31,24.35,16.3,28.09a2.84,2.84,0,0,0,2.55-1.18c1.09-1.5,1.32-4.57-.64-8-1.26-2.23-2.94-6-4.71-10.09-2.44-5.55-5.2-11.84-7.29-14.91-.26-.27-2-1.93-7.3-4.39l1.27-2.72c5.38,2.5,7.49,4.32,8.14,5,1.07.54,2.08,1.14,3.05,1.72,2.06,1.24,4,2.4,5.81,2.53a11.64,11.64,0,0,0,4.48-.83,4.09,4.09,0,0,0,2.36-2.11,4,4,0,0,0,.21-2.88c-.18-.12-.48-.28-.74-.43-3.34-1.86-13.48-7.51-35.94-32.06a35.87,35.87,0,0,0-6.33-5.06,54.8,54.8,0,0,1-5.13-3.84C524.46,386,521.84,391.05,517.6,394.63Z"/><path id="genitalia" class="cls-1" d="M311.45,453.6c3.51-6.81,7.05-13.68,11-20.32h-80.9c6.9,10.57,12.68,21.37,17.75,30.86a266.87,266.87,0,0,0,23.09,35.44l.52-.05a267,267,0,0,0,23-35.39C307.82,460.66,309.67,457.07,311.45,453.6Z"/><path id="knee-r" class="cls-1" d="M347,648.18q-.71-7.39-2-15.17c-1.4-8.6-2.86-17.46-1.55-25.91.53-3.41,1-6.82,1.56-10.24q.9-6,1.84-12A34.86,34.86,0,0,1,327,597.58a37.1,37.1,0,0,1-8,.84c-11.92,0-22.56-5.25-27.09-7.84-.18,12.07-.58,24.11-1,35.92-.24,7.16-.49,14.53-.69,21.83C297.77,643.67,321.37,632,347,648.18Z"/><path id="knee-l" class="cls-1" d="M217.65,580.89a99.72,99.72,0,0,1,.14,21.64,74,74,0,0,0,.11,12c.18,2.77.36,5.64.32,8.47-.07,6-.39,12.24-.92,18.65,29.48-12.68,47.32-.75,54,5.44A113.22,113.22,0,0,1,274,616c1.37-6,2.76-13,1.75-19.15a64.5,64.5,0,0,1-.72-6.8,82.14,82.14,0,0,1-25.84,4.63C238,594.68,225.91,591.62,217.65,580.89Z"/><path id="chest-l" class="cls-1" d="M260.88,274c3.08-11.38,5.74-21.22,12.37-24.71a38.55,38.55,0,0,1,9.76-3.85v-15.8H198.82a289.39,289.39,0,0,1,11.07,78.22c0,6.62,0,13.63-.45,20.83C247.42,323.69,254.88,296.18,260.88,274Z"/><path id="neck" class="cls-1" d="M313.34,113.26a23.9,23.9,0,0,1-3.9-12c-4.54,9.22-13.37,22.43-26.63,22.43-12.12,0-21.43-10.42-26.93-18.71,1.24,8,.55,16.11-6.87,22.42a77.53,77.53,0,0,1-17.33,11.26c1.78.2,3.85.43,6.1.7,9.58,1.14,22.21,2.92,27.49,4.82,1.33.49,2.69,1,4.12,1.6,7.95,3.17,16.95,6.76,27,2.2,6.89-3.12,27.56-7.73,39-10.14l3.12-.65C329.13,132.44,320.9,124.58,313.34,113.26Z"/><path id="sholder-r" class="cls-1" d="M412,180.48c-4.4-22.93-18-34.63-42.72-36.83-1.57-.14-3.15-.34-4.68-.54-1.93-.25-3.94-.5-5.89-.62a52.59,52.59,0,0,1-15.42-3.24c-4.24.85-37,7.53-45.6,11.44a26.5,26.5,0,0,1-11.12,2.41H286v73.55h82l.5-2.15.16.23c2.72-7.86,12.38-28.48,40.31-36.07,1.5-.4,3.07-.76,4.68-1.09A71,71,0,0,1,412,180.48Z"/><path id="sholder-l" class="cls-1" d="M268.28,148.53c-1.41-.56-2.74-1.09-4-1.55-8-2.89-35.07-5.61-38.42-5.93A62.6,62.6,0,0,1,206,144.69c-21,.45-33.72,7.31-41.16,22.24-2.05,4.1-3.87,8.43-5.62,12.61-.5,1.19-1,2.39-1.51,3.57-.36.85-.71,1.7-1.07,2.54q2,.51,3.9,1.08c32.13,9.75,37.14,33.73,37.89,39.91H283V152.89C277.61,152.25,272.65,150.28,268.28,148.53Z"/><path id="arm-r" class="cls-1" d="M447.83,258.16c-4.6-11.46-10.35-24.85-18-37.33-6-9.74-11.64-19.46-15.25-30.39C380,197.33,372,223.38,370.83,227.83l5.52,7.95c3.91,5.65,7.45,10.74,11,15.85,1.6,2.31,3.21,4.61,4.82,6.92,3.88,5.56,7.9,11.32,11.69,17.09,3.68,5.61,7.34,11.35,10.88,16.91l1.74,2.73,1.11.15c11.22,1.4,20.19-.46,26.7-5.57,7.37-5.78,9.5-14.24,10-17.31a3.84,3.84,0,0,1,.11-.69A86,86,0,0,1,447.83,258.16Z"/><path id="arm-l" class="cls-1" d="M195.53,228.17c0-1.24-1.31-30.25-40.1-39.72-1.08,2.57-2.17,5.13-3.25,7.7-3.33,7.93-6.77,16.13-10.3,24.13-1.49,3.36-3.18,6.68-4.81,9.88-2.17,4.27-4.42,8.67-6.16,13.15a133.38,133.38,0,0,1-12.41,24.55v.58c.54,7.89,3.35,13.79,8.37,17.53,9,6.75,22.92,4.9,27.5,4l1-.21,2.76-3.42c14.1-17.43,28.68-35.44,37.32-57.88Z"/><path id="forearm-r" class="cls-1" d="M482,311.48c-5.85-14-12-23.43-20.13-30.67a38.92,38.92,0,0,1-5-5.5,31.12,31.12,0,0,1-10.65,16.89c-5.65,4.45-12.92,6.69-21.67,6.69a58.56,58.56,0,0,1-5.92-.33c3.48,5.45,7.05,11,10.66,16.34q1.59,2.36,3.16,4.73c5.78,8.69,11.76,17.67,18.69,25.51,8.26,9.35,17.21,18.4,25.87,27.14,4.62,4.66,9.39,9.48,14,14.3a42.67,42.67,0,0,1,7.84,11h.69c3.17,0,10.63-.49,16.22-5.23,3.94-3.34,6.27-8.22,7-14.49,0-.31.07-.61.09-.93C504.82,355.61,491.47,334.2,482,311.48Z"/><path id="forearm-l" class="cls-1" d="M144.77,293.94c-6.21,0-13.72-1.15-19.64-5.56-5.07-3.77-8.16-9.37-9.25-16.65a104.44,104.44,0,0,1-11.72,13.82A77.61,77.61,0,0,0,88.6,308.4c-2.43,5.42-4.8,11-7.1,16.35-7.44,17.38-15.14,35.35-25.83,51.65a45.92,45.92,0,0,1-5.37,6.82.61.61,0,0,0,.06.31,14.94,14.94,0,0,0,5.4,8.56q6.36,4.85,18.24,3.24l1.28-.19A30.32,30.32,0,0,1,80,387.91c8.71-9.73,17.91-19.31,26.8-28.57,4.2-4.37,8.54-8.9,12.78-13.37a136.85,136.85,0,0,0,27.61-42.39,52,52,0,0,1,5.62-10.24A55.47,55.47,0,0,1,144.77,293.94Z"/><path id="abdomen-l" class="cls-1" d="M274.65,252c-5.47,2.88-8,12.13-10.87,22.84-5.5,20.33-12.89,47.55-46.15,55.45a79.68,79.68,0,0,1-8.39,1.5c-.86,11.94-2.82,24.33-7.17,36.32a92.76,92.76,0,0,0-5.27,21.77c18.44,9,32.4,24.9,43.51,41.56v-1.11H283V248.51A38.42,38.42,0,0,0,274.65,252Z"/><path id="abdomen-r" class="cls-1" d="M356.72,356.73c-1.52-8.92-3.08-18.13-4.5-27.23a43.5,43.5,0,0,1-13.77-1.37C326.52,325,311.07,315.52,305.51,288c-5.12-25.3-9.47-36.28-15.51-39.15a8.47,8.47,0,0,0-4-.77v182.2h36.8v2.37c9.42-15.8,21.12-30.23,39.85-39.2C360.86,381.09,358.77,368.81,356.72,356.73Z"/><path id="leg-_r" data-name="leg- r" class="cls-1" d="M345.11,695.92A160.51,160.51,0,0,0,347.3,652l-1.21-.82c-25.18-16.47-48.38-4.09-54.78,0l-1.22.82a16.55,16.55,0,0,1-.57,2.41c-.13.42-.25.84-.35,1.27-4.88,21.05-3.91,41.55,2.87,60.93,8.93,25.53,7.19,52.31,5.65,75.94a50.88,50.88,0,0,1-2.76,12c-.43,1.35-.86,2.72-1.24,4.1,14.48-10.4,32.35-2.94,38.7.33-.33-3.89-.51-7.84-.68-11.66l-.18-3.84c-.1-2.08-.32-4.24-.54-6.33-.49-4.75-1-9.67-.2-14.39C335.14,746.82,340.25,720.58,345.11,695.92Z"/><path id="leg-l" class="cls-1" d="M273.61,706.36c2.72-14.75,2.83-27.11.36-38.89a132.31,132.31,0,0,1-2.35-15.73c-.16-.21-.4-.49-.7-.83-4.05-4.57-20.87-20.11-52.44-6.5l-1.49.66c-.25,2.24-.67,4.47-1.08,6.64-.78,4.14-1.53,8-1.16,11.86,1.53,15.92,3.68,32.07,5.76,47.68q.92,6.82,1.8,13.64c.91,7,1.9,14,2.85,20.83,1.83,13,3.71,26.47,5.1,39.77a63.71,63.71,0,0,1-1.19,21.15c18.86-8.4,31.73-3.84,37.43-.65-2-9.14-3.42-18.5-2.78-27.63C265.6,752,270,726,273.61,706.36Z"/><path id="thigh-r" class="cls-1" d="M366.9,430.63c-.83-11.33-2.19-22.72-3.8-34.05-.48.23-1,.47-1.45.72-24.36,12.7-36.13,35.55-47.53,57.7-1.79,3.48-3.65,7.08-5.52,10.58-1.73,3.23-3.51,6.35-5.29,9.33a277.65,277.65,0,0,1-17.83,26.24,2.69,2.69,0,0,1,.26.92c.66,6.38,1.45,12.88,2.22,19.16,1.76,14.38,3.57,29.25,3.9,43.94.17,7.29.18,14.63.1,22l.78.46c4.55,2.67,19.19,10.24,33.61,7.08,8.46-1.86,15.52-7.13,21-15.66.19-.28.37-.56.55-.85,2.5-15.4,5.44-30.91,9.74-45.85C366.63,501.12,369.65,467.87,366.9,430.63Z"/><path id="thigh-l" class="cls-1" d="M280.39,501.89a264.77,264.77,0,0,1-15.52-22.24c-2.72-4.34-5.54-9.1-8.21-14.1-13.65-25.5-30.52-57-59.31-72.09l-.8-.4c0,.53-.07,1.07-.09,1.6-.79,27.73-1,56.08-.5,86.66.33,22.49,5,45.68,13.94,68.91a130.76,130.76,0,0,1,6.68,23.35c.15.3.31.6.47.89,14,25.66,47.92,15.9,56.69,12.84.45-.15.83-.29,1.14-.41a161.25,161.25,0,0,1,1.58-21.62c.3-2.54.6-5.08.86-7.63,1.34-13.17,2-26.64,2.72-39.67.28-5.42.57-11,.91-16.54Z"/><path id="head-l" class="cls-1" d="M260.34,9.7c-15.21,10.2-20.53,25.33-15.82,45l.32,1.33-1.3.44c-3.14,1.06-5.24,2.65-6.24,4.74-1.1,2.31-1,5.4.44,9.17a50.23,50.23,0,0,1,1.49,5.09c1.56,6.11,2.92,11.39,10.72,12.72l.83.14.31.79c.26.67.57,1.38.9,2.13s.7,1.64,1,2.51h0l.25.54c1.73,3.65,12.48,25,28,26.31V3A37.15,37.15,0,0,0,260.34,9.7Z"/><path id="head-r" class="cls-1" d="M323.45,56.4l-1.27-.4.27-1.31c4.16-20.12-1.29-34.51-16.65-44C300,7.1,292.54,3.81,284.31,3.16V120.59c15.51-1.44,24.38-24.68,25.72-28.43.07-.19.12-.34.15-.43.24-1.29.53-2.54.83-3.73l.57-2.28,1.83,1.48c2,1.6,3.64,2.25,5,1.94s2.88-2,4.3-5.11c2.15-4.74,4.59-10.1,5.94-15.59C330.22,61.92,328.57,58.09,323.45,56.4Z"/><path id="feet-l" class="cls-1" d="M269.1,816.66c-.55-2.14-1.1-4.3-1.62-6.47-.27-.2-.67-.49-1.2-.84-4.16-2.7-16.54-8.59-35.91,0-.76.34-1.54.7-2.33,1.08-3.21,10.4-9.41,19.69-18.59,27.75a60.41,60.41,0,0,0-14,17.54,14,14,0,0,0-1.36,4.47,20.44,20.44,0,0,0,4.35-1.82l.82-.55a2.63,2.63,0,0,0,1.28-1.85h3c0,4.47-6.76,6.65-9.48,7.34a13.56,13.56,0,0,0,1.55,5,6.73,6.73,0,0,1,3.89-6l1.49-.64c3.35-1.42,8.95-3.79,8.07-5.9l2.77-1.15c1.78,4.28-3.26,7-7.86,9-.61.28-1.22.54-1.81.78l-1.46.63c-2.3,1-2.26,3.89-2,5.53a6.55,6.55,0,0,0,.23,1.17l-.55.16a14.23,14.23,0,0,0,5,3.15,8.65,8.65,0,0,1-.62-6c.73-2.22,2.61-3.81,5.59-4.72,6-1.85,9.51-9.65,9.55-9.73l2.74,1.21c-.13.3-2.78,6.19-7.71,9.57a13.85,13.85,0,0,1-3.7,1.82c-2,.61-3.21,1.54-3.61,2.78-.59,1.76.46,4,1.19,5.22.12.2.24.37.33.5l-.24.19a15.07,15.07,0,0,0,3.55-.09c.9-.14,1.8-.23,2.69-.28-1.28-1.76-2.7-4.25-2.5-6.46a4.07,4.07,0,0,1,.05-.49,4,4,0,0,1,1.87-2.61,5.75,5.75,0,0,1,.65-.34l.13-.06c3.37-1.48,10.37-4.56,11.47-7.54a1.67,1.67,0,0,0-.07-1.4l1.35-.66,1.35-.65a4.71,4.71,0,0,1,.18,3.75,7.8,7.8,0,0,1-2,2.87L214,868.6a1,1,0,0,0-.38.56c-.29,1.43,1.5,4.2,3,6l.27.31c1.78,0,3.54.17,5.27.29,4.66.33,9.06.64,13.38-.59,3.5-1,8.42-7.31,10.27-11.22a54.92,54.92,0,0,1,14.38-19C269.29,837.29,272.11,828.27,269.1,816.66Z"/><path id="feet-r" class="cls-1" d="M382.1,861.17c-2.3-.76-8.37-2.78-12.91-6.77l1-1.12,1-1.13A30.87,30.87,0,0,0,380,857.2a126.52,126.52,0,0,0-17.62-16.05c-10.91-8.18-21.11-13-27.77-25.49-.64-1.2-1.11-2.22-1.41-2.89-.23-.15-1-.59-2.16-1.19-6.07-3.12-23.32-10.33-36.62.33-.45.36-.9.73-1.34,1.13l-.34-.39L292,815.2a72,72,0,0,0-2.65,13.07c-.74,9.86,3.43,13.94,11.92,18.42a86.07,86.07,0,0,1,21.43,15.43C331.4,871,355,879,367.22,875l.39-.13-.3-.2a2.5,2.5,0,0,0,.21-.35c.66-1.12,1.7-3.5,1-5.16l-.12,0-8.79-3.81h0a16.1,16.1,0,0,1-5.74-5.59c-1.28-1.84-2-2.8-3.32-3l.2-1.48.2-1.49c2.68.36,4.06,2.33,5.39,4.24,1.74,2.49,3.53,5.08,8.56,5.91,3.33.56,5.49,1.94,6.42,4.11a7.84,7.84,0,0,1-.1,5.6,39.48,39.48,0,0,0,5.36-2.59,3.46,3.46,0,0,0,.87-2.29c0-.13,0-.26,0-.39-.19-1.35-1.4-3.47-6.08-5.91a18.17,18.17,0,0,1-1.68-1,19.35,19.35,0,0,1-7.23-7.49l1.36-.62,1.37-.62a17.42,17.42,0,0,0,7.57,7.05c4.69,2.44,7.27,5.21,7.67,8.21v.16C381,865.77,381.53,863.47,382.1,861.17Z"/></svg>