<svg id="jaw" xmlns="http://www.w3.org/2000/svg" viewBox="0 0 554.59 74.44"><defs><style>.cls-1{fill:#d44748;opacity:0.48;}</style></defs><path id="UR-gum" class="cls-1" d="M282.58,2V59.63a33.73,33.73,0,0,1-3.39-.5l-.17,0-.12,0c-.5-.1-1.55-.33-2.25-.51a2.88,2.88,0,0,1-.4-.09l-.13,0-.33-.1a9.51,9.51,0,0,1-2.9-1.54c-2.14-1.72-4.72-2-7.87-.92a82.46,82.46,0,0,1-7.87,2.52c-5,1.28-10.15,1.06-15.09.84l-1.48-.06a4.35,4.35,0,0,1-3.38-1.34.65.65,0,0,0-.33-.07l-.33,0a17,17,0,0,0-5.85.23l-1.12.17a6.2,6.2,0,0,0-2.4.54,10.55,10.55,0,0,1-5.12,1.51c-2.31.07-4.6.18-7.34.34a48.45,48.45,0,0,0-7.86.85,17.79,17.79,0,0,1-6.74-.23l-1.93-.29a66.34,66.34,0,0,0-11.47-.9,20.72,20.72,0,0,0-3.44.41l-1,.2a12.52,12.52,0,0,0-5,1.77,6.57,6.57,0,0,1-7.23.74l-.65-.29c-.51-.23-1-.46-1.53-.71-1.17-.57-2.32-1.17-3.46-1.77a13.32,13.32,0,0,0-3.27-.93l-.15,0-.09.07-.25-.12a8.41,8.41,0,0,0-3.14.33c-2.79.58-4.87,2.29-7.07,4.11l-.83.68a3.26,3.26,0,0,1-2.41,1.06,17.41,17.41,0,0,1-4.62-.57,18.12,18.12,0,0,0-6-.81l-1.06,0a4,4,0,0,0-2.23.6c-.77.45-1.56.87-2.35,1.28l-1.12.6a16.58,16.58,0,0,1-6.2,2A61.82,61.82,0,0,1,111.36,68l-2.14-.23-2.45-.28a33.5,33.5,0,0,0-9.23-.27l-1.29.2c-2.73.42-5.56.85-8.34,1.23a27.39,27.39,0,0,1-8.38.31,15,15,0,0,0-3.12-.33,25.24,25.24,0,0,1-8.56-.84,11.56,11.56,0,0,0-7.68.08A41.93,41.93,0,0,1,47.11,70a7.68,7.68,0,0,0-3.75.94,9.2,9.2,0,0,1-2.5.94c-2,.43-4.1.77-6,1.07-.41.07-.81.16-1.22.26a8.2,8.2,0,0,1-3.86.24,4.15,4.15,0,0,0-2.1,0,28,28,0,0,1-5.16,1,16.94,16.94,0,0,1-8.13-1,3.41,3.41,0,0,1-.88-.6,1.54,1.54,0,0,0-.72-.46l-1.27-.2a15.6,15.6,0,0,0-5-.32c-1.66.25-3.28.41-5,.59l-1.35.14v0c0-2-1-22.4,1.84-37.87.63-3.48,2-11.13,4.67-16.08C18.09-2.86,66.28,1.18,78.06,2.1c34.57,2.7,78,3.07,135,1.7,17.07-.41,35.35-1,55-1.69h.14l6.5-.12Z"/><path id="UL-gum" class="cls-1" d="M554.44,73.54v-1.4c0-.45,0-.78,0-.82,0-1.59,1-22.29-1.84-37.92-.63-3.47-2-11.13-4.67-16.08C536.5-4.06,488.31,0,476.53.91,431.58,4.42,371.14,5.06,286,2h-3.37V59.63a35.2,35.2,0,0,0,5.24.09,5.57,5.57,0,0,0,2.18-.55c3-1.4,6.36-1.75,10.78-1.13A31.3,31.3,0,0,1,308,59.65a13.83,13.83,0,0,0,7.65.43,38.07,38.07,0,0,1,4.39-.51,40.41,40.41,0,0,0,4.33-.49,61.48,61.48,0,0,1,7.34-.69,6.65,6.65,0,0,1,3.69.67c3.54,1.82,7.51,2.53,12.83,2.3a12.57,12.57,0,0,0,5.07-1.75,13.09,13.09,0,0,1,11.95-.24,4.55,4.55,0,0,0,2.77.27,54.38,54.38,0,0,1,12.53-1,3.13,3.13,0,0,1,1.82.71,19.7,19.7,0,0,0,7.89,3.19,4.79,4.79,0,0,0,2.43-.34,15.36,15.36,0,0,1,3.67-1,11.36,11.36,0,0,1,4.1,1.06c1.1.4,2.14.81,3.19,1.21,1.26.49,2.55,1,3.86,1.45a7.33,7.33,0,0,0,4.74-.07l1.85-.58a19.92,19.92,0,0,1,7.56-1.39l2.39.39c.67.11,1.34.2,2,.29a34.26,34.26,0,0,1,3.44.57,37,37,0,0,1,3.58,1.1,31.56,31.56,0,0,0,4.28,1.26c1.63.33,3.27.82,4.85,1.31a38.62,38.62,0,0,0,6.63,1.6c4.93.56,10.53,1.2,15.95-.38.48-.14,1-.31,1.43-.48l.87-.28c5.52-1.5,11.15-.59,16.59.3l.41.06a11.77,11.77,0,0,0,4.68-.47,33.58,33.58,0,0,1,8.64-.67,58.63,58.63,0,0,1,8.5.53,5.84,5.84,0,0,1,1.59.53,69.14,69.14,0,0,0,9.13,3.85,40.71,40.71,0,0,0,21.45,1l.26-.06a18.54,18.54,0,0,0,2.62-.76c1.26-.49,2.16-.87,2.32-.94C544.48,71.17,547.26,71.15,554.44,73.54Z"/></svg>