<svg id="jaw" xmlns="http://www.w3.org/2000/svg" viewBox="0 0 554.59 72.53"><defs><style>.cls-1{fill:#d44748;opacity:0.48;}</style></defs><path id="LR-gum" class="cls-1" d="M282.58,14.89V72.53h-7.9C83.7,69.11,17.35,49.5,8.25,38.46,1.24,30,.31,10.7.2,3.78V3.17c0-.22,0-.42,0-.59L.16,2l1.35.14c1.72.18,3.34.34,5,.59a15.6,15.6,0,0,0,5-.32l1.27-.2a1.54,1.54,0,0,0,.72-.46,3.41,3.41,0,0,1,.88-.6,16.94,16.94,0,0,1,8.13-1,28,28,0,0,1,5.16,1,4.15,4.15,0,0,0,2.1,0,8.2,8.2,0,0,1,3.86.24c.41.1.81.19,1.22.26,1.92.3,4,.64,6,1.07a9.2,9.2,0,0,1,2.5.94,7.68,7.68,0,0,0,3.75.94A41.93,41.93,0,0,1,60.17,6.69a11.56,11.56,0,0,0,7.68.08,25.24,25.24,0,0,1,8.56-.84,15,15,0,0,0,3.12-.33,27.39,27.39,0,0,1,8.38.31c2.78.38,5.61.81,8.34,1.23l1.29.2a33.5,33.5,0,0,0,9.23-.27l2.45-.28,2.14-.23a61.82,61.82,0,0,1,12.27-.51,16.58,16.58,0,0,1,6.2,2l1.12.6c.79.41,1.58.83,2.35,1.28a4,4,0,0,0,2.23.6l1.06,0a18.12,18.12,0,0,0,6-.81,17.41,17.41,0,0,1,4.62-.57,3.26,3.26,0,0,1,2.41,1.06l.83.68c2.2,1.82,4.28,3.53,7.07,4.11a8.41,8.41,0,0,0,3.14.33l.25-.12.09.07.15,0a13.32,13.32,0,0,0,3.27-.93c1.14-.6,2.29-1.2,3.46-1.77.51-.25,1-.48,1.53-.71l.65-.29a6.57,6.57,0,0,1,7.23.74,12.52,12.52,0,0,0,5,1.77l1,.2a20.72,20.72,0,0,0,3.44.41,66.34,66.34,0,0,0,11.47-.9l1.93-.29a17.79,17.79,0,0,1,6.74-.23,48.45,48.45,0,0,0,7.86.85c2.74.16,5,.27,7.34.34a10.55,10.55,0,0,1,5.12,1.51,6.2,6.2,0,0,0,2.4.54l1.12.17a17,17,0,0,0,5.85.23l.33,0a.65.65,0,0,0,.33-.07,4.35,4.35,0,0,1,3.38-1.34l1.48-.06c4.94-.22,10.05-.44,15.09.84A82.46,82.46,0,0,1,265,18.66c3.15,1.1,5.73.8,7.87-.92a9.51,9.51,0,0,1,2.9-1.54l.33-.1.13,0a2.88,2.88,0,0,1,.4-.09c.7-.18,1.75-.41,2.25-.51l.12,0,.17,0A33.73,33.73,0,0,1,282.58,14.89Z"/><path id="LL-gum" class="cls-1" d="M554.44,1V1.9c0,.24,0,.68,0,1.3-.09,7-.94,26.59-8.07,35.26-2,2.46-5.6,11.16-56.48,19.53C440.62,66.1,372,71,286,72.53h-3.37V14.89a35.2,35.2,0,0,1,5.24-.09,5.57,5.57,0,0,1,2.18.55c3,1.4,6.36,1.75,10.78,1.13A31.3,31.3,0,0,0,308,14.87a13.83,13.83,0,0,1,7.65-.43,38.07,38.07,0,0,0,4.39.51,40.41,40.41,0,0,1,4.33.49,61.48,61.48,0,0,0,7.34.69,6.65,6.65,0,0,0,3.69-.67c3.54-1.82,7.51-2.53,12.83-2.3a12.57,12.57,0,0,1,5.07,1.75,13.09,13.09,0,0,0,11.95.24,4.55,4.55,0,0,1,2.77-.27,54.38,54.38,0,0,0,12.53,1,3.13,3.13,0,0,0,1.82-.71A19.7,19.7,0,0,1,390.28,12a4.79,4.79,0,0,1,2.43.34,15.36,15.36,0,0,0,3.67,1,11.36,11.36,0,0,0,4.1-1.06c1.1-.4,2.14-.81,3.19-1.21,1.26-.49,2.55-1,3.86-1.45a7.33,7.33,0,0,1,4.74.07l1.85.58a19.92,19.92,0,0,0,7.56,1.39l2.39-.39c.67-.11,1.34-.2,2-.29a34.26,34.26,0,0,0,3.44-.57,37,37,0,0,0,3.58-1.1A31.56,31.56,0,0,1,437.38,8c1.63-.33,3.27-.82,4.85-1.31a38.62,38.62,0,0,1,6.63-1.6c4.93-.56,10.53-1.2,15.95.38.48.14,1,.31,1.43.48l.87.28c5.52,1.5,11.15.59,16.59-.3l.41-.06a11.77,11.77,0,0,1,4.68.47,33.58,33.58,0,0,0,8.64.67,58.63,58.63,0,0,0,8.5-.53,5.84,5.84,0,0,0,1.59-.53,69.14,69.14,0,0,1,9.13-3.85,40.71,40.71,0,0,1,21.45-1l.26.06c5.17,1.16,3.51,2.36,8.93,1.63a28.86,28.86,0,0,0,6.48-1.53Z"/></svg>