<svg id="Layer_1" data-name="Layer 1" xmlns="http://www.w3.org/2000/svg" viewBox="0 0 545.5 881.08"><defs><style>.cls-1{fill:#777;}</style></defs><path id="feet-r-b" class="cls-1" d="M288.05,841.73q-2.87,0-6-.24c-.29,1.2-.58,2.41-.89,3.61-2.47,9.36-1.14,17.19,3.74,22.06s13,6.29,22.59,3.75l1.76-.5c1-.3,2-.6,3.06-.82,2.89-.63,5.77-1.28,8.65-1.93,7.15-1.62,14.49-3.29,21.8-4.5l1.37-.23c8.93-1.47,18.16-3,24.83-10.19,3.84-4.14,5.38-8.34,4.34-11.81s-4.52-6-9.86-7.38a60.61,60.61,0,0,0-9-1.3c-1.65-.16-3.33-.32-5-.54-5.93-.82-11.85-1.67-17.32-2.45l-6.16-.88C324.22,830.18,312,841.73,288.05,841.73Z"/><path id="leg-r" class="cls-1" d="M256.09,797.06a64.58,64.58,0,0,0,1.13,16l.61,3c.36,1.87.74,3.73,1.12,5.57v.13c.48,2.3,1,4.68,1.4,7,.55,3,1.22,5.86,1.83,8.29-27.61,1.93-42-10.7-43.61-12.26.91-1.61,1.45-3.92,1.71-7.23q.32-4.18.43-8.33l0-3.7c.22-20.89-3-40.85-6.27-58.07-3.53-18.55-6.91-36.75-9-55.38-.69-6.08.13-12.46.92-18.65.2-1.6.4-3.23.59-4.86,3.41,3.25,12.85,10.79,26.43,10.79,8.56,0,18.77-3,30.17-11.91a155,155,0,0,0,2.95,19.16c2.84,13.55,1,26.43-1.46,40.66C260.72,752.29,257.78,775.12,256.09,797.06Z"/><path id="thigh-l-b" class="cls-1" d="M240.71,516.83a78.68,78.68,0,0,1-15,1.52c-16.24,0-29.67-5.87-39.5-17.31,1.46,21.29,5.09,43.86,13.42,66.12,5.39,14.39,10.55,29.84,9.25,46.59a168.37,168.37,0,0,0-.12,17.11c.11,3.94.22,8,.14,11.94-.12,5.31-.58,10.69-1,15.89-.17,2-.34,4-.49,5.95v.14a1.41,1.41,0,0,1,.49.38c.89,1,22,25,54.12-.21a1.51,1.51,0,0,1,1.49-.21,87.31,87.31,0,0,1,2.12-26.28c2-7.91,3.49-15,2.45-21.58-1.86-11.75-.58-22.8.77-34.49q.34-2.91.66-5.83c1.25-11.57,1.67-27.2,2.09-42.31.22-8.25.43-16,.76-23.12v-5.66A116.53,116.53,0,0,1,240.71,516.83Z"/><path id="thigh-r-b" class="cls-1" d="M319.19,518.37a67.8,67.8,0,0,1-14.06-1.53,103,103,0,0,1-29.88-11.68v5.7c.26,2.59.52,5.23.8,7.92l.16,1.64c3.18,31.35,6.77,66.89,5.89,94.7a143.68,143.68,0,0,0,1.67,27.41,65.12,65.12,0,0,1,.33,20,1.46,1.46,0,0,1,.76.39c.87.87,21.24,20.71,52.15-.19a1.49,1.49,0,0,1,.92-.25c-.48-5.46-1.19-11-2.22-16.44l-.07-.38c-1.17-6.27-2.38-12.75-1.39-18.82.8-4.93,1.56-9.87,2.32-14.81,3-19.38,6.1-39.41,11.49-58.47a279.33,279.33,0,0,0,9.63-54.29C348.29,511.87,335.16,518.37,319.19,518.37Z"/><path id="sacrum-b" class="cls-1" d="M253.7,420.25a67.46,67.46,0,0,1,19.06,22.63c3.15-9.7,10.52-16.87,17.5-22.85l-18.19-20.88Z"/><path id="arm-r-b" class="cls-1" d="M435.87,295.2a18.88,18.88,0,0,0,1.34-13.53,1.52,1.52,0,0,1,.12-1.25A88,88,0,0,1,428,260.34c-3.21-9.5-7.72-18.76-12.07-27.72-.85-1.75-1.69-3.48-2.52-5.21-.61-1.26-1.23-2.51-1.86-3.77a32.49,32.49,0,0,1-11.2,18.16c-8.9,7.2-21.72,9.8-38.11,7.77l.06.06,1.63,2,10.3,13.09c10.7,13.58,21.77,27.63,32.7,41.66l.7.9c1.4,1.78,2.82,3.61,4.06,5.51C424.11,308.62,432.25,302.69,435.87,295.2Z"/><path id="forearm-r-b" class="cls-1" d="M486.47,401.76c7.76-3.82,10.37-13.3,10.4-13.4a1.43,1.43,0,0,1,.08-.22c-10.53-13.72-16.45-29.35-20.44-41.57C468.65,322.52,458,303.68,444.05,289c-1.11-1.17-2.18-2.39-3.19-3.66a22.55,22.55,0,0,1-2.25,11.13c-3.91,8.15-12.45,14.54-25.38,19a22.65,22.65,0,0,1,1.1,2.34c10.75,27.48,29,49.15,43.65,65a55.32,55.32,0,0,1,11.17,18.32,1.68,1.68,0,0,1,.54.11C476.15,403.87,481.8,404.06,486.47,401.76Z"/><path id="hip-r-b" class="cls-1" d="M353.34,423.07c-20.37-13.33-57-2.5-60.24-1.51-7.07,6-14.77,13.18-17.68,22.87l-.56,3.34.37,53.94a1.42,1.42,0,0,1,.4.17,101.27,101.27,0,0,0,30.19,12c22,4.58,39-1.4,50.45-17.75a1.5,1.5,0,0,1,1.73-.55,306.54,306.54,0,0,0-.76-48.95c-.74-7.79-1.69-15.6-2.76-23.4h-.32A1.46,1.46,0,0,1,353.34,423.07Z"/><path id="leg-r-b" class="cls-1" d="M333.58,733.53c-1.29,7.87-3,15.79-4.67,23.45-1.84,8.46-3.75,17.25-5.08,26-1.08,7-.85,14.37-.62,21.46l.06,2.42.16,3.68v.69c0,3.28.39,6.57.79,10.38.13,1.3.28,2.67.42,4.13a1.47,1.47,0,0,0-.65.38c-.13.15-13.6,14.41-41.21,12.41a208.72,208.72,0,0,0,3.54-20.93l.32-3.15a331.39,331.39,0,0,0,1.27-45c-.43-14-3.77-28.45-7.17-42-4.41-17.78-3.79-36.24,2-58.08.32-1.22.6-2.43.84-3.65a40.85,40.85,0,0,0,26,9.41c8.13,0,17.81-2.43,28.61-9.6C339.89,689.61,337,713,333.58,733.53Z"/><path id="feet-l-b" class="cls-1" d="M216.51,827c-2,1.24-4.9,1.31-9.76.23-1.08-.24-2.16-.49-3.23-.75a59.18,59.18,0,0,0-12.67-2.05h-.24a10.77,10.77,0,0,0-8.29,3.25c-2.1,2.35-3,5.75-2.48,9.84a20.68,20.68,0,0,0,12,16.85c19.19,9,35.31,16.08,50.72,22.25a19.94,19.94,0,0,0,7.43,1.49,18,18,0,0,0,12.62-5.28c6.08-5.87,5.23-13.47,3.59-20.13-.64-2.62-1.35-5.29-2-7.86v-.13c-.42-1.55-.83-3.11-1.24-4.68-2.26.17-4.45.26-6.55.26C231.42,840.26,218.52,828.9,216.51,827Z"/><path id="hand-r-b" class="cls-1" d="M487.79,404.45a18.74,18.74,0,0,1-8.38,1.91,27.08,27.08,0,0,1-9.12-1.74c.21.78.41,1.56.57,2.33.6,2.77,1.09,5.34,1.57,7.81,2.86,14.71,4.74,24.43,18.46,35.23.92.72,10,8.81,10.79,9.69,18.52,19.88,22.14,20.07,22.8,19.66a.65.65,0,0,0,.24-.45l.16-.91c-5.57-8.65-13.33-20.26-14.65-21.32a1.5,1.5,0,0,1,1.87-2.34c2.27,1.81,13.87,19.79,16.17,23.37a1.53,1.53,0,0,1,.1,1.44,8.43,8.43,0,0,0,2.22,1.66,3.52,3.52,0,0,0,2.36-.35c.28-.23.32-.57.36-1.11v-.61a1.67,1.67,0,0,1-.46-.56c-5.8-12.66-13.45-26.88-15.7-27.78a1.52,1.52,0,0,1-.86-1.94,1.5,1.5,0,0,1,1.91-.87c4.4,1.65,14.41,22.88,17.38,29.34a1.53,1.53,0,0,1,.13.59c1-.13,1.54-.29,1.88-.82.63-1,.34-3.49-.86-7.34l-12.11-22.59a1.5,1.5,0,1,1,2.65-1.42l11.79,22A1.31,1.31,0,0,0,540,467c.75-.74,1.38-3.46-2.8-13.34-2.33-5.5-4.92-10.88-7.65-16.58L524.72,427l5.58,5a26,26,0,0,0,6.46,4.7,6.64,6.64,0,0,0,3.56.26l.44-.08.18.07a4,4,0,0,0,1.45-1.89c.51-1.62-.75-3.17-1.9-4.18A67,67,0,0,1,533.4,423a69.26,69.26,0,0,0-7.48-8.21c-3.25-2.83-5.93-5.57-8.53-8.23a104.5,104.5,0,0,0-11.15-10.3c-.78-.6-1.61-1.19-2.42-1.76a34.79,34.79,0,0,1-4.62-3.67C498,394.07,494.7,401.05,487.79,404.45Z"/><path id="neck-b" class="cls-1" d="M294.2,139.32c11.79.5,16.38-1,27-4.58-2.17-1.22-4.4-2.52-6.7-3.94-11-6.79-13.16-17-12.59-30.2-8.33,10.49-17.67,15.93-27.79,16.14h-1.73a1.5,1.5,0,0,1-.3,0,1.32,1.32,0,0,1-.39-.06c-13.43-.81-24.17-10.39-28.34-14.68-.19,8.41-1.85,17.29-10,22.78-5.2,3.5-10.48,7-16,10.14a58.66,58.66,0,0,0,22.17,3.76C252.55,138.4,279.66,138.71,294.2,139.32Z"/><path id="hip-l-b" class="cls-1" d="M186.09,496.14c27.82,37.59,81.32,8.64,86.14,5.92l-.37-54a63.63,63.63,0,0,0-20.93-26.15l-.32-.24a1.72,1.72,0,0,1-.27-.27c-4.48-2-37.38-15.43-63.06,7.45a1.43,1.43,0,0,1-.73.33c-.73,12.63-1.16,25.14-1.25,37.33-.08,9.34,0,19.2.57,29.38A1.71,1.71,0,0,1,186.09,496.14Z"/><path id="hand-l-b" class="cls-1" d="M55.94,387.82A60.28,60.28,0,0,1,43.38,398.9a53.85,53.85,0,0,0-13.8,12.48,120.23,120.23,0,0,1-8.1,9c-8.77,8.87-18,19.46-18.4,21.84-.08.54-.4,3.28,1.1,4.19,1.24.76,3.5.12,6.61-1.81l.3-.14c1.48-.51,3.94-2.91,6.16-5.19l6.89-7.1L19.66,441c-.22.43-.47.94-.68,1.47l-.54,1.32c-1.93,4.75-3.92,9.67-6.18,14.12-4.81,9.47-4.45,12.13-3.8,12.87s2.24.34,3.74-.17l16.72-29.08a1.5,1.5,0,0,1,2.67,1.37.75.75,0,0,1-.07.12L13.69,474a1.54,1.54,0,0,1-.28.34c-1.77,4.59-1.06,5.43-.77,5.57.54.27,2.43-.27,5.48-2.79L37.5,449.06a1.51,1.51,0,1,1,2.5,1.71l-19.31,28c-.76,5,.13,6.1.55,6.33s1.89.22,5.32-3.09l.54-.52a1.69,1.69,0,0,1,.23-.49L46,455.4a1.5,1.5,0,1,1,2.48,1.69l-.06.08-18.7,25.55a1.42,1.42,0,0,1-.66.5v.12c-.22,1.08.08,1.29.18,1.36,2,1.37,13.65-6.7,15.47-8.94s3.84-4.62,5.79-6.92c10.06-11.94,20.47-24.29,25.3-40a199,199,0,0,1,8.41-22.43c-.69,0-1.38.07-2,.07C64.57,406.47,57.93,393.27,55.94,387.82Z"/><path id="shoulder-r-b" class="cls-1" d="M187.29,247.22c20.14.95,47.37-14.42,66.16-29.16a31.74,31.74,0,0,1,17.12-6.71V141.72c-11.61-.17-23.59-.2-31,0a62.05,62.05,0,0,1-25.69-4.91,64.87,64.87,0,0,1-25.19,7.64,30.88,30.88,0,0,0-23.31,12.75l-.66.92c-6.12,8.52-12.44,17.33-15.39,27-1.68,5.49-3.27,11.11-4.81,16.55-1.13,4-2.27,8-3.46,12a1.31,1.31,0,0,1,.21.36C141.37,214.35,153.16,245.56,187.29,247.22Z"/><path id="shoulder-l-b" class="cls-1" d="M322.63,137.41c-9.69,3.29-14.75,5-24.37,5-1.31,0-2.69,0-4.18-.09-5.52-.23-12.84-.42-20.51-.55v69.49a32,32,0,0,1,17.73,5.64c16.35,11.23,41.65,25.44,69.35,29.45,16.46,2.37,29.17.07,37.76-6.85a29.82,29.82,0,0,0,10.64-19.2,1.48,1.48,0,0,1,.34-.85c-1.06-2.06-2.13-4.1-3.18-6.1-3.11-5.92-6.32-12-9.12-18.22a83.83,83.83,0,0,1-3.75-10.89,74.71,74.71,0,0,0-4.2-11.81c-7-14.21-19.5-22.67-39.39-26.63a91.85,91.85,0,0,1-25-9.13l-.1.05Z"/><path id="head-r-b" class="cls-1" d="M274.05,113.74c9.49-.2,18.32-5.58,26.26-16a1.51,1.51,0,0,1,2-.36A5.27,5.27,0,0,1,304.6,95c9.4-4.17,11.85-12.89,13.4-20.74,1.15-5.68,1.36-12.63-7.2-16.08l-1.17-.47.26-1.23c4.73-22.34-2.14-38.6-20.42-48.34a42.45,42.45,0,0,0-15.9-4.94V113.75Z"/><path id="head-l-b" class="cls-1" d="M243.78,98.05c.13.15,11.74,13.88,26.79,15.53V3c-8.71-.14-17.3,2.75-25.58,8.57-14,9.89-18.55,24.11-13.77,43.49l.31,1.26-1.19.49c-8.31,3.42-9.87,6.89-7,15.48A45.56,45.56,0,0,0,241,96.15a7.08,7.08,0,0,1,1.46,1.38A1.48,1.48,0,0,1,243.78,98.05Z"/><path id="upperBack-r-b" class="cls-1" d="M354.74,267.26c-4.37,14.86-8.88,30.23-12.2,45.53-2.48,11.41-1.23,24.12-.08,32.68l.42,3c-.49,0-49.79.4-69.28-37.18V214.26a29,29,0,0,1,16,5.12c16.55,11.36,42.17,25.75,70.33,29.89l-.26.91c-1.61,5.69-3.3,11.42-4.89,17"/><path id="lowerBack-r-b" class="cls-1" d="M354,420c-20.85-12.7-54.88-3.37-61.12-1.5L273.6,396.3V317.41c20.83,33.14,63.72,33.93,67.61,33.93l2.06-.06c1.63,11.44,3.52,22.92,5.35,34.08C350.49,396.73,352.39,408.33,354,420Z"/><path id="forearm-l-b" class="cls-1" d="M99.49,299.31c-5.46,8.61-10.9,17.4-15.67,26.4-7.07,13.35-12.12,27.53-17.53,43.35A58.24,58.24,0,0,1,58.17,385c.43,1.79,5.37,20,26.61,18.39a1.53,1.53,0,0,1,.73.13,192.33,192.33,0,0,1,23.41-38.08c2.81-3.57,5.79-7.14,8.68-10.59,7.39-8.84,15-18,20.53-28C133.25,326.39,104.6,322.84,99.49,299.31Z"/><path id="lowerBack-l-b" class="cls-1" d="M251.23,418.52l19.34-22.22V315.81c-8.22,9.21-33.33,33.57-70,34.8a140.38,140.38,0,0,1-8.2,41.39,86.37,86.37,0,0,0-4.91,23.46c-.25,3.3-.46,6.59-.67,9.88C213,403.56,245.33,416,251.23,418.52Z"/><path id="upperBack-l-b" class="cls-1" d="M270.57,311.19V214.36a28.83,28.83,0,0,0-15.27,6.06c-9,7.05-39.5,29.39-65.32,29.83v.14c1,5.69,2,11.43,3.06,17,2.48,13.3,5,27,6.24,40.69a307.09,307.09,0,0,1,1.44,39.54C240.86,346.13,266.69,316,270.57,311.19Z"/><path id="arm-l-b" class="cls-1" d="M139.75,218a209.24,209.24,0,0,1-12.07,31.67c-1.05,2.14-2.08,4.29-3.11,6.44-2.91,6.05-5.91,12.31-9.39,18.15-3.92,6.59-8.12,13.16-12.17,19.52l-1.13,1.77v.17c3,26.15,36.74,28.13,37.08,28.15a1.47,1.47,0,0,1,.64.18,591.63,591.63,0,0,1,43.68-70c.83-1.14,1.68-2.27,2.53-3.39l.38-.5C157.16,248.28,143.71,226.12,139.75,218Z"/></svg>